<?xml version="1.0" encoding="utf-8"?>
<!-- Generator: Adobe Illustrator 22.0.1, SVG Export Plug-In . SVG Version: 6.00 Build 0)  -->
<svg version="1.1" id="Слой_1" xmlns="http://www.w3.org/2000/svg" xmlns:xlink="http://www.w3.org/1999/xlink" x="0px" y="0px"
	 viewBox="0 0 2560 480" style="enable-background:new 0 0 2560 480;" xml:space="preserve">
<style type="text/css">
	.st0{fill:#EA711F;stroke:#000000;stroke-miterlimit:10;}
	.st1{fill:#262831;stroke:#000000;stroke-miterlimit:10;}
	.st2{fill:#262630;stroke:#000000;stroke-miterlimit:10;}
	.st3{fill:#232831;stroke:#000000;stroke-miterlimit:10;}
	.st4{fill:#242630;stroke:#000000;stroke-miterlimit:10;}
	.st5{fill:#24262F;stroke:#000000;stroke-miterlimit:10;}
	.st6{fill:#22232D;stroke:#000000;stroke-miterlimit:10;}
	.st7{fill:#2E2F39;stroke:#000000;stroke-miterlimit:10;}
	.st8{fill:#2B2F39;stroke:#000000;stroke-miterlimit:10;}
	.st9{fill:#23232D;stroke:#000000;stroke-miterlimit:10;}
	.st10{fill:#252731;stroke:#000000;stroke-miterlimit:10;}
	.st11{fill:#30323C;stroke:#000000;stroke-miterlimit:10;}
	.st12{fill:none;stroke:#000000;stroke-width:2;stroke-miterlimit:10;}
	.st13{fill:#252A33;stroke:#000000;stroke-miterlimit:10;}
	.st14{fill:#1C2129;stroke:#000000;stroke-miterlimit:10;}
	.st15{fill:#1E2229;stroke:#000000;stroke-miterlimit:10;}
	.st16{fill:#2D333C;stroke:#000000;stroke-miterlimit:10;}
	.st17{fill:#1E232B;stroke:#000000;stroke-miterlimit:10;}
	.st18{fill:#23242D;stroke:#000000;stroke-miterlimit:10;}
	.st19{fill:#1E2028;stroke:#000000;stroke-miterlimit:10;}
	.st20{fill:#20262E;stroke:#000000;stroke-miterlimit:10;}
	.st21{fill:#20242D;stroke:#000000;stroke-miterlimit:10;}
	.st22{fill:#272C35;stroke:#000000;stroke-miterlimit:10;}
	.st23{fill:#22272F;stroke:#000000;stroke-miterlimit:10;}
	.st24{fill:#292931;stroke:#000000;stroke-miterlimit:10;}
	.st25{fill:#1E232E;stroke:#000000;stroke-miterlimit:10;}
	.st26{fill:#1D1F28;stroke:#000000;stroke-miterlimit:10;}
	.st27{fill:#282A33;stroke:#000000;stroke-miterlimit:10;}
	.st28{fill:#262C35;stroke:#000000;stroke-miterlimit:10;}
</style>
<polygon class="st0" points="0.7,1.2 1.7,96.4 1.7,2.5 "/>
<polygon class="st0" points="1.7,2.5 1.7,96.4 86.6,117.6 "/>
<polygon class="st1" points="0.7,1.2 1.7,2.5 1.7,1.4 "/>
<polygon class="st1" points="233.6,36.7 1.7,1.4 1.7,2.5 40,54.5 "/>
<polygon class="st2" points="1.7,96.4 1.7,228.4 86.6,117.6 "/>
<polygon class="st3" points="86.6,117.6 184.6,41.2 40,54.5 "/>
<polygon class="st4" points="1.7,228.4 1.7,371.6 86.6,117.6 "/>
<polygon class="st0" points="1.7,371.6 0.7,481.2 72.9,480.9 1.7,480.9 "/>
<polygon class="st0" points="1.7,480.9 72.9,480.9 1.7,371.6 "/>
<polygon class="st1" points="197.5,481.2 197.3,480.9 196.9,480.9 "/>
<polygon class="st1" points="1.7,371.6 196.9,480.9 197.3,480.9 44.2,244.6 "/>
<polygon class="st3" points="197.5,481.2 196.9,480.9 72.9,480.9 "/>
<polygon class="st3" points="72.9,480.9 196.9,480.9 1.7,371.6 "/>
<polygon class="st5" points="44.2,244.6 197.5,214.7 86.6,117.6 "/>
<polygon class="st6" points="159.1,181.1 268.5,69 86.6,117.6 "/>
<polygon class="st6" points="86.6,117.6 268.5,69 184.6,41.2 "/>
<polygon class="st7" points="162,426.4 197.5,214.7 44.2,244.6 "/>
<polygon class="st6" points="197.5,481.2 407.9,481.2 406.5,480.9 197.3,480.9 "/>
<polygon class="st6" points="197.3,480.9 406.5,480.9 162,426.4 "/>
<polygon class="st8" points="162,426.4 244.8,320.6 197.5,214.7 "/>
<polygon class="st1" points="162,426.4 336.9,465.4 285,269.5 "/>
<polygon class="st7" points="233.6,36.7 268.5,69 308.3,1.2 236.8,35.1 "/>
<polygon class="st2" points="197.5,214.7 240.4,97.8 159.1,181.1 "/>
<polygon class="st6" points="244.8,320.6 285,269.5 197.5,214.7 "/>
<polygon class="st9" points="197.5,212.6 272.9,180.7 240.4,97.8 "/>
<polygon class="st9" points="273.1,181.1 273,181 197.5,214.7 "/>
<polygon class="st9" points="272.9,180.7 273,181 287.1,174.8 "/>
<polygon class="st3" points="273.1,181.1 369,137.6 240.4,97.8 "/>
<polygon class="st1" points="240.4,97.8 369,137.6 268.5,69 "/>
<polygon class="st10" points="369,137.6 308.3,1.2 268.5,69 "/>
<polygon class="st6" points="261.9,255.1 369,137.6 199.7,214.7 "/>
<polygon class="st9" points="285,269.5 324.1,186.9 261.9,255.1 "/>
<polygon class="st8" points="468.5,1.2 308.3,1.2 334.2,59.4 "/>
<polygon class="st7" points="521.8,69 468.5,1.2 334.2,59.4 "/>
<polygon class="st0" points="369,134.5 521.8,69 334.2,59.4 "/>
<polygon class="st6" points="475.6,134.5 521.8,69 369,134.5 "/>
<polygon class="st6" points="324.1,186.9 475.6,134.5 369,134.5 "/>
<polygon class="st5" points="285,269.5 475.6,134.5 325.8,186.2 "/>
<polygon class="st6" points="313.8,378.5 475.6,134.5 285,269.5 "/>
<polygon class="st11" points="407.9,481.2 508,480.9 408.4,480.9 "/>
<polygon class="st11" points="408.4,480.9 508,480.9 515.6,410.3 "/>
<polygon class="st1" points="508,480.9 556.9,480.9 515.6,410.3 "/>
<polygon class="st6" points="556.9,480.9 831.8,480.9 635.5,362.9 "/>
<polygon class="st3" points="515.6,410.3 556.9,480.9 632.8,362.9 "/>
<path class="st12" d="M356.4,314.2"/>
<polygon class="st13" points="425.8,209.6 486.6,345.6 475.6,134.5 "/>
<polygon class="st0" points="486.6,345.6 635.5,362.9 482,256.5 "/>
<polyline class="st12" points="314.5,380.9 336.9,465.4 407.9,481.2 313.8,378.5 407.9,479.1 425.8,209.6 515.6,410.3 635.5,362.9 
	486.6,345.6 "/>
<polygon class="st13" points="558.7,1.2 468.5,1.2 521.8,69 "/>
<polygon class="st13" points="475.6,134.5 482,256.5 521.8,69 519.8,71.9 "/>
<polygon class="st6" points="828.7,1.2 558.7,1.2 601.3,69 "/>
<polygon class="st6" points="601.3,69 558.7,1.2 521.8,69 "/>
<polygon class="st14" points="482,256.5 601.3,69 521.8,69 "/>
<polygon class="st15" points="482,256.5 632.8,209.6 537.8,168.8 "/>
<polygon class="st16" points="482,256.5 635.5,362.9 632.8,209.6 "/>
<polygon class="st3" points="537.8,168.8 632.4,207.7 600.1,70.9 "/>
<polygon class="st3" points="637.4,364.1 718.4,412.7 776.7,294.8 637.4,362 "/>
<polygon class="st3" points="733.6,30.3 601.3,69 632.4,207.7 637.4,362 776.7,294.8 632.8,209.6 "/>
<polygon class="st6" points="633.5,208.4 632.4,207.7 632.8,361.1 776.7,294.8 632.8,209.6 "/>
<polygon class="st6" points="633.5,208.4 776.7,294.8 692.6,101.8 "/>
<polygon class="st7" points="692.6,101.8 744.1,220 733.6,30.3 "/>
<polygon class="st6" points="739.6,137.6 831.8,1.2 733.6,30.3 "/>
<polygon class="st6" points="744.1,220 831.8,1.2 739.6,137.6 "/>
<polygon class="st1" points="776.7,294.8 834,1.2 744.1,220 "/>
<polygon class="st8" points="718.4,412.7 793.5,457.9 776.7,294.8 "/>
<polygon class="st7" points="793.5,457.9 831.8,480.9 776.7,294.8 "/>
<polygon class="st0" points="918.9,481.2 918.7,480.9 831.8,480.9 "/>
<polygon class="st0" points="831.8,480.9 918.7,480.9 878.9,387.9 "/>
<polygon class="st1" points="918.9,481.2 1026.8,480.9 919.4,480.9 "/>
<polygon class="st1" points="919.4,480.9 1026.8,480.9 1134.7,362.9 "/>
<polygon class="st3" points="993.9,230.8 776.7,294.8 878.9,387.9 "/>
<polygon class="st3" points="776.7,294.8 831.8,480.9 877.8,390 "/>
<polygon class="st10" points="776.7,294.8 993.9,228.8 802.5,162.7 "/>
<polygon class="st6" points="993.9,228.8 834,1.2 802.5,162.7 "/>
<polygon class="st0" points="918.9,1.2 834,1.2 951.7,80.7 "/>
<polygon class="st3" points="951.7,80.7 834,1.2 993.9,228.8 "/>
<polygon class="st7" points="878.9,387.9 1134.7,362.9 993.9,230.8 "/>
<polygon class="st3" points="918.9,481.2 919.4,480.9 918.7,480.9 "/>
<polygon class="st3" points="878.9,387.9 918.7,480.9 919.4,480.9 1134.7,362.9 "/>
<polygon class="st17" points="1026.8,480.9 1184.9,480.9 1087.9,414.2 "/>
<polygon class="st18" points="1087.9,415.1 1184.9,480.9 1134.7,362.9 "/>
<polygon class="st3" points="1455.4,481.2 1455.2,480.9 1248,480.9 "/>
<polygon class="st3" points="1248,480.9 1455.2,480.9 1341.2,305.9 "/>
<polygon class="st19" points="1134.7,362.9 1172.5,110.6 993.9,230.8 "/>
<polygon class="st1" points="993.9,230.8 1172.5,110.6 951.7,80.7 1029,1.2 918.9,1.2 950.8,78.5 "/>
<path class="st12" d="M993.9,228.8"/>
<polygon class="st8" points="1172.5,110.6 1029,1.2 951.7,80.7 "/>
<polygon class="st3" points="1134.7,362.9 1254.6,193.1 1172.5,110.6 "/>
<polygon class="st7" points="1087.9,1.2 1029,1.2 1172.5,110.6 "/>
<polygon class="st20" points="1187.6,1.2 1087.9,1.2 1172.5,110.6 "/>
<polygon class="st1" points="1134.7,362.9 1341.2,305.9 1254.6,193.1 "/>
<polygon class="st7" points="1184.9,478.7 1341.2,305.9 1134.7,362.9 1184.9,480.9 1248,480.9 1338.6,309.7 "/>
<path class="st3" d="M1341.2,305.9l103-24.9c0,0-183-84.8-189.7-87.9L1341.2,305.9z"/>
<path class="st7" d="M1254.6,193.1l189.7,87.9l-115-98.6C1329.3,182.4,1264.4,187.8,1254.6,193.1z"/>
<polygon class="st21" points="1175.3,113.4 1254.6,193.1 1208.6,60 "/>
<polygon class="st8" points="1254.6,193.1 1329.3,182.4 1208.6,60 "/>
<polygon class="st22" points="1455.4,481.2 1455.4,480.9 1455.2,480.9 "/>
<polygon class="st22" points="1341.2,305.9 1455.2,480.9 1455.4,480.9 1444.3,281 "/>
<polygon class="st23" points="1455.4,481.2 1493.1,480.9 1455.4,480.9 "/>
<polygon class="st23" points="1455.4,480.9 1493.1,480.9 1444.3,281 "/>
<polygon class="st1" points="1580.2,481.2 1580,480.9 1493.1,480.9 "/>
<polygon class="st1" points="1493.1,480.9 1580,480.9 1444.9,283.5 "/>
<polygon class="st1" points="1460.3,1.2 1248,1.2 1208.6,60 "/>
<polygon class="st3" points="1512.5,79.4 1465.2,1.2 1208.6,60 "/>
<polygon class="st24" points="1329.3,182.4 1410.1,72.8 1208.6,60 "/>
<polygon class="st6" points="1329.3,181.1 1512.5,78.1 1410.1,73.6 "/>
<polygon class="st0" points="1444.3,281 1455.4,111.5 1329.3,182.4 "/>
<polygon class="st6" points="1455.4,111.5 1660.6,182.4 1512.5,79.4 "/>
<polygon class="st25" points="1444.3,281 1560.9,148 1455.4,111.5 "/>
<polygon class="st5" points="1487.5,231.7 1660.6,182.4 1560.9,148 "/>
<polygon class="st19" points="1498.5,0.3 1465.2,0.3 1465.7,1.2 1498.6,1.2 "/>
<polygon class="st19" points="1582.1,1.2 1582.9,0.3 1498.5,0.3 1498.6,1.2 "/>
<polygon class="st19" points="1512.5,78.5 1582.1,1.2 1498.6,1.2 "/>
<polygon class="st19" points="1498.6,1.2 1465.7,1.2 1510.8,75.6 "/>
<polygon class="st3" points="1618.4,55.9 1582.9,1.2 1512.5,79.4 "/>
<polygon class="st6" points="1512.5,79.4 1660.6,182.4 1618.4,55.9 "/>
<polygon class="st7" points="1468.7,318.3 1657.9,275.3 1444.3,281 "/>
<polygon class="st7" points="1539.7,422.1 1657.9,275.3 1468.7,318.3 "/>
<polygon class="st5" points="1444.3,281 1594.6,201.2 1487.5,231.7 "/>
<polygon class="st6" points="1543.8,278 1594.6,201.2 1444.3,281 "/>
<polygon class="st6" points="1543.8,278 1657.9,275.3 1594.6,201.2 "/>
<polygon class="st3" points="1657.9,275.3 1660.6,182.4 1594.6,201.2 "/>
<polygon class="st23" points="1571.7,382.4 1582.9,292.4 1468.7,318.3 "/>
<polygon class="st8" points="1580.2,481.2 1580.3,480.9 1580,480.9 "/>
<polygon class="st8" points="1539.7,422.1 1580,480.9 1580.3,480.9 1657.9,275.3 "/>
<polygon class="st0" points="1641.5,1.2 1582.9,1.2 1618.4,55.9 "/>
<polygon class="st3" points="1690.3,1.2 1641.5,1.2 1618.4,55.9 "/>
<polygon class="st8" points="1851.6,1.2 1690.3,1.2 1618.4,55.9 "/>
<polygon class="st8" points="1880.9,77.6 1851.6,1.2 1618.4,55.9 "/>
<polygon class="st10" points="1660.6,182.4 1880.9,77.6 1618.4,55.9 "/>
<polygon class="st5" points="1657.9,275.3 1832.5,174.9 1660.6,182.4 "/>
<polygon class="st6" points="1832.5,174.9 1880.9,77.6 1660.6,182.4 "/>
<polygon class="st9" points="1612.2,396.5 1731.2,321.5 1660.6,275.3 1731.2,321.5 1832.5,174.9 1657.9,275.3 "/>
<polygon class="st8" points="1580.2,481.2 1580.5,480.9 1580.3,480.9 "/>
<polygon class="st8" points="1612.2,396.5 1580.3,480.9 1580.5,480.9 1731.2,321.5 "/>
<polygon class="st1" points="1580.2,481.2 1644.2,480.9 1580.5,480.9 "/>
<polygon class="st1" points="1580.5,480.9 1644.2,480.9 1731.2,321.5 "/>
<polygon class="st25" points="1774.7,481.2 1774.6,480.9 1644.2,480.9 "/>
<polygon class="st25" points="1644.2,480.9 1774.6,480.9 1731.2,321.5 "/>
<polygon class="st26" points="1774.7,481.2 1775,480.9 1774.6,480.9 "/>
<polygon class="st26" points="1731.2,321.5 1774.6,480.9 1775,480.9 1872.9,337.4 "/>
<polygon class="st0" points="1731.2,321.5 1872.9,337.4 1832.5,174.9 "/>
<polygon class="st9" points="1774.7,481.2 1860.9,481.2 1860.9,480.9 1775,480.9 "/>
<polygon class="st9" points="1775,480.9 1860.9,480.9 1872.9,337.4 "/>
<polygon class="st1" points="1860.9,481.2 1861.2,480.9 1860.9,480.9 "/>
<polygon class="st1" points="1872.9,337.4 1860.9,480.9 1861.2,480.9 2011.9,305.9 "/>
<polygon class="st8" points="1860.9,481.2 1942.6,481.2 1942.8,480.9 1861.2,480.9 "/>
<polygon class="st8" points="1861.2,480.9 1942.8,480.9 2011.9,305.9 "/>
<polygon class="st26" points="1942.6,481.2 2197.6,480.9 1942.8,480.9 "/>
<polygon class="st26" points="1942.8,480.9 2197.6,480.9 2011.9,305.9 "/>
<polygon class="st13" points="1872.9,337.4 2011.9,305.9 1832.5,174.9 "/>
<polygon class="st3" points="1946.6,1.2 1851.6,1.2 1880.9,77.6 "/>
<polygon class="st15" points="2100.3,-0.1 1946.6,-0.1 1945.5,1.2 2096.4,1.2 "/>
<polygon class="st15" points="2096.4,1.2 1945.5,1.2 1883.5,75.4 "/>
<polygon class="st15" points="1880.9,76.3 1881.6,77.6 1883.5,75.4 1882.9,75.6 "/>
<polygon class="st15" points="1832.5,173.5 2011.9,304.6 1881.6,77.6 1880.9,78.5 "/>
<path class="st10" d="M1942.6,187.3c1.2-0.1,55.5-150.5,55.5-150.5l-115.3,40.1L1942.6,187.3z"/>
<polygon class="st13" points="2011.9,305.9 2054.6,201.1 1942.6,187.3 "/>
<polygon class="st6" points="1942.6,185.2 2100.3,1.2 1998.2,36.8 "/>
<polygon class="st1" points="2054.6,202.1 2100.3,2.2 1942.6,186.2 "/>
<path class="st15" d="M2273.5,83.8c0,0-171-82.6-173.2-82.6l-16.2,70.7L2273.5,83.8z"/>
<polygon class="st6" points="2302.4,1.2 2100.3,1.2 2165.7,32 "/>
<polygon class="st6" points="2273.5,83.8 2302.4,1.2 2165.7,32 "/>
<polygon class="st6" points="2054.6,201.1 2178.8,77.9 2084.1,71.9 "/>
<polygon class="st10" points="2054.6,201.1 2254,148.7 2178.8,77.9 "/>
<polygon class="st11" points="2054.6,201.1 2281.5,207.8 2254,148.7 "/>
<polygon class="st27" points="2011.9,305.9 2264.2,389.4 2054.6,201.1 "/>
<polygon class="st1" points="2121,260.8 2281.5,207.8 2054.6,201.1 "/>
<polygon class="st3" points="2214.4,344.7 2281.5,207.8 2121,260.8 "/>
<polygon class="st7" points="2011.9,305.9 2197.6,480.9 2264.2,389.4 "/>
<polygon class="st6" points="2254,148.7 2273.5,83.8 2178.8,77.9 "/>
<path class="st7" d="M2337.5,83.8c0,0-32.4-82.6-35.1-82.6l-28.9,82.6H2337.5z"/>
<polygon class="st3" points="2447.6,1.2 2302.4,1.2 2337.5,83.8 "/>
<polygon class="st6" points="2254,148.7 2337.5,83.8 2273.5,83.8 "/>
<polygon class="st6" points="2281.5,207.8 2337.5,83.8 2254,148.7 "/>
<polygon class="st0" points="2264.2,389.4 2281.5,207.8 2214.4,344.7 "/>
<path class="st12" d="M2281.5,207.8"/>
<polygon class="st10" points="2264.2,389.4 2380.6,230.9 2283.4,208.2 "/>
<polygon class="st0" points="2537.3,93.2 2447.6,1.2 2337.5,83.8 "/>
<polygon class="st6" points="2365.1,178.2 2537.3,93.2 2337.5,83.8 "/>
<polygon class="st15" points="2380.6,230.9 2539.6,93.2 2365.1,178.2 "/>
<path class="st3" d="M2302.4,481.2h148.3c0,0-0.2-0.1-0.7-0.3h-147.8L2302.4,481.2z"/>
<path class="st3" d="M2302.3,480.9h147.8c-11.7-5.8-182.9-91.1-185.9-91.5L2302.3,480.9z"/>
<polygon class="st7" points="2343.9,428.2 2380.6,230.9 2264.2,389.4 "/>
<polygon class="st0" points="2450.7,481.2 2450.9,480.9 2450.1,480.9 "/>
<polygon class="st0" points="2343.9,428.2 2450.1,480.9 2450.9,480.9 2522.2,362.3 "/>
<polygon class="st6" points="2343.9,428.2 2522.2,362.3 2380.6,230.9 "/>
<polygon class="st5" points="2560,456.5 2522.2,362.3 2450.9,480.9 2560,480.9 "/>
<path class="st8" d="M2522.2,362.3l37.8,94.2v-55C2540.3,380.4,2523.9,363.2,2522.2,362.3z"/>
<polygon class="st7" points="2522.2,362.3 2560,402.6 2560,352.1 "/>
<polygon class="st3" points="2560,352 2560,307.9 2522.2,362.3 "/>
<polygon class="st12" points="2560,113.9 2560,31 2539.6,93.2 "/>
<polygon class="st21" points="2560,31 2560,1.2 2447.6,1.2 2539.6,93.2 "/>
<polygon class="st23" points="2460.1,304.7 2539.6,93.2 2380.6,230.9 "/>
<polygon class="st6" points="2460.1,304.7 2560,242.9 2560,113.9 2539.6,93.2 "/>
<polygon class="st28" points="2522.2,362.3 2560,307.9 2560,242.9 2460.1,304.7 "/>
<polygon class="st7" points="0.7,1.2 1.7,1.4 1.7,1.2 "/>
<polygon class="st7" points="308.3,1.2 1.7,1.2 1.7,1.4 233.6,36.7 "/>
<polygon class="st7" points="184.6,41.2 268.5,69 233.6,36.7 "/>
<path class="st1" d="M407.9,481.2c0.1,0,0.2-0.2,0.5-0.3h-0.6C407.8,481.2,407.9,481.3,407.9,481.2z"/>
<path class="st1" d="M425.8,209.6c0,0-19.4,260.7-18,271.3h0.6c8.1-5.4,107.1-70.6,107.1-70.6L425.8,209.6z"/>
<polygon class="st3" points="407.9,479.1 424.1,212.1 313.8,378.5 "/>
<polygon class="st6" points="408.9,482.1 407.8,480.9 404.2,480.9 "/>
<polygon class="st6" points="337.1,464.3 404.2,480.9 407.8,480.9 313.8,378.5 "/>
<polygon class="st7" points="515.6,410.3 632.8,362.9 486.6,345.6 "/>
<polygon class="st1" points="558.7,1.2 468.5,1.2 521.8,69 "/>
<polygon class="st5" points="2302.4,481.2 2302.3,480.9 2197.6,480.9 "/>
<polygon class="st5" points="2197.6,480.9 2302.3,480.9 2264.2,389.4 "/>
<polygon class="st3" points="2560,115.6 2560,25.7 2537.3,93.2 "/>
<path class="st10" d="M2281.5,207.8c1.9,0.4,99,23.2,99,23.2l-43.1-147.1C2337.5,83.8,2279.6,207.3,2281.5,207.8z"/>
<polygon class="st10" points="2264.2,389.4 2380.6,230.9 2281.5,207.8 "/>
<polygon class="st19" points="1498.5,0.3 1465.2,1.2 1498.6,1.2 "/>
<polygon class="st19" points="1498.6,1.2 1465.2,1.2 1512.5,78.1 "/>
<polygon class="st8" points="1207.9,61.1 1207.1,62.3 1174.7,110.6 "/>
<polygon class="st8" points="1207.1,62.3 1248,1.2 1187.6,1.2 1172.5,110.6 "/>
<polygon class="st8" points="1247.4,2.1 1187.6,1.2 1171.2,119.2 "/>
<line class="st7" x1="802.5" y1="162.7" x2="996.3" y2="229.3"/>
<polygon class="st15" points="993.9,228.8 776.7,294.8 879.8,386.3 "/>
<polygon class="st15" points="776.7,294.8 831.8,480.9 878.9,387.9 "/>
<path class="st6" d="M878.9,387.9l-102.2-93.1L878.9,387.9z"/>
<path class="st7" d="M720.1,304.4"/>
<polygon class="st6" points="197.5,214.7 273.1,181.1 240.4,97.8 "/>
<polygon class="st15" points="558.7,478.1 635.5,362.9 515.6,410.3 "/>
<polygon class="st7" points="635.5,362.9 776.7,294.8 632.8,209.6 "/>
<polygon class="st7" points="482,256.5 635.5,362.9 632.8,209.6 "/>
<polygon class="st14" points="515.6,410.3 556.9,480.9 635.5,362.9 "/>
<polygon class="st7" points="537.8,168.8 632.8,209.6 601.3,69 "/>
<polygon class="st7" points="744.1,220 831.8,1.2 739.6,137.6 "/>
<polygon class="st7" points="744.1,220 834,1.2 739.6,137.6 "/>
</svg>
