<?xml version="1.0" encoding="UTF-8" standalone="no"?>
<!DOCTYPE svg PUBLIC "-//W3C//DTD SVG 1.1//EN" "http://www.w3.org/Graphics/SVG/1.1/DTD/svg11.dtd">
<svg width="100%" height="100%" viewBox="0 0 10667 2000" version="1.1" xmlns="http://www.w3.org/2000/svg" xmlns:xlink="http://www.w3.org/1999/xlink" xml:space="preserve" xmlns:serif="http://www.serif.com/" style="fill-rule:evenodd;clip-rule:evenodd;stroke-miterlimit:10;">
    <g transform="matrix(4.16667,0,0,4.16667,0,0)">
        <path d="M0.7,1.2L1.7,96.4L1.7,2.5L0.7,1.2Z" style="fill:rgb(234,113,31);fill-rule:nonzero;stroke:black;stroke-width:1px;"/>
        <g transform="matrix(1.01465,0,0,1.01185,-1.26858,-1.51774)">
            <path d="M1.7,2.5L1.7,96.4L86.6,117.6L1.7,2.5Z" style="fill:rgb(234,113,31);fill-rule:nonzero;stroke:black;stroke-width:1px;"/>
        </g>
        <path d="M0.7,1.2L1.7,2.5L1.7,1.4L0.7,1.2Z" style="fill:rgb(38,40,49);fill-rule:nonzero;stroke:black;stroke-width:1px;"/>
        <path d="M233.6,36.7L1.7,1.4L1.7,2.5L40,54.5L233.6,36.7Z" style="fill:rgb(38,40,49);fill-rule:nonzero;stroke:black;stroke-width:1px;"/>
        <g transform="matrix(1.01548,0,0,0.995436,-1.34037,0.43995)">
            <path d="M1.7,96.4L1.7,228.4L86.6,117.6L1.7,96.4Z" style="fill:rgb(38,38,48);fill-rule:nonzero;stroke:black;stroke-width:1px;"/>
        </g>
        <path d="M86.6,117.6L184.6,41.2L40,54.5L86.6,117.6Z" style="fill:rgb(35,40,49);fill-rule:nonzero;stroke:black;stroke-width:1px;"/>
        <g transform="matrix(1.01799,0,0,0.998999,-1.55779,0.117667)">
            <path d="M1.7,228.4L1.7,371.6L86.6,117.6L1.7,228.4Z" style="fill:rgb(36,38,48);fill-rule:nonzero;stroke:black;stroke-width:1px;"/>
        </g>
        <path d="M1.7,371.6L0.7,481.2L72.9,480.9L1.7,480.9L1.7,371.6Z" style="fill:rgb(234,113,31);fill-rule:nonzero;stroke:black;stroke-width:1px;"/>
        <g transform="matrix(1.01795,0,0,1.00495,-1.30824,-2.38033)">
            <path d="M1.7,480.9L72.9,480.9L1.7,371.6L1.7,480.9Z" style="fill:rgb(234,113,31);fill-rule:nonzero;stroke:black;stroke-width:1px;"/>
        </g>
        <path d="M197.5,481.2L197.3,480.9L196.9,480.9L197.5,481.2Z" style="fill:rgb(38,40,49);fill-rule:nonzero;stroke:black;stroke-width:1px;"/>
        <g transform="matrix(1.00285,0,0,1,-0.56221,0)">
            <path d="M1.7,371.6L196.9,480.9L197.3,480.9L44.2,244.6L1.7,371.6Z" style="fill:rgb(38,40,49);fill-rule:nonzero;stroke:black;stroke-width:1px;"/>
        </g>
        <path d="M197.5,481.2L196.9,480.9L72.9,480.9L197.5,481.2Z" style="fill:rgb(35,40,49);fill-rule:nonzero;stroke:black;stroke-width:1px;"/>
        <path d="M72.9,480.9L196.9,480.9L1.7,371.6L72.9,480.9Z" style="fill:rgb(35,40,49);fill-rule:nonzero;stroke:black;stroke-width:1px;"/>
        <path d="M44.2,244.6L197.5,214.7L86.6,117.6L44.2,244.6Z" style="fill:rgb(36,38,47);fill-rule:nonzero;stroke:black;stroke-width:1px;"/>
        <path d="M159.1,181.1L268.5,69L86.6,117.6L159.1,181.1Z" style="fill:rgb(34,35,45);fill-rule:nonzero;stroke:black;stroke-width:1px;"/>
        <path d="M86.6,117.6L268.5,69L184.6,41.2L86.6,117.6Z" style="fill:rgb(34,35,45);fill-rule:nonzero;stroke:black;stroke-width:1px;"/>
        <path d="M162,426.4L197.5,214.7L44.2,244.6L162,426.4Z" style="fill:rgb(46,47,57);fill-rule:nonzero;stroke:black;stroke-width:1px;"/>
        <path d="M197.5,481.2L407.9,481.2L406.5,480.9L197.3,480.9L197.5,481.2Z" style="fill:rgb(34,35,45);fill-rule:nonzero;stroke:black;stroke-width:1px;"/>
        <path d="M197.3,480.9L406.5,480.9L162,426.4L197.3,480.9Z" style="fill:rgb(34,35,45);fill-rule:nonzero;stroke:black;stroke-width:1px;"/>
        <path d="M162,426.4L244.8,320.6L197.5,214.7L162,426.4Z" style="fill:rgb(43,47,57);fill-rule:nonzero;stroke:black;stroke-width:1px;"/>
        <path d="M162,426.4L336.9,465.4L285,269.5L162,426.4Z" style="fill:rgb(38,40,49);fill-rule:nonzero;stroke:black;stroke-width:1px;"/>
        <path d="M233.6,36.7L268.5,69L308.3,1.2L236.8,35.1L233.6,36.7Z" style="fill:rgb(46,47,57);fill-rule:nonzero;stroke:black;stroke-width:1px;"/>
        <path d="M197.5,214.7L240.4,97.8L159.1,181.1L197.5,214.7Z" style="fill:rgb(38,38,48);fill-rule:nonzero;stroke:black;stroke-width:1px;"/>
        <path d="M244.8,320.6L285,269.5L197.5,214.7L244.8,320.6Z" style="fill:rgb(34,35,45);fill-rule:nonzero;stroke:black;stroke-width:1px;"/>
        <path d="M197.5,212.6L272.9,180.7L240.4,97.8L197.5,212.6Z" style="fill:rgb(35,35,45);fill-rule:nonzero;stroke:black;stroke-width:1px;"/>
        <path d="M273.1,181.1L273,181L197.5,214.7L273.1,181.1Z" style="fill:rgb(35,35,45);fill-rule:nonzero;stroke:black;stroke-width:1px;"/>
        <path d="M272.9,180.7L273,181L287.1,174.8L272.9,180.7Z" style="fill:rgb(35,35,45);fill-rule:nonzero;stroke:black;stroke-width:1px;"/>
        <path d="M273.1,181.1L369,137.6L240.4,97.8L273.1,181.1Z" style="fill:rgb(35,40,49);fill-rule:nonzero;stroke:black;stroke-width:1px;"/>
        <path d="M240.4,97.8L369,137.6L268.5,69L240.4,97.8Z" style="fill:rgb(38,40,49);fill-rule:nonzero;stroke:black;stroke-width:1px;"/>
        <path d="M369,137.6L308.3,1.2L268.5,69L369,137.6Z" style="fill:rgb(37,39,49);fill-rule:nonzero;stroke:black;stroke-width:1px;"/>
        <path d="M261.9,255.1L369,137.6L199.7,214.7L261.9,255.1Z" style="fill:rgb(34,35,45);fill-rule:nonzero;stroke:black;stroke-width:1px;"/>
        <path d="M285,269.5L324.1,186.9L261.9,255.1L285,269.5Z" style="fill:rgb(35,35,45);fill-rule:nonzero;stroke:black;stroke-width:1px;"/>
        <g transform="matrix(1.00274,0,0,1.01286,-0.845795,-0.764152)">
            <path d="M468.5,1.2L308.3,1.2L334.2,59.4L468.5,1.2Z" style="fill:rgb(43,47,57);fill-rule:nonzero;stroke:black;stroke-width:1px;"/>
        </g>
        <path d="M521.8,69L468.5,1.2L334.2,59.4L521.8,69Z" style="fill:rgb(46,47,57);fill-rule:nonzero;stroke:black;stroke-width:1px;"/>
        <path d="M369,134.5L521.8,69L334.2,59.4L369,134.5Z" style="fill:rgb(234,113,31);fill-rule:nonzero;stroke:black;stroke-width:1px;"/>
        <path d="M475.6,134.5L521.8,69L369,134.5L475.6,134.5Z" style="fill:rgb(34,35,45);fill-rule:nonzero;stroke:black;stroke-width:1px;"/>
        <path d="M324.1,186.9L475.6,134.5L369,134.5L324.1,186.9Z" style="fill:rgb(34,35,45);fill-rule:nonzero;stroke:black;stroke-width:1px;"/>
        <path d="M285,269.5L475.6,134.5L325.8,186.2L285,269.5Z" style="fill:rgb(36,38,47);fill-rule:nonzero;stroke:black;stroke-width:1px;"/>
        <path d="M313.8,378.5L475.6,134.5L285,269.5L313.8,378.5Z" style="fill:rgb(34,35,45);fill-rule:nonzero;stroke:black;stroke-width:1px;"/>
        <path d="M407.9,481.2L508,480.9L408.4,480.9L407.9,481.2Z" style="fill:rgb(48,50,60);fill-rule:nonzero;stroke:black;stroke-width:1px;"/>
        <path d="M408.4,480.9L508,480.9L515.6,410.3L408.4,480.9Z" style="fill:rgb(48,50,60);fill-rule:nonzero;stroke:black;stroke-width:1px;"/>
        <path d="M508,480.9L556.9,480.9L515.6,410.3L508,480.9Z" style="fill:rgb(38,40,49);fill-rule:nonzero;stroke:black;stroke-width:1px;"/>
        <path d="M556.9,480.9L831.8,480.9L635.5,362.9L556.9,480.9Z" style="fill:rgb(34,35,45);fill-rule:nonzero;stroke:black;stroke-width:1px;"/>
        <path d="M515.6,410.3L556.9,480.9L632.8,362.9L515.6,410.3Z" style="fill:rgb(35,40,49);fill-rule:nonzero;stroke:black;stroke-width:1px;"/>
        <path d="M425.8,209.6L486.6,345.6L475.6,134.5L425.8,209.6Z" style="fill:rgb(37,42,51);fill-rule:nonzero;stroke:black;stroke-width:1px;"/>
        <path d="M486.6,345.6L635.5,362.9L482,256.5L486.6,345.6Z" style="fill:rgb(234,113,31);fill-rule:nonzero;stroke:black;stroke-width:1px;"/>
        <path d="M314.5,380.9L336.9,465.4L407.9,481.2L313.8,378.5L407.9,479.1L425.8,209.6L515.6,410.3L635.5,362.9L486.6,345.6" style="fill:none;fill-rule:nonzero;stroke:black;stroke-width:2px;"/>
        <path d="M558.7,1.2L468.5,1.2L521.8,69L558.7,1.2Z" style="fill:rgb(37,42,51);fill-rule:nonzero;stroke:black;stroke-width:1px;"/>
        <path d="M475.6,134.5L482,256.5L521.8,69L519.8,71.9L475.6,134.5Z" style="fill:rgb(37,42,51);fill-rule:nonzero;stroke:black;stroke-width:1px;"/>
        <g transform="matrix(1.01195,0,0,1.01371,-6.67715,-0.946284)">
            <path d="M828.7,1.2L558.7,1.2L601.3,69L828.7,1.2Z" style="fill:rgb(34,35,45);fill-rule:nonzero;stroke:black;stroke-width:1px;"/>
        </g>
        <path d="M601.3,69L558.7,1.2L521.8,69L601.3,69Z" style="fill:rgb(34,35,45);fill-rule:nonzero;stroke:black;stroke-width:1px;"/>
        <path d="M482,256.5L601.3,69L521.8,69L482,256.5Z" style="fill:rgb(28,33,41);fill-rule:nonzero;stroke:black;stroke-width:1px;"/>
        <path d="M482,256.5L632.8,209.6L537.8,168.8L482,256.5Z" style="fill:rgb(30,34,41);fill-rule:nonzero;stroke:black;stroke-width:1px;"/>
        <path d="M482,256.5L635.5,362.9L632.8,209.6L482,256.5Z" style="fill:rgb(45,51,60);fill-rule:nonzero;stroke:black;stroke-width:1px;"/>
        <path d="M537.8,168.8L632.4,207.7L600.1,70.9L537.8,168.8Z" style="fill:rgb(35,40,49);fill-rule:nonzero;stroke:black;stroke-width:1px;"/>
        <path d="M637.4,364.1L718.4,412.7L776.7,294.8L637.4,362L637.4,364.1Z" style="fill:rgb(35,40,49);fill-rule:nonzero;stroke:black;stroke-width:1px;"/>
        <path d="M733.6,30.3L601.3,69L632.4,207.7L637.4,362L776.7,294.8L632.8,209.6L733.6,30.3Z" style="fill:rgb(35,40,49);fill-rule:nonzero;stroke:black;stroke-width:1px;"/>
        <path d="M633.5,208.4L632.4,207.7L632.8,361.1L776.7,294.8L632.8,209.6L633.5,208.4Z" style="fill:rgb(34,35,45);fill-rule:nonzero;stroke:black;stroke-width:1px;"/>
        <path d="M633.5,208.4L776.7,294.8L692.6,101.8L633.5,208.4Z" style="fill:rgb(34,35,45);fill-rule:nonzero;stroke:black;stroke-width:1px;"/>
        <path d="M692.6,101.8L744.1,220L733.6,30.3L692.6,101.8Z" style="fill:rgb(46,47,57);fill-rule:nonzero;stroke:black;stroke-width:1px;"/>
        <g transform="matrix(1.02653,0,0,1.00736,-19.4653,-1.01326)">
            <path d="M739.6,137.6L831.8,1.2L733.6,30.3L739.6,137.6Z" style="fill:rgb(34,35,45);fill-rule:nonzero;stroke:black;stroke-width:1px;"/>
        </g>
        <path d="M744.1,220L831.8,1.2L739.6,137.6L744.1,220Z" style="fill:rgb(34,35,45);fill-rule:nonzero;stroke:black;stroke-width:1px;"/>
        <path d="M776.7,294.8L834,1.2L744.1,220L776.7,294.8Z" style="fill:rgb(38,40,49);fill-rule:nonzero;stroke:black;stroke-width:1px;"/>
        <path d="M718.4,412.7L793.5,457.9L776.7,294.8L718.4,412.7Z" style="fill:rgb(43,47,57);fill-rule:nonzero;stroke:black;stroke-width:1px;"/>
        <path d="M793.5,457.9L831.8,480.9L776.7,294.8L793.5,457.9Z" style="fill:rgb(46,47,57);fill-rule:nonzero;stroke:black;stroke-width:1px;"/>
        <path d="M918.9,481.2L918.7,480.9L831.8,480.9L918.9,481.2Z" style="fill:rgb(234,113,31);fill-rule:nonzero;stroke:black;stroke-width:1px;"/>
        <path d="M831.8,480.9L918.7,480.9L878.9,387.9L831.8,480.9Z" style="fill:rgb(234,113,31);fill-rule:nonzero;stroke:black;stroke-width:1px;"/>
        <path d="M918.9,481.2L1026.8,480.9L919.4,480.9L918.9,481.2Z" style="fill:rgb(38,40,49);fill-rule:nonzero;stroke:black;stroke-width:1px;"/>
        <path d="M919.4,480.9L1026.8,480.9L1134.7,362.9L919.4,480.9Z" style="fill:rgb(38,40,49);fill-rule:nonzero;stroke:black;stroke-width:1px;"/>
        <path d="M993.9,230.8L776.7,294.8L878.9,387.9L993.9,230.8Z" style="fill:rgb(35,40,49);fill-rule:nonzero;stroke:black;stroke-width:1px;"/>
        <path d="M776.7,294.8L831.8,480.9L877.8,390L776.7,294.8Z" style="fill:rgb(35,40,49);fill-rule:nonzero;stroke:black;stroke-width:1px;"/>
        <path d="M776.7,294.8L993.9,228.8L802.5,162.7L776.7,294.8Z" style="fill:rgb(37,39,49);fill-rule:nonzero;stroke:black;stroke-width:1px;"/>
        <path d="M993.9,228.8L834,1.2L802.5,162.7L993.9,228.8Z" style="fill:rgb(34,35,45);fill-rule:nonzero;stroke:black;stroke-width:1px;"/>
        <g transform="matrix(1,0,0,1.00918,0,-0.741151)">
            <path d="M918.9,1.2L834,1.2L951.7,80.7L918.9,1.2Z" style="fill:rgb(234,113,31);fill-rule:nonzero;stroke:black;stroke-width:1px;"/>
        </g>
        <path d="M951.7,80.7L834,1.2L993.9,228.8L951.7,80.7Z" style="fill:rgb(35,40,49);fill-rule:nonzero;stroke:black;stroke-width:1px;"/>
        <path d="M878.9,387.9L1134.7,362.9L993.9,230.8L878.9,387.9Z" style="fill:rgb(46,47,57);fill-rule:nonzero;stroke:black;stroke-width:1px;"/>
        <path d="M918.9,481.2L919.4,480.9L918.7,480.9L918.9,481.2Z" style="fill:rgb(35,40,49);fill-rule:nonzero;stroke:black;stroke-width:1px;"/>
        <path d="M878.9,387.9L918.7,480.9L919.4,480.9L1134.7,362.9L878.9,387.9Z" style="fill:rgb(35,40,49);fill-rule:nonzero;stroke:black;stroke-width:1px;"/>
        <path d="M1026.8,480.9L1184.9,480.9L1087.9,414.2L1026.8,480.9Z" style="fill:rgb(30,35,43);fill-rule:nonzero;stroke:black;stroke-width:1px;"/>
        <path d="M1087.9,415.1L1184.9,480.9L1134.7,362.9L1087.9,415.1Z" style="fill:rgb(35,36,45);fill-rule:nonzero;stroke:black;stroke-width:1px;"/>
        <path d="M1455.4,481.2L1455.2,480.9L1248,480.9L1455.4,481.2Z" style="fill:rgb(35,40,49);fill-rule:nonzero;stroke:black;stroke-width:1px;"/>
        <path d="M1248,480.9L1455.2,480.9L1341.2,305.9L1248,480.9Z" style="fill:rgb(35,40,49);fill-rule:nonzero;stroke:black;stroke-width:1px;"/>
        <path d="M1134.7,362.9L1172.5,110.6L993.9,230.8L1134.7,362.9Z" style="fill:rgb(30,32,40);fill-rule:nonzero;stroke:black;stroke-width:1px;"/>
        <g transform="matrix(1,0,0,1.00339,0,-0.783053)">
            <path d="M993.9,230.8L1172.5,110.6L951.7,80.7L1029,1.2L918.9,1.2L950.8,78.5L993.9,230.8Z" style="fill:rgb(38,40,49);fill-rule:nonzero;stroke:black;stroke-width:1px;"/>
        </g>
        <path d="M1172.5,110.6L1029,1.2L951.7,80.7L1172.5,110.6Z" style="fill:rgb(43,47,57);fill-rule:nonzero;stroke:black;stroke-width:1px;"/>
        <path d="M1134.7,362.9L1254.6,193.1L1172.5,110.6L1134.7,362.9Z" style="fill:rgb(35,40,49);fill-rule:nonzero;stroke:black;stroke-width:1px;"/>
        <g transform="matrix(1,0,0,1.00717,0,-0.792865)">
            <path d="M1087.9,1.2L1029,1.2L1172.5,110.6L1087.9,1.2Z" style="fill:rgb(46,47,57);fill-rule:nonzero;stroke:black;stroke-width:1px;"/>
        </g>
        <g transform="matrix(0.999401,0,0,1.00755,0.65191,-0.835245)">
            <path d="M1187.6,1.2L1087.9,1.2L1172.5,110.6L1187.6,1.2Z" style="fill:rgb(32,38,46);fill-rule:nonzero;stroke:black;stroke-width:1px;"/>
        </g>
        <path d="M1134.7,362.9L1341.2,305.9L1254.6,193.1L1134.7,362.9Z" style="fill:rgb(38,40,49);fill-rule:nonzero;stroke:black;stroke-width:1px;"/>
        <path d="M1184.9,478.7L1341.2,305.9L1134.7,362.9L1184.9,480.9L1248,480.9L1338.6,309.7L1184.9,478.7Z" style="fill:rgb(46,47,57);fill-rule:nonzero;stroke:black;stroke-width:1px;"/>
        <path d="M1341.2,305.9L1444.2,281C1444.2,281 1261.2,196.2 1254.5,193.1L1341.2,305.9Z" style="fill:rgb(35,40,49);fill-rule:nonzero;stroke:black;stroke-width:1px;"/>
        <path d="M1254.6,193.1L1444.3,281L1329.3,182.4C1329.3,182.4 1264.4,187.8 1254.6,193.1Z" style="fill:rgb(46,47,57);fill-rule:nonzero;stroke:black;stroke-width:1px;"/>
        <path d="M1175.3,113.4L1254.6,193.1L1208.6,60L1175.3,113.4Z" style="fill:rgb(32,36,45);fill-rule:nonzero;stroke:black;stroke-width:1px;"/>
        <path d="M1254.6,193.1L1329.3,182.4L1208.6,60L1254.6,193.1Z" style="fill:rgb(43,47,57);fill-rule:nonzero;stroke:black;stroke-width:1px;"/>
        <path d="M1455.4,481.2L1455.4,480.9L1455.2,480.9L1455.4,481.2Z" style="fill:rgb(39,44,53);fill-rule:nonzero;stroke:black;stroke-width:1px;"/>
        <path d="M1341.2,305.9L1455.2,480.9L1455.4,480.9L1444.3,281L1341.2,305.9Z" style="fill:rgb(39,44,53);fill-rule:nonzero;stroke:black;stroke-width:1px;"/>
        <path d="M1455.4,481.2L1493.1,480.9L1455.4,480.9L1455.4,481.2Z" style="fill:rgb(34,39,47);fill-rule:nonzero;stroke:black;stroke-width:1px;"/>
        <path d="M1455.4,480.9L1493.1,480.9L1444.3,281L1455.4,480.9Z" style="fill:rgb(34,39,47);fill-rule:nonzero;stroke:black;stroke-width:1px;"/>
        <path d="M1580.2,481.2L1580,480.9L1493.1,480.9L1580.2,481.2Z" style="fill:rgb(38,40,49);fill-rule:nonzero;stroke:black;stroke-width:1px;"/>
        <path d="M1493.1,480.9L1580,480.9L1444.9,283.5L1493.1,480.9Z" style="fill:rgb(38,40,49);fill-rule:nonzero;stroke:black;stroke-width:1px;"/>
        <g transform="matrix(1.02141,0,0,1.01412,-25.8758,-0.847422)">
            <path d="M1460.3,1.2L1248,1.2L1208.6,60L1460.3,1.2Z" style="fill:rgb(38,40,49);fill-rule:nonzero;stroke:black;stroke-width:1px;"/>
        </g>
        <path d="M1512.5,79.4L1465.2,1.2L1208.6,60L1512.5,79.4Z" style="fill:rgb(35,40,49);fill-rule:nonzero;stroke:black;stroke-width:1px;"/>
        <path d="M1329.3,182.4L1410.1,72.8L1208.6,60L1329.3,182.4Z" style="fill:rgb(41,41,49);fill-rule:nonzero;stroke:black;stroke-width:1px;"/>
        <path d="M1329.3,181.1L1512.5,78.1L1410.1,73.6L1329.3,181.1Z" style="fill:rgb(34,35,45);fill-rule:nonzero;stroke:black;stroke-width:1px;"/>
        <path d="M1444.3,281L1455.4,111.5L1329.3,182.4L1444.3,281Z" style="fill:rgb(234,113,31);fill-rule:nonzero;stroke:black;stroke-width:1px;"/>
        <path d="M1455.4,111.5L1660.6,182.4L1512.5,79.4L1455.4,111.5Z" style="fill:rgb(34,35,45);fill-rule:nonzero;stroke:black;stroke-width:1px;"/>
        <path d="M1444.3,281L1560.9,148L1455.4,111.5L1444.3,281Z" style="fill:rgb(30,35,46);fill-rule:nonzero;stroke:black;stroke-width:1px;"/>
        <path d="M1487.5,231.7L1660.6,182.4L1560.9,148L1487.5,231.7Z" style="fill:rgb(36,38,47);fill-rule:nonzero;stroke:black;stroke-width:1px;"/>
        <path d="M1498.5,0.3L1465.2,0.3L1465.7,1.2L1498.6,1.2L1498.5,0.3Z" style="fill:rgb(30,32,40);fill-rule:nonzero;stroke:black;stroke-width:1px;"/>
        <path d="M1582.1,1.2L1582.9,0.3L1498.5,0.3L1498.6,1.2L1582.1,1.2Z" style="fill:rgb(30,32,40);fill-rule:nonzero;stroke:black;stroke-width:1px;"/>
        <path d="M1512.5,78.5L1582.1,1.2L1498.6,1.2L1512.5,78.5Z" style="fill:rgb(30,32,40);fill-rule:nonzero;stroke:black;stroke-width:1px;"/>
        <path d="M1498.6,1.2L1465.7,1.2L1510.8,75.6L1498.6,1.2Z" style="fill:rgb(30,32,40);fill-rule:nonzero;stroke:black;stroke-width:1px;"/>
        <path d="M1618.4,55.9L1582.9,1.2L1512.5,79.4L1618.4,55.9Z" style="fill:rgb(35,40,49);fill-rule:nonzero;stroke:black;stroke-width:1px;"/>
        <path d="M1512.5,79.4L1660.6,182.4L1618.4,55.9L1512.5,79.4Z" style="fill:rgb(34,35,45);fill-rule:nonzero;stroke:black;stroke-width:1px;"/>
        <path d="M1468.7,318.3L1657.9,275.3L1444.3,281L1468.7,318.3Z" style="fill:rgb(46,47,57);fill-rule:nonzero;stroke:black;stroke-width:1px;"/>
        <path d="M1539.7,422.1L1657.9,275.3L1468.7,318.3L1539.7,422.1Z" style="fill:rgb(46,47,57);fill-rule:nonzero;stroke:black;stroke-width:1px;"/>
        <path d="M1444.3,281L1594.6,201.2L1487.5,231.7L1444.3,281Z" style="fill:rgb(36,38,47);fill-rule:nonzero;stroke:black;stroke-width:1px;"/>
        <path d="M1543.8,278L1594.6,201.2L1444.3,281L1543.8,278Z" style="fill:rgb(34,35,45);fill-rule:nonzero;stroke:black;stroke-width:1px;"/>
        <path d="M1543.8,278L1657.9,275.3L1594.6,201.2L1543.8,278Z" style="fill:rgb(34,35,45);fill-rule:nonzero;stroke:black;stroke-width:1px;"/>
        <path d="M1657.9,275.3L1660.6,182.4L1594.6,201.2L1657.9,275.3Z" style="fill:rgb(35,40,49);fill-rule:nonzero;stroke:black;stroke-width:1px;"/>
        <path d="M1571.7,382.4L1582.9,292.4L1468.7,318.3L1571.7,382.4Z" style="fill:rgb(34,39,47);fill-rule:nonzero;stroke:black;stroke-width:1px;"/>
        <path d="M1580.2,481.2L1580.3,480.9L1580,480.9L1580.2,481.2Z" style="fill:rgb(43,47,57);fill-rule:nonzero;stroke:black;stroke-width:1px;"/>
        <path d="M1539.7,422.1L1580,480.9L1580.3,480.9L1657.9,275.3L1539.7,422.1Z" style="fill:rgb(43,47,57);fill-rule:nonzero;stroke:black;stroke-width:1px;"/>
        <g transform="matrix(1.0005,0,0,1.01342,-0.796753,-0.750319)">
            <path d="M1641.5,1.2L1582.9,1.2L1618.4,55.9L1641.5,1.2Z" style="fill:rgb(234,113,31);fill-rule:nonzero;stroke:black;stroke-width:1px;"/>
        </g>
        <g transform="matrix(0.999753,0,0,1.01479,0.399846,-0.8269)">
            <path d="M1690.3,1.2L1641.5,1.2L1618.4,55.9L1690.3,1.2Z" style="fill:rgb(35,40,49);fill-rule:nonzero;stroke:black;stroke-width:1px;"/>
        </g>
        <g transform="matrix(1.0001,0,0,1.01496,-0.160296,-0.836115)">
            <path d="M1851.6,1.2L1690.3,1.2L1618.4,55.9L1851.6,1.2Z" style="fill:rgb(43,47,57);fill-rule:nonzero;stroke:black;stroke-width:1px;"/>
        </g>
        <path d="M1880.9,77.6L1851.6,1.2L1618.4,55.9L1880.9,77.6Z" style="fill:rgb(43,47,57);fill-rule:nonzero;stroke:black;stroke-width:1px;"/>
        <path d="M1660.6,182.4L1880.9,77.6L1618.4,55.9L1660.6,182.4Z" style="fill:rgb(37,39,49);fill-rule:nonzero;stroke:black;stroke-width:1px;"/>
        <path d="M1657.9,275.3L1832.5,174.9L1660.6,182.4L1657.9,275.3Z" style="fill:rgb(36,38,47);fill-rule:nonzero;stroke:black;stroke-width:1px;"/>
        <path d="M1832.5,174.9L1880.9,77.6L1660.6,182.4L1832.5,174.9Z" style="fill:rgb(34,35,45);fill-rule:nonzero;stroke:black;stroke-width:1px;"/>
        <path d="M1612.2,396.5L1731.2,321.5L1660.6,275.3L1731.2,321.5L1832.5,174.9L1657.9,275.3L1612.2,396.5Z" style="fill:rgb(35,35,45);fill-rule:nonzero;stroke:black;stroke-width:1px;"/>
        <path d="M1580.2,481.2L1580.5,480.9L1580.3,480.9L1580.2,481.2Z" style="fill:rgb(43,47,57);fill-rule:nonzero;stroke:black;stroke-width:1px;"/>
        <path d="M1612.2,396.5L1580.3,480.9L1580.5,480.9L1731.2,321.5L1612.2,396.5Z" style="fill:rgb(43,47,57);fill-rule:nonzero;stroke:black;stroke-width:1px;"/>
        <path d="M1580.2,481.2L1644.2,480.9L1580.5,480.9L1580.2,481.2Z" style="fill:rgb(38,40,49);fill-rule:nonzero;stroke:black;stroke-width:1px;"/>
        <path d="M1580.5,480.9L1644.2,480.9L1731.2,321.5L1580.5,480.9Z" style="fill:rgb(38,40,49);fill-rule:nonzero;stroke:black;stroke-width:1px;"/>
        <path d="M1774.7,481.2L1774.6,480.9L1644.2,480.9L1774.7,481.2Z" style="fill:rgb(30,35,46);fill-rule:nonzero;stroke:black;stroke-width:1px;"/>
        <path d="M1644.2,480.9L1774.6,480.9L1731.2,321.5L1644.2,480.9Z" style="fill:rgb(30,35,46);fill-rule:nonzero;stroke:black;stroke-width:1px;"/>
        <path d="M1774.7,481.2L1775,480.9L1774.6,480.9L1774.7,481.2Z" style="fill:rgb(29,31,40);fill-rule:nonzero;stroke:black;stroke-width:1px;"/>
        <path d="M1731.2,321.5L1774.6,480.9L1775,480.9L1872.9,337.4L1731.2,321.5Z" style="fill:rgb(29,31,40);fill-rule:nonzero;stroke:black;stroke-width:1px;"/>
        <path d="M1731.2,321.5L1872.9,337.4L1832.5,174.9L1731.2,321.5Z" style="fill:rgb(234,113,31);fill-rule:nonzero;stroke:black;stroke-width:1px;"/>
        <path d="M1774.7,481.2L1860.9,481.2L1860.9,480.9L1775,480.9L1774.7,481.2Z" style="fill:rgb(35,35,45);fill-rule:nonzero;stroke:black;stroke-width:1px;"/>
        <path d="M1775,480.9L1860.9,480.9L1872.9,337.4L1775,480.9Z" style="fill:rgb(35,35,45);fill-rule:nonzero;stroke:black;stroke-width:1px;"/>
        <path d="M1860.9,481.2L1861.2,480.9L1860.9,480.9L1860.9,481.2Z" style="fill:rgb(38,40,49);fill-rule:nonzero;stroke:black;stroke-width:1px;"/>
        <path d="M1872.9,337.4L1860.9,480.9L1861.2,480.9L2011.9,305.9L1872.9,337.4Z" style="fill:rgb(38,40,49);fill-rule:nonzero;stroke:black;stroke-width:1px;"/>
        <path d="M1860.9,481.2L1942.6,481.2L1942.8,480.9L1861.2,480.9L1860.9,481.2Z" style="fill:rgb(43,47,57);fill-rule:nonzero;stroke:black;stroke-width:1px;"/>
        <path d="M1861.2,480.9L1942.8,480.9L2011.9,305.9L1861.2,480.9Z" style="fill:rgb(43,47,57);fill-rule:nonzero;stroke:black;stroke-width:1px;"/>
        <path d="M1942.6,481.2L2197.6,480.9L1942.8,480.9L1942.6,481.2Z" style="fill:rgb(29,31,40);fill-rule:nonzero;stroke:black;stroke-width:1px;"/>
        <path d="M1942.8,480.9L2197.6,480.9L2011.9,305.9L1942.8,480.9Z" style="fill:rgb(29,31,40);fill-rule:nonzero;stroke:black;stroke-width:1px;"/>
        <path d="M1872.9,337.4L2011.9,305.9L1832.5,174.9L1872.9,337.4Z" style="fill:rgb(37,42,51);fill-rule:nonzero;stroke:black;stroke-width:1px;"/>
        <g transform="matrix(1,0,0,1.0101,0,-0.784097)">
            <path d="M1946.6,1.2L1851.6,1.2L1880.9,77.6L1946.6,1.2Z" style="fill:rgb(35,40,49);fill-rule:nonzero;stroke:black;stroke-width:1px;"/>
        </g>
        <path d="M2100.3,-0.1L1946.6,-0.1L1945.5,1.2L2096.4,1.2L2100.3,-0.1Z" style="fill:rgb(30,34,41);fill-rule:nonzero;stroke:black;stroke-width:1px;"/>
        <g transform="matrix(1.01145,0,0,1.01085,-22.0772,-0.0640586)">
            <path d="M2096.4,1.2L1945.5,1.2L1883.5,75.4L2096.4,1.2Z" style="fill:rgb(30,34,41);fill-rule:nonzero;stroke:black;stroke-width:1px;"/>
        </g>
        <path d="M1880.9,76.3L1881.6,77.6L1883.5,75.4L1882.9,75.6L1880.9,76.3Z" style="fill:rgb(30,34,41);fill-rule:nonzero;stroke:black;stroke-width:1px;"/>
        <path d="M1832.5,173.5L2011.9,304.6L1881.6,77.6L1880.9,78.5L1832.5,173.5Z" style="fill:rgb(30,34,41);fill-rule:nonzero;stroke:black;stroke-width:1px;"/>
        <g transform="matrix(1.01069,0,0,1,-21.3517,0)">
            <path d="M1942.6,187.3C1943.8,187.2 1998.1,36.8 1998.1,36.8L1882.8,76.9L1942.6,187.3Z" style="fill:rgb(37,39,49);fill-rule:nonzero;stroke:black;stroke-width:1px;"/>
        </g>
        <path d="M2011.9,305.9L2054.6,201.1L1942.6,187.3L2011.9,305.9Z" style="fill:rgb(37,42,51);fill-rule:nonzero;stroke:black;stroke-width:1px;"/>
        <path d="M1942.6,185.2L2100.3,1.2L1998.2,36.8L1942.6,185.2Z" style="fill:rgb(34,35,45);fill-rule:nonzero;stroke:black;stroke-width:1px;"/>
        <path d="M2054.6,202.1L2100.3,2.2L1942.6,186.2L2054.6,202.1Z" style="fill:rgb(38,40,49);fill-rule:nonzero;stroke:black;stroke-width:1px;"/>
        <path d="M2273.5,83.8C2273.5,83.8 2102.5,1.2 2100.3,1.2L2084.1,71.9L2273.5,83.8Z" style="fill:rgb(30,34,41);fill-rule:nonzero;stroke:black;stroke-width:1px;"/>
        <g transform="matrix(0.999818,0,0,1.02348,0.383285,-0.751217)">
            <path d="M2302.4,1.2L2100.3,1.2L2165.7,32L2302.4,1.2Z" style="fill:rgb(34,35,45);fill-rule:nonzero;stroke:black;stroke-width:1px;"/>
        </g>
        <path d="M2273.5,83.8L2302.4,1.2L2165.7,32L2273.5,83.8Z" style="fill:rgb(34,35,45);fill-rule:nonzero;stroke:black;stroke-width:1px;"/>
        <path d="M2054.6,201.1L2178.8,77.9L2084.1,71.9L2054.6,201.1Z" style="fill:rgb(34,35,45);fill-rule:nonzero;stroke:black;stroke-width:1px;"/>
        <path d="M2054.6,201.1L2254,148.7L2178.8,77.9L2054.6,201.1Z" style="fill:rgb(37,39,49);fill-rule:nonzero;stroke:black;stroke-width:1px;"/>
        <path d="M2054.6,201.1L2281.5,207.8L2254,148.7L2054.6,201.1Z" style="fill:rgb(48,50,60);fill-rule:nonzero;stroke:black;stroke-width:1px;"/>
        <path d="M2011.9,305.9L2264.2,389.4L2054.6,201.1L2011.9,305.9Z" style="fill:rgb(40,42,51);fill-rule:nonzero;stroke:black;stroke-width:1px;"/>
        <path d="M2121,260.8L2281.5,207.8L2054.6,201.1L2121,260.8Z" style="fill:rgb(38,40,49);fill-rule:nonzero;stroke:black;stroke-width:1px;"/>
        <path d="M2214.4,344.7L2281.5,207.8L2121,260.8L2214.4,344.7Z" style="fill:rgb(35,40,49);fill-rule:nonzero;stroke:black;stroke-width:1px;"/>
        <path d="M2011.9,305.9L2197.6,480.9L2264.2,389.4L2011.9,305.9Z" style="fill:rgb(46,47,57);fill-rule:nonzero;stroke:black;stroke-width:1px;"/>
        <path d="M2254,148.7L2273.5,83.8L2178.8,77.9L2254,148.7Z" style="fill:rgb(34,35,45);fill-rule:nonzero;stroke:black;stroke-width:1px;"/>
        <path d="M2337.5,83.8C2337.5,83.8 2305.1,1.2 2302.4,1.2L2273.5,83.8L2337.5,83.8Z" style="fill:rgb(46,47,57);fill-rule:nonzero;stroke:black;stroke-width:1px;"/>
        <g transform="matrix(1,0,0,1.00937,0,-0.785325)">
            <path d="M2447.6,1.2L2302.4,1.2L2337.5,83.8L2447.6,1.2Z" style="fill:rgb(35,40,49);fill-rule:nonzero;stroke:black;stroke-width:1px;"/>
        </g>
        <path d="M2254,148.7L2337.5,83.8L2273.5,83.8L2254,148.7Z" style="fill:rgb(34,35,45);fill-rule:nonzero;stroke:black;stroke-width:1px;"/>
        <path d="M2281.5,207.8L2337.5,83.8L2254,148.7L2281.5,207.8Z" style="fill:rgb(34,35,45);fill-rule:nonzero;stroke:black;stroke-width:1px;"/>
        <path d="M2264.2,389.4L2281.5,207.8L2214.4,344.7L2264.2,389.4Z" style="fill:rgb(234,113,31);fill-rule:nonzero;stroke:black;stroke-width:1px;"/>
        <path d="M2264.2,389.4L2380.6,230.9L2283.4,208.2L2264.2,389.4Z" style="fill:rgb(37,39,49);fill-rule:nonzero;stroke:black;stroke-width:1px;"/>
        <g transform="matrix(1.00886,0,0,1.00554,-20.7212,-0.623336)">
            <path d="M2537.3,93.2L2447.6,1.2L2337.5,83.8L2537.3,93.2Z" style="fill:rgb(234,113,31);fill-rule:nonzero;stroke:black;stroke-width:1px;"/>
        </g>
        <path d="M2365.1,178.2L2537.3,93.2L2337.5,83.8L2365.1,178.2Z" style="fill:rgb(34,35,45);fill-rule:nonzero;stroke:black;stroke-width:1px;"/>
        <path d="M2380.6,230.9L2539.6,93.2L2365.1,178.2L2380.6,230.9Z" style="fill:rgb(30,34,41);fill-rule:nonzero;stroke:black;stroke-width:1px;"/>
        <path d="M2302.4,481.2L2450.7,481.2C2450.7,481.2 2450.5,481.1 2450,480.9L2302.2,480.9L2302.4,481.2Z" style="fill:rgb(35,40,49);fill-rule:nonzero;stroke:black;stroke-width:1px;"/>
        <path d="M2302.3,480.9L2450.1,480.9C2438.4,475.1 2267.2,389.8 2264.2,389.4L2302.3,480.9Z" style="fill:rgb(35,40,49);fill-rule:nonzero;stroke:black;stroke-width:1px;"/>
        <path d="M2343.9,428.2L2380.6,230.9L2264.2,389.4L2343.9,428.2Z" style="fill:rgb(46,47,57);fill-rule:nonzero;stroke:black;stroke-width:1px;"/>
        <path d="M2450.7,481.2L2450.9,480.9L2450.1,480.9L2450.7,481.2Z" style="fill:rgb(234,113,31);fill-rule:nonzero;stroke:black;stroke-width:1px;"/>
        <path d="M2343.9,428.2L2450.1,480.9L2450.9,480.9L2522.2,362.3L2343.9,428.2Z" style="fill:rgb(234,113,31);fill-rule:nonzero;stroke:black;stroke-width:1px;"/>
        <path d="M2343.9,428.2L2522.2,362.3L2380.6,230.9L2343.9,428.2Z" style="fill:rgb(34,35,45);fill-rule:nonzero;stroke:black;stroke-width:1px;"/>
        <path d="M2560,456.5L2522.2,362.3L2450.9,480.9L2560,480.9L2560,456.5Z" style="fill:rgb(36,38,47);fill-rule:nonzero;stroke:black;stroke-width:1px;"/>
        <path d="M2522.2,362.3L2560,456.5L2560,401.5C2540.3,380.4 2523.9,363.2 2522.2,362.3Z" style="fill:rgb(43,47,57);fill-rule:nonzero;stroke:black;stroke-width:1px;"/>
        <path d="M2522.2,362.3L2560,402.6L2560,352.1L2522.2,362.3Z" style="fill:rgb(46,47,57);fill-rule:nonzero;stroke:black;stroke-width:1px;"/>
        <path d="M2560,352L2560,307.9L2522.2,362.3L2560,352Z" style="fill:rgb(35,40,49);fill-rule:nonzero;stroke:black;stroke-width:1px;"/>
        <path d="M2560,113.9L2560,31L2539.6,93.2L2560,113.9Z" style="fill:none;fill-rule:nonzero;stroke:black;stroke-width:2px;"/>
        <g transform="matrix(1,0,0,1.00777,0,-0.723788)">
            <path d="M2560,31L2560,1.2L2447.6,1.2L2539.6,93.2L2560,31Z" style="fill:rgb(32,36,45);fill-rule:nonzero;stroke:black;stroke-width:1px;"/>
        </g>
        <path d="M2460.1,304.7L2539.6,93.2L2380.6,230.9L2460.1,304.7Z" style="fill:rgb(34,39,47);fill-rule:nonzero;stroke:black;stroke-width:1px;"/>
        <path d="M2460.1,304.7L2560,242.9L2560,113.9L2539.6,93.2L2460.1,304.7Z" style="fill:rgb(34,35,45);fill-rule:nonzero;stroke:black;stroke-width:1px;"/>
        <path d="M2522.2,362.3L2560,307.9L2560,242.9L2460.1,304.7L2522.2,362.3Z" style="fill:rgb(38,44,53);fill-rule:nonzero;stroke:black;stroke-width:1px;"/>
        <path d="M0.7,1.2L1.7,1.4L1.7,1.2L0.7,1.2Z" style="fill:rgb(46,47,57);fill-rule:nonzero;stroke:black;stroke-width:1px;"/>
        <g transform="matrix(1.00405,0,0,1.03079,-1.24971,-1.1301)">
            <path d="M308.3,1.2L1.7,1.2L1.7,1.4L233.6,36.7L308.3,1.2Z" style="fill:rgb(46,47,57);fill-rule:nonzero;stroke:black;stroke-width:1px;"/>
        </g>
        <path d="M184.6,41.2L268.5,69L233.6,36.7L184.6,41.2Z" style="fill:rgb(46,47,57);fill-rule:nonzero;stroke:black;stroke-width:1px;"/>
        <path d="M407.9,481.2C408,481.2 408.1,481 408.4,480.9L407.8,480.9C407.8,481.2 407.9,481.3 407.9,481.2Z" style="fill:rgb(38,40,49);fill-rule:nonzero;stroke:black;stroke-width:1px;"/>
        <path d="M425.8,209.6C425.8,209.6 406.4,470.3 407.8,480.9L408.4,480.9C416.5,475.5 515.5,410.3 515.5,410.3L425.8,209.6Z" style="fill:rgb(38,40,49);fill-rule:nonzero;stroke:black;stroke-width:1px;"/>
        <path d="M407.9,479.1L424.1,212.1L313.8,378.5L407.9,479.1Z" style="fill:rgb(35,40,49);fill-rule:nonzero;stroke:black;stroke-width:1px;"/>
        <path d="M408.9,482.1L407.8,480.9L404.2,480.9L408.9,482.1Z" style="fill:rgb(34,35,45);fill-rule:nonzero;stroke:black;stroke-width:1px;"/>
        <path d="M337.1,464.3L404.2,480.9L407.8,480.9L313.8,378.5L337.1,464.3Z" style="fill:rgb(34,35,45);fill-rule:nonzero;stroke:black;stroke-width:1px;"/>
        <path d="M515.6,410.3L632.8,362.9L486.6,345.6L515.6,410.3Z" style="fill:rgb(46,47,57);fill-rule:nonzero;stroke:black;stroke-width:1px;"/>
        <g transform="matrix(1.00495,0,0,1.01135,-2.31977,-0.783229)">
            <path d="M558.7,1.2L468.5,1.2L521.8,69L558.7,1.2Z" style="fill:rgb(38,40,49);fill-rule:nonzero;stroke:black;stroke-width:1px;"/>
        </g>
        <path d="M2302.4,481.2L2302.3,480.9L2197.6,480.9L2302.4,481.2Z" style="fill:rgb(36,38,47);fill-rule:nonzero;stroke:black;stroke-width:1px;"/>
        <path d="M2197.6,480.9L2302.3,480.9L2264.2,389.4L2197.6,480.9Z" style="fill:rgb(36,38,47);fill-rule:nonzero;stroke:black;stroke-width:1px;"/>
        <path d="M2560,115.6L2560,25.7L2537.3,93.2L2560,115.6Z" style="fill:rgb(35,40,49);fill-rule:nonzero;stroke:black;stroke-width:1px;"/>
        <path d="M2281.5,207.8C2283.4,208.2 2380.5,231 2380.5,231L2337.4,83.9C2337.5,83.8 2279.6,207.3 2281.5,207.8Z" style="fill:rgb(37,39,49);fill-rule:nonzero;stroke:black;stroke-width:1px;"/>
        <path d="M2264.2,389.4L2380.6,230.9L2281.5,207.8L2264.2,389.4Z" style="fill:rgb(37,39,49);fill-rule:nonzero;stroke:black;stroke-width:1px;"/>
        <path d="M1498.5,0.3L1465.2,1.2L1498.6,1.2L1498.5,0.3Z" style="fill:rgb(30,32,40);fill-rule:nonzero;stroke:black;stroke-width:1px;"/>
        <path d="M1498.6,1.2L1465.2,1.2L1512.5,78.1L1498.6,1.2Z" style="fill:rgb(30,32,40);fill-rule:nonzero;stroke:black;stroke-width:1px;"/>
        <path d="M1207.9,61.1L1207.1,62.3L1174.7,110.6L1207.9,61.1Z" style="fill:rgb(43,47,57);fill-rule:nonzero;stroke:black;stroke-width:1px;"/>
        <path d="M1207.1,62.3L1248,1.2L1187.6,1.2L1172.5,110.6L1207.1,62.3Z" style="fill:rgb(43,47,57);fill-rule:nonzero;stroke:black;stroke-width:1px;"/>
        <g transform="matrix(1.01349,0,0,1.01401,-15.8034,-1.6705)">
            <path d="M1247.4,2.1L1187.6,1.2L1171.2,119.2L1247.4,2.1Z" style="fill:rgb(43,47,57);fill-rule:nonzero;stroke:black;stroke-width:1px;"/>
        </g>
        <path d="M802.5,162.7L996.3,229.3" style="fill:none;fill-rule:nonzero;stroke:black;stroke-width:1px;"/>
        <path d="M993.9,228.8L776.7,294.8L879.8,386.3L993.9,228.8Z" style="fill:rgb(30,34,41);fill-rule:nonzero;stroke:black;stroke-width:1px;"/>
        <path d="M776.7,294.8L831.8,480.9L878.9,387.9L776.7,294.8Z" style="fill:rgb(30,34,41);fill-rule:nonzero;stroke:black;stroke-width:1px;"/>
        <path d="M878.9,387.9L776.7,294.8L878.9,387.9Z" style="fill:rgb(34,35,45);fill-rule:nonzero;stroke:black;stroke-width:1px;"/>
        <path d="M197.5,214.7L273.1,181.1L240.4,97.8L197.5,214.7Z" style="fill:rgb(34,35,45);fill-rule:nonzero;stroke:black;stroke-width:1px;"/>
        <path d="M558.7,478.1L635.5,362.9L515.6,410.3L558.7,478.1Z" style="fill:rgb(30,34,41);fill-rule:nonzero;stroke:black;stroke-width:1px;"/>
        <path d="M635.5,362.9L776.7,294.8L632.8,209.6L635.5,362.9Z" style="fill:rgb(46,47,57);fill-rule:nonzero;stroke:black;stroke-width:1px;"/>
        <path d="M482,256.5L635.5,362.9L632.8,209.6L482,256.5Z" style="fill:rgb(46,47,57);fill-rule:nonzero;stroke:black;stroke-width:1px;"/>
        <path d="M515.6,410.3L556.9,480.9L635.5,362.9L515.6,410.3Z" style="fill:rgb(28,33,41);fill-rule:nonzero;stroke:black;stroke-width:1px;"/>
        <path d="M537.8,168.8L632.8,209.6L601.3,69L537.8,168.8Z" style="fill:rgb(46,47,57);fill-rule:nonzero;stroke:black;stroke-width:1px;"/>
        <path d="M744.1,220L831.8,1.2L739.6,137.6L744.1,220Z" style="fill:rgb(46,47,57);fill-rule:nonzero;stroke:black;stroke-width:1px;"/>
        <g transform="matrix(0.97623,0,0,0.983976,17.5801,3.52531)">
            <path d="M744.1,220L834,1.2L739.6,137.6L744.1,220Z" style="fill:rgb(46,47,57);fill-rule:nonzero;stroke:black;stroke-width:1px;"/>
        </g>
    </g>
</svg>
