<?xml version="1.0" encoding="utf-8"?>
<!-- Generator: Adobe Illustrator 22.0.1, SVG Export Plug-In . SVG Version: 6.00 Build 0)  -->
<svg version="1.1" id="Слой_1" xmlns="http://www.w3.org/2000/svg" xmlns:xlink="http://www.w3.org/1999/xlink" x="0px" y="0px"
	 viewBox="0 0 1920 120" style="enable-background:new 0 0 1920 120;" xml:space="preserve">
<style type="text/css">
	.st0{fill:#242630;stroke:#000000;stroke-miterlimit:10;}
	.st1{fill:#EA711F;stroke:#000000;stroke-miterlimit:10;}
	.st2{fill:#262831;stroke:#000000;stroke-miterlimit:10;}
	.st3{fill:#232831;stroke:#000000;stroke-miterlimit:10;}
	.st4{fill:#2E2F39;stroke:#000000;stroke-miterlimit:10;}
	.st5{fill:#22232D;stroke:#000000;stroke-miterlimit:10;}
	.st6{fill:#2B2F39;stroke:#000000;stroke-miterlimit:10;}
	.st7{fill:#30323C;stroke:#000000;stroke-miterlimit:10;}
	.st8{fill:none;stroke:#000000;stroke-width:2;stroke-miterlimit:10;}
	.st9{fill:#252A33;stroke:#000000;stroke-miterlimit:10;}
	.st10{fill:#2D333C;stroke:#000000;stroke-miterlimit:10;}
	.st11{fill:#1E232B;stroke:#000000;stroke-miterlimit:10;}
	.st12{fill:#23242D;stroke:#000000;stroke-miterlimit:10;}
	.st13{fill:#1E2028;stroke:#000000;stroke-miterlimit:10;}
	.st14{fill:#272C35;stroke:#000000;stroke-miterlimit:10;}
	.st15{fill:#22272F;stroke:#000000;stroke-miterlimit:10;}
	.st16{fill:#23232D;stroke:#000000;stroke-miterlimit:10;}
	.st17{fill:#1E232E;stroke:#000000;stroke-miterlimit:10;}
	.st18{fill:#1D1F28;stroke:#000000;stroke-miterlimit:10;}
	.st19{fill:#282A33;stroke:#000000;stroke-miterlimit:10;}
	.st20{fill:#252731;stroke:#000000;stroke-miterlimit:10;}
	.st21{fill:#24262F;stroke:#000000;stroke-miterlimit:10;}
	.st22{fill:#262C35;stroke:#000000;stroke-miterlimit:10;}
	.st23{fill:#1E2229;stroke:#000000;stroke-miterlimit:10;}
	.st24{fill:#1C2129;stroke:#000000;stroke-miterlimit:10;}
</style>
<polygon class="st0" points="16,1.1 3,1.1 3,40 "/>
<polygon class="st1" points="2.3,122.2 56.5,122 55.9,121.1 2.3,121.1 "/>
<polygon class="st1" points="2.3,121.1 55.9,121.1 3,40 "/>
<polygon class="st2" points="149.9,122.2 149.2,121.1 147.9,121.1 "/>
<polygon class="st2" points="16,1.1 3,40 147.9,121.1 149.2,121.1 71.5,1.1 "/>
<polygon class="st3" points="56.5,122 149.9,122.2 147.9,121.1 55.9,121.1 "/>
<polygon class="st3" points="55.9,121.1 147.9,121.1 3,40 "/>
<polygon class="st4" points="136.7,1.1 71.5,1.1 123.3,81.1 "/>
<polygon class="st5" points="149.9,122.2 307.9,122.2 302.8,121.1 149.2,121.1 "/>
<polygon class="st5" points="149.2,121.1 302.8,121.1 123.3,81.1 "/>
<polygon class="st6" points="185.5,1.7 185.2,1.1 136.7,1.1 123.3,81.1 "/>
<polygon class="st2" points="254.6,110.4 225.6,1.1 186,1.1 123.3,81.1 "/>
<polygon class="st5" points="185.9,1.1 185.2,1.1 185.5,1.7 "/>
<polygon class="st5" points="266.4,1.1 225.6,1.1 237.3,45.1 "/>
<polygon class="st7" points="307.9,122.2 383,122 383.1,121.1 309.6,121.1 "/>
<polygon class="st7" points="309.6,121.1 383.1,121.1 388.7,69 "/>
<polygon class="st2" points="383,122 419.7,122 419.2,121.1 383.1,121.1 "/>
<polygon class="st2" points="383.1,121.1 419.2,121.1 388.7,69 "/>
<polygon class="st5" points="419.7,122 626,122 624.5,121.1 420.3,121.1 "/>
<polygon class="st5" points="420.3,121.1 624.5,121.1 478.7,33.5 "/>
<polygon class="st3" points="419.7,122 420.2,121.1 419.2,121.1 "/>
<polygon class="st3" points="388.7,69 419.2,121.1 420.2,121.1 476.7,33.5 "/>
<path class="st8" d="M269.2-3.1"/>
<polygon class="st9" points="365.9,1.1 358.3,1.1 366.9,20.5 "/>
<polygon class="st1" points="478.7,33.5 432,1.1 365.9,1.1 366.9,20.5 "/>
<polygon class="st10" points="478.1,1.1 432,1.1 478.7,33.5 "/>
<polygon class="st3" points="480.1,32.8 480.1,34.3 540.9,70.8 575.4,1.1 545.7,1.1 "/>
<polygon class="st3" points="545.7,1.1 479.1,1.1 480.1,32.8 "/>
<polygon class="st5" points="543.9,1.1 476.6,1.1 476.7,32.1 "/>
<polygon class="st6" points="597.2,104.7 586.6,1.1 575.4,1.1 540.9,70.8 "/>
<polygon class="st4" points="626,122 625.7,121.1 624.5,121.1 "/>
<polygon class="st4" points="586.6,1.1 597.2,104.7 624.5,121.1 625.7,121.1 590.2,1.1 "/>
<polygon class="st1" points="626,122 691.3,122.2 690.9,121.1 626.4,121.1 "/>
<polygon class="st1" points="626.4,121.1 690.9,121.1 661.3,52.2 "/>
<polygon class="st2" points="691.3,122.2 772.3,122 773.1,121.1 693.4,121.1 "/>
<polygon class="st2" points="693.4,121.1 773.1,121.1 853.3,33.5 "/>
<polygon class="st3" points="626,122 626.4,121.1 625.7,121.1 "/>
<polygon class="st3" points="604.6,1.1 590.2,1.1 625.7,121.1 626.4,121.1 660.5,53.8 "/>
<polygon class="st3" points="661.3,52.2 698.7,1.1 605.3,1.1 "/>
<polygon class="st4" points="853.3,33.5 818.9,1.1 698.7,1.1 661.3,52.2 "/>
<polygon class="st3" points="691.3,122.2 693.4,121.1 690.9,121.1 "/>
<polygon class="st3" points="661.3,52.2 690.9,121.1 693.4,121.1 853.3,33.5 "/>
<polygon class="st11" points="772.3,122 891,122 889.7,121.1 773.1,121.1 "/>
<polygon class="st11" points="773.1,121.1 889.7,121.1 818.2,71.9 "/>
<polygon class="st12" points="891,122 890.6,121.1 889.7,121.1 "/>
<polygon class="st12" points="818.2,72.6 889.7,121.1 890.6,121.1 853.3,33.5 "/>
<polygon class="st3" points="938.3,122 1094,122.2 1093.3,121.1 938.8,121.1 "/>
<polygon class="st3" points="1002.8,1.1 938.8,121.1 1093.3,121.1 1015.1,1.1 "/>
<polygon class="st13" points="858.2,1.1 818.9,1.1 853.3,33.5 "/>
<polygon class="st3" points="876.2,1.1 858.2,1.1 853.3,33.5 "/>
<polygon class="st2" points="970.5,1.1 876.2,1.1 853.3,33.5 "/>
<polygon class="st4" points="891,122 938.3,122 938.8,121.1 890.6,121.1 "/>
<polygon class="st4" points="999.4,1.1 891,120.3 998.9,1.1 970.5,1.1 853.3,33.5 890.6,121.1 938.8,121.1 1002.3,1.1 "/>
<polygon class="st14" points="1094,122.2 1093.9,121.1 1093.3,121.1 "/>
<polygon class="st14" points="1015.1,1.1 1093.3,121.1 1093.9,121.1 1087.3,1.1 "/>
<polygon class="st15" points="1094,122.2 1122.3,122 1122.1,121.1 1093.9,121.1 "/>
<polygon class="st15" points="1087.3,1.1 1093.9,121.1 1122.1,121.1 1092.8,1.1 "/>
<polygon class="st2" points="1122.3,122 1187.7,122.2 1186.9,121.1 1122.1,121.1 "/>
<polygon class="st2" points="1092.8,1.1 1122.1,121.1 1186.9,121.1 1104.8,1.1 "/>
<polygon class="st4" points="1219.1,1.1 1104.8,1.1 1157.3,77.9 "/>
<polygon class="st15" points="1187.1,1.1 1105.8,1.1 1181.3,48.1 "/>
<polygon class="st6" points="1187.7,122.2 1188.1,121.1 1186.9,121.1 "/>
<polygon class="st6" points="1219.1,1.1 1157.3,77.9 1186.9,121.1 1188.1,121.1 1233.4,1.1 "/>
<polygon class="st16" points="1301,2.3 1301.8,1.1 1299.1,1.1 "/>
<polygon class="st16" points="1301,2.3 1299.1,1.1 1233.4,1.1 1211.7,58.6 "/>
<polygon class="st6" points="1187.7,122.2 1188.7,121.1 1188.1,121.1 "/>
<polygon class="st6" points="1211.7,58.6 1188.1,121.1 1188.7,121.1 1301,2.3 "/>
<polygon class="st2" points="1187.7,122.2 1235.7,122 1236.1,121.1 1188.7,121.1 "/>
<polygon class="st2" points="1188.7,121.1 1236.1,121.1 1301,2.3 "/>
<polygon class="st17" points="1235.7,122 1333.7,122.2 1333.4,121.1 1236.1,121.1 "/>
<polygon class="st17" points="1236.1,121.1 1333.4,121.1 1301,2.3 "/>
<polygon class="st18" points="1333.7,122.2 1334.4,121.1 1333.4,121.1 "/>
<polygon class="st18" points="1301,2.3 1333.4,121.1 1334.4,121.1 1407.3,14.3 "/>
<polygon class="st1" points="1407.3,14.3 1404.1,1.1 1301.8,1.1 1301,2.3 "/>
<polygon class="st16" points="1333.7,122.2 1398.3,122.2 1398.4,121.1 1334.4,121.1 "/>
<polygon class="st16" points="1334.4,121.1 1398.4,121.1 1407.3,14.3 "/>
<polygon class="st2" points="1398.3,122.2 1399.3,121.1 1398.4,121.1 "/>
<polygon class="st2" points="1465.5,1.1 1407.3,14.3 1398.4,121.1 1399.3,121.1 1502.7,1.1 "/>
<polygon class="st6" points="1398.3,122.2 1459.7,122.2 1460.1,121.1 1399.3,121.1 "/>
<polygon class="st6" points="1502.7,1.1 1399.3,121.1 1460.1,121.1 1507.5,1.1 "/>
<polygon class="st18" points="1459.7,122.2 1651,122 1650.1,121.1 1460.1,121.1 "/>
<polygon class="st18" points="1507.5,1.1 1460.1,121.1 1650.1,121.1 1522.8,1.1 "/>
<polygon class="st9" points="1465.5,1.1 1404.1,1.1 1407.3,14.3 "/>
<polygon class="st19" points="1642.9,1.1 1543.2,1.1 1701,53.3 "/>
<polygon class="st3" points="1672.8,1.1 1642.9,1.1 1663.6,19.8 "/>
<polygon class="st4" points="1651,122 1651.6,121.1 1650.1,121.1 "/>
<polygon class="st4" points="1543.2,1.1 1522.8,1.1 1650.1,121.1 1651.6,121.1 1701,53.3 "/>
<polygon class="st1" points="1701,53.3 1706,1.1 1672.8,1.1 1663.6,19.8 "/>
<polygon class="st20" points="1739.3,1.1 1706.5,1.1 1701,53.3 "/>
<path class="st3" d="M1729.7,122.2H1841c0,0-0.8-0.4-2.3-1.1h-109.5L1729.7,122.2z"/>
<path class="st3" d="M1729.2,121.1h109.5c-17.8-8.9-135.6-67.5-137.7-67.8L1729.2,121.1z"/>
<polygon class="st4" points="1760.8,82.4 1775.9,1.1 1739.3,1.1 1701,53.3 "/>
<polygon class="st1" points="1841,122.2 1841.7,121.1 1838.7,121.1 "/>
<polygon class="st1" points="1760.8,82.4 1838.7,121.1 1841.7,121.1 1894.7,33 "/>
<polygon class="st5" points="1894.7,33 1860.3,1.1 1775.9,1.1 1760.8,82.4 "/>
<polygon class="st21" points="1919.9,96 1894.7,33 1841.7,121.1 1919.9,121.1 "/>
<path class="st6" d="M1894.7,33l25.3,63V59.1C1906.5,44.8,1895.8,33.6,1894.7,33z"/>
<polygon class="st4" points="1894.7,33 1919.9,59.9 1919.9,26.2 "/>
<polygon class="st3" points="1919.9,26.1 1919.9,1.1 1916.8,1.1 1894.7,33 "/>
<polygon class="st22" points="1916.8,1.1 1860.3,1.1 1894.7,33 "/>
<path class="st2" d="M307.9,122.2c0.1-0.1,0.7-0.5,1.7-1.1h-1.9C307.7,121.9,307.8,122.3,307.9,122.2z"/>
<path class="st2" d="M358.3,1.1h-43c-3.7,52.1-7.7,111.2-7.5,120h1.9c11.7-7.7,79.1-52.1,79.1-52.1L358.3,1.1z"/>
<polygon class="st3" points="307.9,120.7 315.1,1.1 266.4,1.1 237.3,45.1 "/>
<polygon class="st5" points="308.6,122.9 307,121.1 301.5,121.1 "/>
<polygon class="st5" points="254.7,109.5 301.5,121.1 307,121.1 237.3,45.1 "/>
<polygon class="st4" points="388.7,69 476.7,33.5 366.9,20.5 "/>
<polygon class="st21" points="1651,122 1729.7,122.2 1729.2,121.1 1651.6,121.1 "/>
<polygon class="st21" points="1651.6,121.1 1729.2,121.1 1701,53.3 "/>
<polygon class="st20" points="1739.3,1.1 1706,1.1 1701,53.3 "/>
<polygon class="st23" points="626,122 626.4,121.1 625.7,121.1 "/>
<polygon class="st23" points="662,51 698.1,1.1 605.8,1.1 "/>
<polygon class="st23" points="605.3,1.1 590.2,1.1 625.7,121.1 626.4,121.1 661.3,52.2 "/>
<polygon class="st23" points="421.1,119.9 478.7,33.5 388.7,69 "/>
<polygon class="st4" points="545.7,1.1 478.1,1.1 478.7,33.5 "/>
<polygon class="st4" points="478.1,1.1 432,1.1 478.7,33.5 "/>
<polygon class="st24" points="419.7,122 420.3,121.1 419.2,121.1 "/>
<polygon class="st24" points="388.7,69 419.2,121.1 420.3,121.1 478.7,33.5 "/>
</svg>
