<?xml version="1.0" encoding="UTF-8" standalone="no"?>
<!DOCTYPE svg PUBLIC "-//W3C//DTD SVG 1.1//EN" "http://www.w3.org/Graphics/SVG/1.1/DTD/svg11.dtd">
<svg width="100%" height="100%" viewBox="0 0 1920 120" version="1.1" xmlns="http://www.w3.org/2000/svg" xmlns:xlink="http://www.w3.org/1999/xlink" xml:space="preserve" xmlns:serif="http://www.serif.com/" style="fill-rule:evenodd;clip-rule:evenodd;stroke-miterlimit:10;">
    <g transform="matrix(1.00138,0.00032594,-0.000324622,0.997329,-2.85261,-1.70364)">
        <path d="M16,1.1L3,1.1L3,40L16,1.1Z" style="fill:rgb(36,38,48);fill-rule:nonzero;stroke:black;stroke-width:1px;"/>
    </g>
    <g transform="matrix(1.00138,0.00032594,-0.000324622,0.997329,-2.85261,-1.70364)">
        <path d="M2.3,122.2L56.5,122L55.9,121.1L2.3,121.1L2.3,122.2Z" style="fill:rgb(234,113,31);fill-rule:nonzero;stroke:black;stroke-width:1px;"/>
    </g>
    <g transform="matrix(1.00138,0.00032594,-0.000324622,0.997329,-2.85261,-1.70364)">
        <path d="M2.3,121.1L55.9,121.1L3,40L2.3,121.1Z" style="fill:rgb(234,113,31);fill-rule:nonzero;stroke:black;stroke-width:1px;"/>
    </g>
    <g transform="matrix(1.00138,0.00032594,-0.000324622,0.997329,-2.85261,-1.70364)">
        <path d="M149.9,122.2L149.2,121.1L147.9,121.1L149.9,122.2Z" style="fill:rgb(38,40,49);fill-rule:nonzero;stroke:black;stroke-width:1px;"/>
    </g>
    <g transform="matrix(1.00138,0.00032594,-0.000324622,0.997329,-2.85261,-1.70364)">
        <path d="M16,1.1L3,40L147.9,121.1L149.2,121.1L71.5,1.1L16,1.1Z" style="fill:rgb(38,40,49);fill-rule:nonzero;stroke:black;stroke-width:1px;"/>
    </g>
    <g transform="matrix(1.00138,0.00032594,-0.000324622,0.997329,-2.85261,-1.70364)">
        <path d="M56.5,122L149.9,122.2L147.9,121.1L55.9,121.1L56.5,122Z" style="fill:rgb(35,40,49);fill-rule:nonzero;stroke:black;stroke-width:1px;"/>
    </g>
    <g transform="matrix(1.00138,0.00032594,-0.000324622,0.997329,-2.85261,-1.70364)">
        <path d="M55.9,121.1L147.9,121.1L3,40L55.9,121.1Z" style="fill:rgb(35,40,49);fill-rule:nonzero;stroke:black;stroke-width:1px;"/>
    </g>
    <g transform="matrix(1.00138,0.00032594,-0.000324622,0.997329,-2.85261,-1.70364)">
        <path d="M136.7,1.1L71.5,1.1L123.3,81.1L136.7,1.1Z" style="fill:rgb(46,47,57);fill-rule:nonzero;stroke:black;stroke-width:1px;"/>
    </g>
    <g transform="matrix(1.00138,0.00032594,-0.000324622,0.997329,-2.85261,-1.70364)">
        <path d="M149.9,122.2L307.9,122.2L302.8,121.1L149.2,121.1L149.9,122.2Z" style="fill:rgb(34,35,45);fill-rule:nonzero;stroke:black;stroke-width:1px;"/>
    </g>
    <g transform="matrix(1.00138,0.00032594,-0.000324622,0.997329,-2.85261,-1.70364)">
        <path d="M149.2,121.1L302.8,121.1L123.3,81.1L149.2,121.1Z" style="fill:rgb(34,35,45);fill-rule:nonzero;stroke:black;stroke-width:1px;"/>
    </g>
    <g transform="matrix(1.00138,0.00032594,-0.000324622,0.997329,-2.85261,-1.70364)">
        <path d="M185.5,1.7L185.2,1.1L136.7,1.1L123.3,81.1L185.5,1.7Z" style="fill:rgb(43,47,57);fill-rule:nonzero;stroke:black;stroke-width:1px;"/>
    </g>
    <g transform="matrix(1.00138,0.00032594,-0.000324622,0.997329,-2.85261,-1.70364)">
        <path d="M254.6,110.4L225.6,1.1L186,1.1L123.3,81.1L254.6,110.4Z" style="fill:rgb(38,40,49);fill-rule:nonzero;stroke:black;stroke-width:1px;"/>
    </g>
    <g transform="matrix(1.00138,0.00032594,-0.000324622,0.997329,-2.85261,-1.70364)">
        <path d="M185.9,1.1L185.2,1.1L185.5,1.7L185.9,1.1Z" style="fill:rgb(34,35,45);fill-rule:nonzero;stroke:black;stroke-width:1px;"/>
    </g>
    <g transform="matrix(1.00138,0.00032594,-0.000324622,0.997329,-2.85261,-1.70364)">
        <path d="M266.4,1.1L225.6,1.1L237.3,45.1L266.4,1.1Z" style="fill:rgb(34,35,45);fill-rule:nonzero;stroke:black;stroke-width:1px;"/>
    </g>
    <g transform="matrix(1.00138,0.00032594,-0.000324622,0.997329,-2.85261,-1.70364)">
        <path d="M307.9,122.2L383,122L383.1,121.1L309.6,121.1L307.9,122.2Z" style="fill:rgb(48,50,60);fill-rule:nonzero;stroke:black;stroke-width:1px;"/>
    </g>
    <g transform="matrix(1.00138,0.00032594,-0.000324622,0.997329,-2.85261,-1.70364)">
        <path d="M309.6,121.1L383.1,121.1L388.7,69L309.6,121.1Z" style="fill:rgb(48,50,60);fill-rule:nonzero;stroke:black;stroke-width:1px;"/>
    </g>
    <g transform="matrix(1.00138,0.00032594,-0.000324622,0.997329,-2.85261,-1.70364)">
        <path d="M383,122L419.7,122L419.2,121.1L383.1,121.1L383,122Z" style="fill:rgb(38,40,49);fill-rule:nonzero;stroke:black;stroke-width:1px;"/>
    </g>
    <g transform="matrix(1.00138,0.00032594,-0.000324622,0.997329,-2.85261,-1.70364)">
        <path d="M383.1,121.1L419.2,121.1L388.7,69L383.1,121.1Z" style="fill:rgb(38,40,49);fill-rule:nonzero;stroke:black;stroke-width:1px;"/>
    </g>
    <g transform="matrix(1.00138,0.00032594,-0.000324622,0.997329,-2.85261,-1.70364)">
        <path d="M419.7,122L626,122L624.5,121.1L420.3,121.1L419.7,122Z" style="fill:rgb(34,35,45);fill-rule:nonzero;stroke:black;stroke-width:1px;"/>
    </g>
    <g transform="matrix(1.00138,0.00032594,-0.000324622,0.997329,-2.85261,-1.70364)">
        <path d="M420.3,121.1L624.5,121.1L478.7,33.5L420.3,121.1Z" style="fill:rgb(34,35,45);fill-rule:nonzero;stroke:black;stroke-width:1px;"/>
    </g>
    <g transform="matrix(1.00138,0.00032594,-0.000324622,0.997329,-2.85261,-1.70364)">
        <path d="M419.7,122L420.2,121.1L419.2,121.1L419.7,122Z" style="fill:rgb(35,40,49);fill-rule:nonzero;stroke:black;stroke-width:1px;"/>
    </g>
    <g transform="matrix(1.00138,0.00032594,-0.000324622,0.997329,-2.85261,-1.70364)">
        <path d="M388.7,69L419.2,121.1L420.2,121.1L476.7,33.5L388.7,69Z" style="fill:rgb(35,40,49);fill-rule:nonzero;stroke:black;stroke-width:1px;"/>
    </g>
    <g transform="matrix(1.00138,0.00032594,-0.000324622,0.997329,-2.85261,-1.70364)">
        <path d="M365.9,1.1L358.3,1.1L366.9,20.5L365.9,1.1Z" style="fill:rgb(37,42,51);fill-rule:nonzero;stroke:black;stroke-width:1px;"/>
    </g>
    <g transform="matrix(1.00138,0.00032594,-0.000324622,0.997329,-2.85261,-1.70364)">
        <path d="M478.7,33.5L432,1.1L365.9,1.1L366.9,20.5L478.7,33.5Z" style="fill:rgb(234,113,31);fill-rule:nonzero;stroke:black;stroke-width:1px;"/>
    </g>
    <g transform="matrix(1.00138,0.00032594,-0.000324622,0.997329,-2.85261,-1.70364)">
        <path d="M478.1,1.1L432,1.1L478.7,33.5L478.1,1.1Z" style="fill:rgb(45,51,60);fill-rule:nonzero;stroke:black;stroke-width:1px;"/>
    </g>
    <g transform="matrix(1.00138,0.00032594,-0.000324622,0.997329,-2.85261,-1.70364)">
        <path d="M480.1,32.8L480.1,34.3L540.9,70.8L575.4,1.1L545.7,1.1L480.1,32.8Z" style="fill:rgb(35,40,49);fill-rule:nonzero;stroke:black;stroke-width:1px;"/>
    </g>
    <g transform="matrix(1.00138,0.00032594,-0.000324622,0.997329,-2.85261,-1.70364)">
        <path d="M545.7,1.1L479.1,1.1L480.1,32.8L545.7,1.1Z" style="fill:rgb(35,40,49);fill-rule:nonzero;stroke:black;stroke-width:1px;"/>
    </g>
    <g transform="matrix(1.00138,0.00032594,-0.000324622,0.997329,-2.85261,-1.70364)">
        <path d="M543.9,1.1L476.6,1.1L476.7,32.1L543.9,1.1Z" style="fill:rgb(34,35,45);fill-rule:nonzero;stroke:black;stroke-width:1px;"/>
    </g>
    <g transform="matrix(1.00138,0.00032594,-0.000324622,0.997329,-2.85261,-1.70364)">
        <path d="M597.2,104.7L586.6,1.1L575.4,1.1L540.9,70.8L597.2,104.7Z" style="fill:rgb(43,47,57);fill-rule:nonzero;stroke:black;stroke-width:1px;"/>
    </g>
    <g transform="matrix(1.00138,0.00032594,-0.000324622,0.997329,-2.85261,-1.70364)">
        <path d="M626,122L625.7,121.1L624.5,121.1L626,122Z" style="fill:rgb(46,47,57);fill-rule:nonzero;stroke:black;stroke-width:1px;"/>
    </g>
    <g transform="matrix(1.00138,0.00032594,-0.000324622,0.997329,-2.85261,-1.70364)">
        <path d="M586.6,1.1L597.2,104.7L624.5,121.1L625.7,121.1L590.2,1.1L586.6,1.1Z" style="fill:rgb(46,47,57);fill-rule:nonzero;stroke:black;stroke-width:1px;"/>
    </g>
    <g transform="matrix(1.00138,0.00032594,-0.000324622,0.997329,-2.85261,-1.70364)">
        <path d="M626,122L691.3,122.2L690.9,121.1L626.4,121.1L626,122Z" style="fill:rgb(234,113,31);fill-rule:nonzero;stroke:black;stroke-width:1px;"/>
    </g>
    <g transform="matrix(1.00138,0.00032594,-0.000324622,0.997329,-2.85261,-1.70364)">
        <path d="M626.4,121.1L690.9,121.1L661.3,52.2L626.4,121.1Z" style="fill:rgb(234,113,31);fill-rule:nonzero;stroke:black;stroke-width:1px;"/>
    </g>
    <g transform="matrix(1.00138,0.00032594,-0.000324622,0.997329,-2.85261,-1.70364)">
        <path d="M691.3,122.2L772.3,122L773.1,121.1L693.4,121.1L691.3,122.2Z" style="fill:rgb(38,40,49);fill-rule:nonzero;stroke:black;stroke-width:1px;"/>
    </g>
    <g transform="matrix(1.00138,0.00032594,-0.000324622,0.997329,-2.85261,-1.70364)">
        <path d="M693.4,121.1L773.1,121.1L853.3,33.5L693.4,121.1Z" style="fill:rgb(38,40,49);fill-rule:nonzero;stroke:black;stroke-width:1px;"/>
    </g>
    <g transform="matrix(1.00138,0.00032594,-0.000324622,0.997329,-2.85261,-1.70364)">
        <path d="M626,122L626.4,121.1L625.7,121.1L626,122Z" style="fill:rgb(35,40,49);fill-rule:nonzero;stroke:black;stroke-width:1px;"/>
    </g>
    <g transform="matrix(1.00138,0.00032594,-0.000324622,0.997329,-2.85261,-1.70364)">
        <path d="M604.6,1.1L590.2,1.1L625.7,121.1L626.4,121.1L660.5,53.8L604.6,1.1Z" style="fill:rgb(35,40,49);fill-rule:nonzero;stroke:black;stroke-width:1px;"/>
    </g>
    <g transform="matrix(1.00138,0.00032594,-0.000324622,0.997329,-2.85261,-1.70364)">
        <path d="M661.3,52.2L698.7,1.1L605.3,1.1L661.3,52.2Z" style="fill:rgb(35,40,49);fill-rule:nonzero;stroke:black;stroke-width:1px;"/>
    </g>
    <g transform="matrix(1.00138,0.00032594,-0.000324622,0.997329,-2.85261,-1.70364)">
        <path d="M853.3,33.5L818.9,1.1L698.7,1.1L661.3,52.2L853.3,33.5Z" style="fill:rgb(46,47,57);fill-rule:nonzero;stroke:black;stroke-width:1px;"/>
    </g>
    <g transform="matrix(1.00138,0.00032594,-0.000324622,0.997329,-2.85261,-1.70364)">
        <path d="M691.3,122.2L693.4,121.1L690.9,121.1L691.3,122.2Z" style="fill:rgb(35,40,49);fill-rule:nonzero;stroke:black;stroke-width:1px;"/>
    </g>
    <g transform="matrix(1.00138,0.00032594,-0.000324622,0.997329,-2.85261,-1.70364)">
        <path d="M661.3,52.2L690.9,121.1L693.4,121.1L853.3,33.5L661.3,52.2Z" style="fill:rgb(35,40,49);fill-rule:nonzero;stroke:black;stroke-width:1px;"/>
    </g>
    <g transform="matrix(1.00138,0.00032594,-0.000324622,0.997329,-2.85261,-1.70364)">
        <path d="M772.3,122L891,122L889.7,121.1L773.1,121.1L772.3,122Z" style="fill:rgb(30,35,43);fill-rule:nonzero;stroke:black;stroke-width:1px;"/>
    </g>
    <g transform="matrix(1.00138,0.00032594,-0.000324622,0.997329,-2.85261,-1.70364)">
        <path d="M773.1,121.1L889.7,121.1L818.2,71.9L773.1,121.1Z" style="fill:rgb(30,35,43);fill-rule:nonzero;stroke:black;stroke-width:1px;"/>
    </g>
    <g transform="matrix(1.00138,0.00032594,-0.000324622,0.997329,-2.85261,-1.70364)">
        <path d="M891,122L890.6,121.1L889.7,121.1L891,122Z" style="fill:rgb(35,36,45);fill-rule:nonzero;stroke:black;stroke-width:1px;"/>
    </g>
    <g transform="matrix(1.00138,0.00032594,-0.000324622,0.997329,-2.85261,-1.70364)">
        <path d="M818.2,72.6L889.7,121.1L890.6,121.1L853.3,33.5L818.2,72.6Z" style="fill:rgb(35,36,45);fill-rule:nonzero;stroke:black;stroke-width:1px;"/>
    </g>
    <g transform="matrix(1.00138,0.00032594,-0.000324622,0.997329,-2.85261,-1.70364)">
        <path d="M938.3,122L1094,122.2L1093.3,121.1L938.8,121.1L938.3,122Z" style="fill:rgb(35,40,49);fill-rule:nonzero;stroke:black;stroke-width:1px;"/>
    </g>
    <g transform="matrix(1.00138,0.00032594,-0.000324622,0.997329,-2.85261,-1.70364)">
        <path d="M1002.8,1.1L938.8,121.1L1093.3,121.1L1015.1,1.1L1002.8,1.1Z" style="fill:rgb(35,40,49);fill-rule:nonzero;stroke:black;stroke-width:1px;"/>
    </g>
    <g transform="matrix(1.00138,0.00032594,-0.000324622,0.997329,-2.85261,-1.70364)">
        <path d="M858.2,1.1L818.9,1.1L853.3,33.5L858.2,1.1Z" style="fill:rgb(30,32,40);fill-rule:nonzero;stroke:black;stroke-width:1px;"/>
    </g>
    <g transform="matrix(1.00138,0.00032594,-0.000324622,0.997329,-2.85261,-1.70364)">
        <path d="M876.2,1.1L858.2,1.1L853.3,33.5L876.2,1.1Z" style="fill:rgb(35,40,49);fill-rule:nonzero;stroke:black;stroke-width:1px;"/>
    </g>
    <g transform="matrix(1.00138,0.00032594,-0.000324622,0.997329,-2.85261,-1.70364)">
        <path d="M970.5,1.1L876.2,1.1L853.3,33.5L970.5,1.1Z" style="fill:rgb(38,40,49);fill-rule:nonzero;stroke:black;stroke-width:1px;"/>
    </g>
    <g transform="matrix(1.00138,0.00032594,-0.000324622,0.997329,-2.85261,-1.70364)">
        <path d="M891,122L938.3,122L938.8,121.1L890.6,121.1L891,122Z" style="fill:rgb(46,47,57);fill-rule:nonzero;stroke:black;stroke-width:1px;"/>
    </g>
    <g transform="matrix(1.00138,0.00032594,-0.000324622,0.997329,-2.85261,-1.70364)">
        <path d="M999.4,1.1L891,120.3L998.9,1.1L970.5,1.1L853.3,33.5L890.6,121.1L938.8,121.1L1002.3,1.1L999.4,1.1Z" style="fill:rgb(46,47,57);fill-rule:nonzero;stroke:black;stroke-width:1px;"/>
    </g>
    <g transform="matrix(1.00138,0.00032594,-0.000324622,0.997329,-2.85261,-1.70364)">
        <path d="M1094,122.2L1093.9,121.1L1093.3,121.1L1094,122.2Z" style="fill:rgb(39,44,53);fill-rule:nonzero;stroke:black;stroke-width:1px;"/>
    </g>
    <g transform="matrix(1.00138,0.00032594,-0.000324622,0.997329,-2.85261,-1.70364)">
        <path d="M1015.1,1.1L1093.3,121.1L1093.9,121.1L1087.3,1.1L1015.1,1.1Z" style="fill:rgb(39,44,53);fill-rule:nonzero;stroke:black;stroke-width:1px;"/>
    </g>
    <g transform="matrix(1.00138,0.00032594,-0.000324622,0.997329,-2.85261,-1.70364)">
        <path d="M1094,122.2L1122.3,122L1122.1,121.1L1093.9,121.1L1094,122.2Z" style="fill:rgb(34,39,47);fill-rule:nonzero;stroke:black;stroke-width:1px;"/>
    </g>
    <g transform="matrix(1.00138,0.00032594,-0.000324622,0.997329,-2.85261,-1.70364)">
        <path d="M1087.3,1.1L1093.9,121.1L1122.1,121.1L1092.8,1.1L1087.3,1.1Z" style="fill:rgb(34,39,47);fill-rule:nonzero;stroke:black;stroke-width:1px;"/>
    </g>
    <g transform="matrix(1.00138,0.00032594,-0.000324622,0.997329,-2.85261,-1.70364)">
        <path d="M1122.3,122L1187.7,122.2L1186.9,121.1L1122.1,121.1L1122.3,122Z" style="fill:rgb(38,40,49);fill-rule:nonzero;stroke:black;stroke-width:1px;"/>
    </g>
    <g transform="matrix(1.00138,0.00032594,-0.000324622,0.997329,-2.85261,-1.70364)">
        <path d="M1092.8,1.1L1122.1,121.1L1186.9,121.1L1104.8,1.1L1092.8,1.1Z" style="fill:rgb(38,40,49);fill-rule:nonzero;stroke:black;stroke-width:1px;"/>
    </g>
    <g transform="matrix(1.00138,0.00032594,-0.000324622,0.997329,-2.85261,-1.70364)">
        <path d="M1219.1,1.1L1104.8,1.1L1157.3,77.9L1219.1,1.1Z" style="fill:rgb(46,47,57);fill-rule:nonzero;stroke:black;stroke-width:1px;"/>
    </g>
    <g transform="matrix(1.00138,0.00032594,-0.000324622,0.997329,-2.85261,-1.70364)">
        <path d="M1187.1,1.1L1105.8,1.1L1181.3,48.1L1187.1,1.1Z" style="fill:rgb(34,39,47);fill-rule:nonzero;stroke:black;stroke-width:1px;"/>
    </g>
    <g transform="matrix(1.00138,0.00032594,-0.000324622,0.997329,-2.85261,-1.70364)">
        <path d="M1187.7,122.2L1188.1,121.1L1186.9,121.1L1187.7,122.2Z" style="fill:rgb(43,47,57);fill-rule:nonzero;stroke:black;stroke-width:1px;"/>
    </g>
    <g transform="matrix(1.00138,0.00032594,-0.000324622,0.997329,-2.85261,-1.70364)">
        <path d="M1219.1,1.1L1157.3,77.9L1186.9,121.1L1188.1,121.1L1233.4,1.1L1219.1,1.1Z" style="fill:rgb(43,47,57);fill-rule:nonzero;stroke:black;stroke-width:1px;"/>
    </g>
    <g transform="matrix(1.00138,0.00032594,-0.000324622,0.997329,-2.85261,-1.70364)">
        <path d="M1301,2.3L1301.8,1.1L1299.1,1.1L1301,2.3Z" style="fill:rgb(35,35,45);fill-rule:nonzero;stroke:black;stroke-width:1px;"/>
    </g>
    <g transform="matrix(1.00138,0.00032594,-0.000324622,0.997329,-2.85261,-1.70364)">
        <path d="M1301,2.3L1299.1,1.1L1233.4,1.1L1211.7,58.6L1301,2.3Z" style="fill:rgb(35,35,45);fill-rule:nonzero;stroke:black;stroke-width:1px;"/>
    </g>
    <g transform="matrix(1.00138,0.00032594,-0.000324622,0.997329,-2.85261,-1.70364)">
        <path d="M1187.7,122.2L1188.7,121.1L1188.1,121.1L1187.7,122.2Z" style="fill:rgb(43,47,57);fill-rule:nonzero;stroke:black;stroke-width:1px;"/>
    </g>
    <g transform="matrix(1.00138,0.00032594,-0.000324622,0.997329,-2.85261,-1.70364)">
        <path d="M1211.7,58.6L1188.1,121.1L1188.7,121.1L1301,2.3L1211.7,58.6Z" style="fill:rgb(43,47,57);fill-rule:nonzero;stroke:black;stroke-width:1px;"/>
    </g>
    <g transform="matrix(1.00138,0.00032594,-0.000324622,0.997329,-2.85261,-1.70364)">
        <path d="M1187.7,122.2L1235.7,122L1236.1,121.1L1188.7,121.1L1187.7,122.2Z" style="fill:rgb(38,40,49);fill-rule:nonzero;stroke:black;stroke-width:1px;"/>
    </g>
    <g transform="matrix(1.00138,0.00032594,-0.000324622,0.997329,-2.85261,-1.70364)">
        <path d="M1188.7,121.1L1236.1,121.1L1301,2.3L1188.7,121.1Z" style="fill:rgb(38,40,49);fill-rule:nonzero;stroke:black;stroke-width:1px;"/>
    </g>
    <g transform="matrix(1.00138,0.00032594,-0.000324622,0.997329,-2.85261,-1.70364)">
        <path d="M1235.7,122L1333.7,122.2L1333.4,121.1L1236.1,121.1L1235.7,122Z" style="fill:rgb(30,35,46);fill-rule:nonzero;stroke:black;stroke-width:1px;"/>
    </g>
    <g transform="matrix(1.00138,0.00032594,-0.000324622,0.997329,-2.85261,-1.70364)">
        <path d="M1236.1,121.1L1333.4,121.1L1301,2.3L1236.1,121.1Z" style="fill:rgb(30,35,46);fill-rule:nonzero;stroke:black;stroke-width:1px;"/>
    </g>
    <g transform="matrix(1.00138,0.00032594,-0.000324622,0.997329,-2.85261,-1.70364)">
        <path d="M1333.7,122.2L1334.4,121.1L1333.4,121.1L1333.7,122.2Z" style="fill:rgb(29,31,40);fill-rule:nonzero;stroke:black;stroke-width:1px;"/>
    </g>
    <g transform="matrix(1.00138,0.00032594,-0.000324622,0.997329,-2.85261,-1.70364)">
        <path d="M1301,2.3L1333.4,121.1L1334.4,121.1L1407.3,14.3L1301,2.3Z" style="fill:rgb(29,31,40);fill-rule:nonzero;stroke:black;stroke-width:1px;"/>
    </g>
    <g transform="matrix(1.00138,0.00032594,-0.000324622,0.997329,-2.85261,-1.70364)">
        <path d="M1407.3,14.3L1404.1,1.1L1301.8,1.1L1301,2.3L1407.3,14.3Z" style="fill:rgb(234,113,31);fill-rule:nonzero;stroke:black;stroke-width:1px;"/>
    </g>
    <g transform="matrix(1.00138,0.00032594,-0.000324622,0.997329,-2.85261,-1.70364)">
        <path d="M1333.7,122.2L1398.3,122.2L1398.4,121.1L1334.4,121.1L1333.7,122.2Z" style="fill:rgb(35,35,45);fill-rule:nonzero;stroke:black;stroke-width:1px;"/>
    </g>
    <g transform="matrix(1.00138,0.00032594,-0.000324622,0.997329,-2.85261,-1.70364)">
        <path d="M1334.4,121.1L1398.4,121.1L1407.3,14.3L1334.4,121.1Z" style="fill:rgb(35,35,45);fill-rule:nonzero;stroke:black;stroke-width:1px;"/>
    </g>
    <g transform="matrix(1.00138,0.00032594,-0.000324622,0.997329,-2.85261,-1.70364)">
        <path d="M1398.3,122.2L1399.3,121.1L1398.4,121.1L1398.3,122.2Z" style="fill:rgb(38,40,49);fill-rule:nonzero;stroke:black;stroke-width:1px;"/>
    </g>
    <g transform="matrix(1.00138,0.00032594,-0.000324622,0.997329,-2.85261,-1.70364)">
        <path d="M1465.5,1.1L1407.3,14.3L1398.4,121.1L1399.3,121.1L1502.7,1.1L1465.5,1.1Z" style="fill:rgb(38,40,49);fill-rule:nonzero;stroke:black;stroke-width:1px;"/>
    </g>
    <g transform="matrix(1.00138,0.00032594,-0.000324622,0.997329,-2.85261,-1.70364)">
        <path d="M1398.3,122.2L1459.7,122.2L1460.1,121.1L1399.3,121.1L1398.3,122.2Z" style="fill:rgb(43,47,57);fill-rule:nonzero;stroke:black;stroke-width:1px;"/>
    </g>
    <g transform="matrix(1.00138,0.00032594,-0.000324622,0.997329,-2.85261,-1.70364)">
        <path d="M1502.7,1.1L1399.3,121.1L1460.1,121.1L1507.5,1.1L1502.7,1.1Z" style="fill:rgb(43,47,57);fill-rule:nonzero;stroke:black;stroke-width:1px;"/>
    </g>
    <g transform="matrix(1.00138,0.00032594,-0.000324622,0.997329,-2.85261,-1.70364)">
        <path d="M1459.7,122.2L1651,122L1650.1,121.1L1460.1,121.1L1459.7,122.2Z" style="fill:rgb(29,31,40);fill-rule:nonzero;stroke:black;stroke-width:1px;"/>
    </g>
    <g transform="matrix(1.00138,0.00032594,-0.000324622,0.997329,-2.85261,-1.70364)">
        <path d="M1507.5,1.1L1460.1,121.1L1650.1,121.1L1522.8,1.1L1507.5,1.1Z" style="fill:rgb(29,31,40);fill-rule:nonzero;stroke:black;stroke-width:1px;"/>
    </g>
    <g transform="matrix(1.00138,0.00032594,-0.000324622,0.997329,-2.85261,-1.70364)">
        <path d="M1465.5,1.1L1404.1,1.1L1407.3,14.3L1465.5,1.1Z" style="fill:rgb(37,42,51);fill-rule:nonzero;stroke:black;stroke-width:1px;"/>
    </g>
    <g transform="matrix(1.00138,0.00032594,-0.000324622,0.997329,-2.85261,-1.70364)">
        <path d="M1642.9,1.1L1543.2,1.1L1701,53.3L1642.9,1.1Z" style="fill:rgb(40,42,51);fill-rule:nonzero;stroke:black;stroke-width:1px;"/>
    </g>
    <g transform="matrix(1.00138,0.00032594,-0.000324622,0.997329,-2.85261,-1.70364)">
        <path d="M1672.8,1.1L1642.9,1.1L1663.6,19.8L1672.8,1.1Z" style="fill:rgb(35,40,49);fill-rule:nonzero;stroke:black;stroke-width:1px;"/>
    </g>
    <g transform="matrix(1.00138,0.00032594,-0.000324622,0.997329,-2.85261,-1.70364)">
        <path d="M1651,122L1651.6,121.1L1650.1,121.1L1651,122Z" style="fill:rgb(46,47,57);fill-rule:nonzero;stroke:black;stroke-width:1px;"/>
    </g>
    <g transform="matrix(1.00138,0.00032594,-0.000324622,0.997329,-2.85261,-1.70364)">
        <path d="M1543.2,1.1L1522.8,1.1L1650.1,121.1L1651.6,121.1L1701,53.3L1543.2,1.1Z" style="fill:rgb(46,47,57);fill-rule:nonzero;stroke:black;stroke-width:1px;"/>
    </g>
    <g transform="matrix(1.00138,0.00032594,-0.000324622,0.997329,-2.85261,-1.70364)">
        <path d="M1701,53.3L1706,1.1L1672.8,1.1L1663.6,19.8L1701,53.3Z" style="fill:rgb(234,113,31);fill-rule:nonzero;stroke:black;stroke-width:1px;"/>
    </g>
    <g transform="matrix(1.00138,0.00032594,-0.000324622,0.997329,-2.85261,-1.70364)">
        <path d="M1739.3,1.1L1706.5,1.1L1701,53.3L1739.3,1.1Z" style="fill:rgb(37,39,49);fill-rule:nonzero;stroke:black;stroke-width:1px;"/>
    </g>
    <g transform="matrix(1.00138,0.00032594,-0.000324622,0.997329,-2.85261,-1.70364)">
        <path d="M1729.7,122.2L1841,122.2C1841,122.2 1840.2,121.8 1838.7,121.1L1729.2,121.1L1729.7,122.2Z" style="fill:rgb(35,40,49);fill-rule:nonzero;stroke:black;stroke-width:1px;"/>
    </g>
    <g transform="matrix(1.00138,0.00032594,-0.000324622,0.997329,-2.85261,-1.70364)">
        <path d="M1729.2,121.1L1838.7,121.1C1820.9,112.2 1703.1,53.6 1701,53.3L1729.2,121.1Z" style="fill:rgb(35,40,49);fill-rule:nonzero;stroke:black;stroke-width:1px;"/>
    </g>
    <g transform="matrix(1.00138,0.00032594,-0.000324622,0.997329,-2.85261,-1.70364)">
        <path d="M1760.8,82.4L1775.9,1.1L1739.3,1.1L1701,53.3L1760.8,82.4Z" style="fill:rgb(46,47,57);fill-rule:nonzero;stroke:black;stroke-width:1px;"/>
    </g>
    <g transform="matrix(1.00138,0.00032594,-0.000324622,0.997329,-2.85261,-1.70364)">
        <path d="M1841,122.2L1841.7,121.1L1838.7,121.1L1841,122.2Z" style="fill:rgb(234,113,31);fill-rule:nonzero;stroke:black;stroke-width:1px;"/>
    </g>
    <g transform="matrix(1.00138,0.00032594,-0.000324622,0.997329,-2.85261,-1.70364)">
        <path d="M1760.8,82.4L1838.7,121.1L1841.7,121.1L1894.7,33L1760.8,82.4Z" style="fill:rgb(234,113,31);fill-rule:nonzero;stroke:black;stroke-width:1px;"/>
    </g>
    <g transform="matrix(1.00138,0.00032594,-0.000324622,0.997329,-2.85261,-1.70364)">
        <path d="M1894.7,33L1860.3,1.1L1775.9,1.1L1760.8,82.4L1894.7,33Z" style="fill:rgb(34,35,45);fill-rule:nonzero;stroke:black;stroke-width:1px;"/>
    </g>
    <g transform="matrix(1.00138,0.00032594,-0.000324622,0.997329,-2.85261,-1.70364)">
        <path d="M1919.9,96L1894.7,33L1841.7,121.1L1919.9,121.1L1919.9,96Z" style="fill:rgb(36,38,47);fill-rule:nonzero;stroke:black;stroke-width:1px;"/>
    </g>
    <g transform="matrix(1.00138,0.00032594,-0.000324622,0.997329,-2.85261,-1.70364)">
        <path d="M1894.7,33L1920,96L1920,59.1C1906.5,44.8 1895.8,33.6 1894.7,33Z" style="fill:rgb(43,47,57);fill-rule:nonzero;stroke:black;stroke-width:1px;"/>
    </g>
    <g transform="matrix(1.00138,0.00032594,-0.000324622,0.997329,-2.85261,-1.70364)">
        <path d="M1894.7,33L1919.9,59.9L1919.9,26.2L1894.7,33Z" style="fill:rgb(46,47,57);fill-rule:nonzero;stroke:black;stroke-width:1px;"/>
    </g>
    <g transform="matrix(1.00138,0.00032594,-0.000324622,0.997329,-2.85261,-1.70364)">
        <path d="M1919.9,26.1L1919.9,1.1L1916.8,1.1L1894.7,33L1919.9,26.1Z" style="fill:rgb(35,40,49);fill-rule:nonzero;stroke:black;stroke-width:1px;"/>
    </g>
    <g transform="matrix(1.00138,0.00032594,-0.000324622,0.997329,-2.85261,-1.70364)">
        <path d="M1916.8,1.1L1860.3,1.1L1894.7,33L1916.8,1.1Z" style="fill:rgb(38,44,53);fill-rule:nonzero;stroke:black;stroke-width:1px;"/>
    </g>
    <g transform="matrix(1.00138,0.00032594,-0.000324622,0.997329,-2.85261,-1.70364)">
        <path d="M307.9,122.2C308,122.1 308.6,121.7 309.6,121.1L307.7,121.1C307.7,121.9 307.8,122.3 307.9,122.2Z" style="fill:rgb(38,40,49);fill-rule:nonzero;stroke:black;stroke-width:1px;"/>
    </g>
    <g transform="matrix(1.00138,0.00032594,-0.000324622,0.997329,-2.85261,-1.70364)">
        <path d="M358.3,1.1L315.3,1.1C311.6,53.2 307.6,112.3 307.8,121.1L309.7,121.1C321.4,113.4 388.8,69 388.8,69L358.3,1.1Z" style="fill:rgb(38,40,49);fill-rule:nonzero;stroke:black;stroke-width:1px;"/>
    </g>
    <g transform="matrix(1.00138,0.00032594,-0.000324622,0.997329,-2.85261,-1.70364)">
        <path d="M307.9,120.7L315.1,1.1L266.4,1.1L237.3,45.1L307.9,120.7Z" style="fill:rgb(35,40,49);fill-rule:nonzero;stroke:black;stroke-width:1px;"/>
    </g>
    <g transform="matrix(1.00138,0.00032594,-0.000324622,0.997329,-2.85261,-1.70364)">
        <path d="M308.6,122.9L307,121.1L301.5,121.1L308.6,122.9Z" style="fill:rgb(34,35,45);fill-rule:nonzero;stroke:black;stroke-width:1px;"/>
    </g>
    <g transform="matrix(1.00138,0.00032594,-0.000324622,0.997329,-2.85261,-1.70364)">
        <path d="M254.7,109.5L301.5,121.1L307,121.1L237.3,45.1L254.7,109.5Z" style="fill:rgb(34,35,45);fill-rule:nonzero;stroke:black;stroke-width:1px;"/>
    </g>
    <g transform="matrix(1.00138,0.00032594,-0.000324622,0.997329,-2.85261,-1.70364)">
        <path d="M388.7,69L476.7,33.5L366.9,20.5L388.7,69Z" style="fill:rgb(46,47,57);fill-rule:nonzero;stroke:black;stroke-width:1px;"/>
    </g>
    <g transform="matrix(1.00138,0.00032594,-0.000324622,0.997329,-2.85261,-1.70364)">
        <path d="M1651,122L1729.7,122.2L1729.2,121.1L1651.6,121.1L1651,122Z" style="fill:rgb(36,38,47);fill-rule:nonzero;stroke:black;stroke-width:1px;"/>
    </g>
    <g transform="matrix(1.00138,0.00032594,-0.000324622,0.997329,-2.85261,-1.70364)">
        <path d="M1651.6,121.1L1729.2,121.1L1701,53.3L1651.6,121.1Z" style="fill:rgb(36,38,47);fill-rule:nonzero;stroke:black;stroke-width:1px;"/>
    </g>
    <g transform="matrix(1.00138,0.00032594,-0.000324622,0.997329,-2.85261,-1.70364)">
        <path d="M1739.3,1.1L1706,1.1L1701,53.3L1739.3,1.1Z" style="fill:rgb(37,39,49);fill-rule:nonzero;stroke:black;stroke-width:1px;"/>
    </g>
    <g transform="matrix(1.00138,0.00032594,-0.000324622,0.997329,-2.85261,-1.70364)">
        <path d="M626,122L626.4,121.1L625.7,121.1L626,122Z" style="fill:rgb(30,34,41);fill-rule:nonzero;stroke:black;stroke-width:1px;"/>
    </g>
    <g transform="matrix(1.00138,0.00032594,-0.000324622,0.997329,-2.85261,-1.70364)">
        <path d="M662,51L698.1,1.1L605.8,1.1L662,51Z" style="fill:rgb(30,34,41);fill-rule:nonzero;stroke:black;stroke-width:1px;"/>
    </g>
    <g transform="matrix(1.00138,0.00032594,-0.000324622,0.997329,-2.85261,-1.70364)">
        <path d="M605.3,1.1L590.2,1.1L625.7,121.1L626.4,121.1L661.3,52.2L605.3,1.1Z" style="fill:rgb(30,34,41);fill-rule:nonzero;stroke:black;stroke-width:1px;"/>
    </g>
    <g transform="matrix(1.00138,0.00032594,-0.000324622,0.997329,-2.85261,-1.70364)">
        <path d="M421.1,119.9L478.7,33.5L388.7,69L421.1,119.9Z" style="fill:rgb(30,34,41);fill-rule:nonzero;stroke:black;stroke-width:1px;"/>
    </g>
    <g transform="matrix(1.00138,0.00032594,-0.000324622,0.997329,-2.85261,-1.70364)">
        <path d="M545.7,1.1L478.1,1.1L478.7,33.5L545.7,1.1Z" style="fill:rgb(46,47,57);fill-rule:nonzero;stroke:black;stroke-width:1px;"/>
    </g>
    <g transform="matrix(1.00138,0.00032594,-0.000324622,0.997329,-2.85261,-1.70364)">
        <path d="M478.1,1.1L432,1.1L478.7,33.5L478.1,1.1Z" style="fill:rgb(46,47,57);fill-rule:nonzero;stroke:black;stroke-width:1px;"/>
    </g>
    <g transform="matrix(1.00138,0.00032594,-0.000324622,0.997329,-2.85261,-1.70364)">
        <path d="M419.7,122L420.3,121.1L419.2,121.1L419.7,122Z" style="fill:rgb(28,33,41);fill-rule:nonzero;stroke:black;stroke-width:1px;"/>
    </g>
    <g transform="matrix(1.00138,0.00032594,-0.000324622,0.997329,-2.85261,-1.70364)">
        <path d="M388.7,69L419.2,121.1L420.3,121.1L478.7,33.5L388.7,69Z" style="fill:rgb(28,33,41);fill-rule:nonzero;stroke:black;stroke-width:1px;"/>
    </g>
</svg>
