<?xml version="1.0" encoding="utf-8"?>
<!-- Generator: Adobe Illustrator 22.0.1, SVG Export Plug-In . SVG Version: 6.00 Build 0)  -->
<svg version="1.1" xmlns="http://www.w3.org/2000/svg" xmlns:xlink="http://www.w3.org/1999/xlink" x="0px" y="0px"
	 viewBox="0 0 1920 120" style="enable-background:new 0 0 1920 120;" xml:space="preserve">
<style type="text/css">
	.st0{fill:#242630;stroke:#000000;stroke-miterlimit:10;}
	.st1{fill:#EA711F;stroke:#000000;stroke-miterlimit:10;}
	.st2{fill:#262831;stroke:#000000;stroke-miterlimit:10;}
	.st3{fill:#232831;stroke:#000000;stroke-miterlimit:10;}
	.st4{fill:#2E2F39;stroke:#000000;stroke-miterlimit:10;}
	.st5{fill:#22232D;stroke:#000000;stroke-miterlimit:10;}
	.st6{fill:#2B2F39;stroke:#000000;stroke-miterlimit:10;}
	.st7{fill:#30323C;stroke:#000000;stroke-miterlimit:10;}
	.st8{fill:#252A33;stroke:#000000;stroke-miterlimit:10;}
	.st9{fill:#2D333C;stroke:#000000;stroke-miterlimit:10;}
	.st10{fill:#1E232B;stroke:#000000;stroke-miterlimit:10;}
	.st11{fill:#23242D;stroke:#000000;stroke-miterlimit:10;}
	.st12{fill:#1E2028;stroke:#000000;stroke-miterlimit:10;}
	.st13{fill:#272C35;stroke:#000000;stroke-miterlimit:10;}
	.st14{fill:#22272F;stroke:#000000;stroke-miterlimit:10;}
	.st15{fill:#23232D;stroke:#000000;stroke-miterlimit:10;}
	.st16{fill:#1E232E;stroke:#000000;stroke-miterlimit:10;}
	.st17{fill:#1D1F28;stroke:#000000;stroke-miterlimit:10;}
	.st18{fill:#282A33;stroke:#000000;stroke-miterlimit:10;}
	.st19{fill:#252731;stroke:#000000;stroke-miterlimit:10;}
	.st20{fill:#24262F;stroke:#000000;stroke-miterlimit:10;}
	.st21{fill:#262C35;stroke:#000000;stroke-miterlimit:10;}
	.st22{fill:#1E2229;stroke:#000000;stroke-miterlimit:10;}
	.st23{fill:#1C2129;stroke:#000000;stroke-miterlimit:10;}
</style>
<g id="Слой_2">
</g>
<g id="Слой_1" xmlns:serif="http://www.serif.com/">
	<g transform="matrix(1.00138,0.00032594,-0.000324622,0.997329,-2.85261,-1.70364)">
		<path class="st0" d="M16,1.1l-13,0L3,40L16,1.1z"/>
	</g>
	<g transform="matrix(1.00138,0.00032594,-0.000324622,0.997329,-2.85261,-1.70364)">
		<path class="st1" d="M2.3,122.2l54.2-0.2l-0.6-0.9H2.3L2.3,122.2z"/>
	</g>
	<g transform="matrix(1.00138,0.00032594,-0.000324622,0.997329,-2.85261,-1.70364)">
		<path class="st1" d="M2.3,121.1h53.6L3,40L2.3,121.1z"/>
	</g>
	<g transform="matrix(1.00138,0.00032594,-0.000324622,0.997329,-2.85261,-1.70364)">
		<path class="st2" d="M149.9,122.2l-0.7-1.1h-1.3L149.9,122.2z"/>
	</g>
	<g transform="matrix(1.00138,0.00032594,-0.000324622,0.997329,-2.85261,-1.70364)">
		<path class="st2" d="M16,1.1L3,40l144.9,81.1h1.3L71.5,1.1L16,1.1z"/>
	</g>
	<g transform="matrix(1.00138,0.00032594,-0.000324622,0.997329,-2.85261,-1.70364)">
		<path class="st3" d="M56.5,122l93.4,0.2l-2-1.1l-92,0L56.5,122z"/>
	</g>
	<g transform="matrix(1.00138,0.00032594,-0.000324622,0.997329,-2.85261,-1.70364)">
		<path class="st3" d="M55.9,121.1l92,0L3,40L55.9,121.1z"/>
	</g>
	<g transform="matrix(1.00138,0.00032594,-0.000324622,0.997329,-2.85261,-1.70364)">
		<path class="st4" d="M136.7,1.1l-65.2,0l51.8,80L136.7,1.1z"/>
	</g>
	<g transform="matrix(1.00138,0.00032594,-0.000324622,0.997329,-2.85261,-1.70364)">
		<path class="st5" d="M149.9,122.2l158,0l-5.1-1.1l-153.6,0L149.9,122.2z"/>
	</g>
	<g transform="matrix(1.00138,0.00032594,-0.000324622,0.997329,-2.85261,-1.70364)">
		<path class="st5" d="M149.2,121.1l153.6,0l-179.5-40L149.2,121.1z"/>
	</g>
	<g transform="matrix(1.00138,0.00032594,-0.000324622,0.997329,-2.85261,-1.70364)">
		<path class="st6" d="M185.5,1.7l-0.3-0.6l-48.5,0l-13.4,80L185.5,1.7z"/>
	</g>
	<g transform="matrix(1.00138,0.00032594,-0.000324622,0.997329,-2.85261,-1.70364)">
		<path class="st2" d="M254.6,110.4l-29-109.3l-39.6,0l-62.7,80L254.6,110.4z"/>
	</g>
	<g transform="matrix(1.00138,0.00032594,-0.000324622,0.997329,-2.85261,-1.70364)">
		<path class="st5" d="M185.9,1.1l-0.7,0l0.3,0.6L185.9,1.1z"/>
	</g>
	<g transform="matrix(1.00138,0.00032594,-0.000324622,0.997329,-2.85261,-1.70364)">
		<path class="st5" d="M266.4,1.1l-40.8,0l11.7,44L266.4,1.1z"/>
	</g>
	<g transform="matrix(1.00138,0.00032594,-0.000324622,0.997329,-2.85261,-1.70364)">
		<path class="st7" d="M307.9,122.2L383,122l0.1-0.9l-73.5,0L307.9,122.2z"/>
	</g>
	<g transform="matrix(1.00138,0.00032594,-0.000324622,0.997329,-2.85261,-1.70364)">
		<path class="st7" d="M309.6,121.1l73.5,0l5.6-52.1L309.6,121.1z"/>
	</g>
	<g transform="matrix(1.00138,0.00032594,-0.000324622,0.997329,-2.85261,-1.70364)">
		<path class="st2" d="M383,122h36.7l-0.5-0.9h-36.1L383,122z"/>
	</g>
	<g transform="matrix(1.00138,0.00032594,-0.000324622,0.997329,-2.85261,-1.70364)">
		<path class="st2" d="M383.1,121.1h36.1L388.7,69L383.1,121.1z"/>
	</g>
	<g transform="matrix(1.00138,0.00032594,-0.000324622,0.997329,-2.85261,-1.70364)">
		<path class="st5" d="M419.7,122l206.3,0l-1.5-0.9l-204.2,0L419.7,122z"/>
	</g>
	<g transform="matrix(1.00138,0.00032594,-0.000324622,0.997329,-2.85261,-1.70364)">
		<path class="st5" d="M420.3,121.1l204.2,0L478.7,33.5L420.3,121.1z"/>
	</g>
	<g transform="matrix(1.00138,0.00032594,-0.000324622,0.997329,-2.85261,-1.70364)">
		<path class="st3" d="M419.7,122l0.5-0.9h-1L419.7,122z"/>
	</g>
	<g transform="matrix(1.00138,0.00032594,-0.000324622,0.997329,-2.85261,-1.70364)">
		<path class="st3" d="M388.7,69l30.5,52.1h1l56.5-87.6L388.7,69z"/>
	</g>
	<g transform="matrix(1.00138,0.00032594,-0.000324622,0.997329,-2.85261,-1.70364)">
		<path class="st8" d="M365.9,1.1l-7.6,0l8.6,19.4L365.9,1.1z"/>
	</g>
	<g transform="matrix(1.00138,0.00032594,-0.000324622,0.997329,-2.85261,-1.70364)">
		<path class="st1" d="M478.7,33.5L432,1.1l-66.1,0l1,19.4L478.7,33.5z"/>
	</g>
	<g transform="matrix(1.00138,0.00032594,-0.000324622,0.997329,-2.85261,-1.70364)">
		<path class="st9" d="M478.1,1.1l-46.1,0l46.7,32.4L478.1,1.1z"/>
	</g>
	<g transform="matrix(1.00138,0.00032594,-0.000324622,0.997329,-2.85261,-1.70364)">
		<path class="st3" d="M480.1,32.8v1.5l60.8,36.5l34.5-69.7l-29.7,0L480.1,32.8z"/>
	</g>
	<g transform="matrix(1.00138,0.00032594,-0.000324622,0.997329,-2.85261,-1.70364)">
		<path class="st3" d="M545.7,1.1l-66.6,0l1,31.7L545.7,1.1z"/>
	</g>
	<g transform="matrix(1.00138,0.00032594,-0.000324622,0.997329,-2.85261,-1.70364)">
		<path class="st5" d="M543.9,1.1l-67.3,0l0.1,31L543.9,1.1z"/>
	</g>
	<g transform="matrix(1.00138,0.00032594,-0.000324622,0.997329,-2.85261,-1.70364)">
		<path class="st6" d="M597.2,104.7L586.6,1.1l-11.2,0l-34.5,69.7L597.2,104.7z"/>
	</g>
	<g transform="matrix(1.00138,0.00032594,-0.000324622,0.997329,-2.85261,-1.70364)">
		<path class="st4" d="M626,122l-0.3-0.9h-1.2L626,122z"/>
	</g>
	<g transform="matrix(1.00138,0.00032594,-0.000324622,0.997329,-2.85261,-1.70364)">
		<path class="st4" d="M586.6,1.1l10.6,103.6l27.3,16.4h1.2l-35.5-120L586.6,1.1z"/>
	</g>
	<g transform="matrix(1.00138,0.00032594,-0.000324622,0.997329,-2.85261,-1.70364)">
		<path class="st1" d="M626,122l65.3,0.2l-0.4-1.1l-64.5,0L626,122z"/>
	</g>
	<g transform="matrix(1.00138,0.00032594,-0.000324622,0.997329,-2.85261,-1.70364)">
		<path class="st1" d="M626.4,121.1l64.5,0l-29.6-68.9L626.4,121.1z"/>
	</g>
	<g transform="matrix(1.00138,0.00032594,-0.000324622,0.997329,-2.85261,-1.70364)">
		<path class="st2" d="M691.3,122.2l81-0.2l0.8-0.9h-79.7L691.3,122.2z"/>
	</g>
	<g transform="matrix(1.00138,0.00032594,-0.000324622,0.997329,-2.85261,-1.70364)">
		<path class="st2" d="M693.4,121.1h79.7l80.2-87.6L693.4,121.1z"/>
	</g>
	<g transform="matrix(1.00138,0.00032594,-0.000324622,0.997329,-2.85261,-1.70364)">
		<path class="st3" d="M626,122l0.4-0.9h-0.7L626,122z"/>
	</g>
	<g transform="matrix(1.00138,0.00032594,-0.000324622,0.997329,-2.85261,-1.70364)">
		<path class="st3" d="M604.6,1.1l-14.4,0l35.5,120h0.7l34.1-67.3L604.6,1.1z"/>
	</g>
	<g transform="matrix(1.00138,0.00032594,-0.000324622,0.997329,-2.85261,-1.70364)">
		<path class="st3" d="M661.3,52.2l37.4-51.1l-93.4,0L661.3,52.2z"/>
	</g>
	<g transform="matrix(1.00138,0.00032594,-0.000324622,0.997329,-2.85261,-1.70364)">
		<path class="st4" d="M853.3,33.5L818.9,1.1l-120.2,0l-37.4,51.1L853.3,33.5z"/>
	</g>
	<g transform="matrix(1.00138,0.00032594,-0.000324622,0.997329,-2.85261,-1.70364)">
		<path class="st3" d="M691.3,122.2l2.1-1.1h-2.5L691.3,122.2z"/>
	</g>
	<g transform="matrix(1.00138,0.00032594,-0.000324622,0.997329,-2.85261,-1.70364)">
		<path class="st3" d="M661.3,52.2l29.6,68.9h2.5l159.9-87.6L661.3,52.2z"/>
	</g>
	<g transform="matrix(1.00138,0.00032594,-0.000324622,0.997329,-2.85261,-1.70364)">
		<path class="st10" d="M772.3,122l118.7,0l-1.3-0.9l-116.6,0L772.3,122z"/>
	</g>
	<g transform="matrix(1.00138,0.00032594,-0.000324622,0.997329,-2.85261,-1.70364)">
		<path class="st10" d="M773.1,121.1l116.6,0l-71.5-49.2L773.1,121.1z"/>
	</g>
	<g transform="matrix(1.00138,0.00032594,-0.000324622,0.997329,-2.85261,-1.70364)">
		<path class="st11" d="M891,122l-0.4-0.9h-0.9L891,122z"/>
	</g>
	<g transform="matrix(1.00138,0.00032594,-0.000324622,0.997329,-2.85261,-1.70364)">
		<path class="st11" d="M818.2,72.6l71.5,48.5h0.9l-37.3-87.6L818.2,72.6z"/>
	</g>
	<g transform="matrix(1.00138,0.00032594,-0.000324622,0.997329,-2.85261,-1.70364)">
		<path class="st3" d="M938.3,122l155.7,0.2l-0.7-1.1l-154.5,0L938.3,122z"/>
	</g>
	<g transform="matrix(1.00138,0.00032594,-0.000324622,0.997329,-2.85261,-1.70364)">
		<path class="st3" d="M1002.8,1.1l-64,120l154.5,0l-78.2-120L1002.8,1.1z"/>
	</g>
	<g transform="matrix(1.00138,0.00032594,-0.000324622,0.997329,-2.85261,-1.70364)">
		<path class="st12" d="M858.2,1.1l-39.3,0l34.4,32.4L858.2,1.1z"/>
	</g>
	<g transform="matrix(1.00138,0.00032594,-0.000324622,0.997329,-2.85261,-1.70364)">
		<path class="st3" d="M876.2,1.1l-18,0l-4.9,32.4L876.2,1.1z"/>
	</g>
	<g transform="matrix(1.00138,0.00032594,-0.000324622,0.997329,-2.85261,-1.70364)">
		<path class="st2" d="M970.5,1.1l-94.3,0l-22.9,32.4L970.5,1.1z"/>
	</g>
	<g transform="matrix(1.00138,0.00032594,-0.000324622,0.997329,-2.85261,-1.70364)">
		<path class="st4" d="M891,122h47.3l0.5-0.9h-48.2L891,122z"/>
	</g>
	<g transform="matrix(1.00138,0.00032594,-0.000324622,0.997329,-2.85261,-1.70364)">
		<path class="st4" d="M999.4,1.1l-108.8,120l108.3-120l-28.4,0L853.3,33.5l37.3,87.6h48.2l63.5-120L999.4,1.1z"/>
	</g>
	<g transform="matrix(1.00138,0.00032594,-0.000324622,0.997329,-2.85261,-1.70364)">
		<path class="st13" d="M1094,122.2l-0.1-1.1h-0.6L1094,122.2z"/>
	</g>
	<g transform="matrix(1.00138,0.00032594,-0.000324622,0.997329,-2.85261,-1.70364)">
		<path class="st13" d="M1015.1,1.1l78.2,120h0.6l-6.6-120L1015.1,1.1z"/>
	</g>
	<g transform="matrix(1.00138,0.00032594,-0.000324622,0.997329,-2.85261,-1.70364)">
		<path class="st14" d="M1094,122.2l28.3-0.2l-0.2-0.9h-28.2L1094,122.2z"/>
	</g>
	<g transform="matrix(1.00138,0.00032594,-0.000324622,0.997329,-2.85261,-1.70364)">
		<path class="st14" d="M1087.3,1.1l6.6,120h28.2l-29.3-120L1087.3,1.1z"/>
	</g>
	<g transform="matrix(1.00138,0.00032594,-0.000324622,0.997329,-2.85261,-1.70364)">
		<path class="st2" d="M1122.3,122l65.4,0.2l-0.8-1.1h-64.8L1122.3,122z"/>
	</g>
	<g transform="matrix(1.00138,0.00032594,-0.000324622,0.997329,-2.85261,-1.70364)">
		<path class="st2" d="M1092.8,1.1l29.3,120h64.8l-82.1-120L1092.8,1.1z"/>
	</g>
	<g transform="matrix(1.00138,0.00032594,-0.000324622,0.997329,-2.85261,-1.70364)">
		<path class="st4" d="M1219.1,1.1l-114.3,0l52.5,76.8L1219.1,1.1z"/>
	</g>
	<g transform="matrix(1.00138,0.00032594,-0.000324622,0.997329,-2.85261,-1.70364)">
		<path class="st14" d="M1187.1,1.1l-81.3,0l75.5,47L1187.1,1.1z"/>
	</g>
	<g transform="matrix(1.00138,0.00032594,-0.000324622,0.997329,-2.85261,-1.70364)">
		<path class="st6" d="M1187.7,122.2l0.4-1.1h-1.2L1187.7,122.2z"/>
	</g>
	<g transform="matrix(1.00138,0.00032594,-0.000324622,0.997329,-2.85261,-1.70364)">
		<path class="st6" d="M1219.1,1.1l-61.8,76.8l29.6,43.2h1.2l45.3-120L1219.1,1.1z"/>
	</g>
	<g transform="matrix(1.00138,0.00032594,-0.000324622,0.997329,-2.85261,-1.70364)">
		<path class="st15" d="M1301,2.3l0.8-1.2l-2.7,0L1301,2.3z"/>
	</g>
	<g transform="matrix(1.00138,0.00032594,-0.000324622,0.997329,-2.85261,-1.70364)">
		<path class="st15" d="M1301,2.3l-1.9-1.2l-65.7,0l-21.7,57.5L1301,2.3z"/>
	</g>
	<g transform="matrix(1.00138,0.00032594,-0.000324622,0.997329,-2.85261,-1.70364)">
		<path class="st6" d="M1187.7,122.2l1-1.1h-0.6L1187.7,122.2z"/>
	</g>
	<g transform="matrix(1.00138,0.00032594,-0.000324622,0.997329,-2.85261,-1.70364)">
		<path class="st6" d="M1211.7,58.6l-23.6,62.5h0.6L1301,2.3L1211.7,58.6z"/>
	</g>
	<g transform="matrix(1.00138,0.00032594,-0.000324622,0.997329,-2.85261,-1.70364)">
		<path class="st2" d="M1187.7,122.2l48-0.2l0.4-0.9l-47.4,0L1187.7,122.2z"/>
	</g>
	<g transform="matrix(1.00138,0.00032594,-0.000324622,0.997329,-2.85261,-1.70364)">
		<path class="st2" d="M1188.7,121.1l47.4,0L1301,2.3L1188.7,121.1z"/>
	</g>
	<g transform="matrix(1.00138,0.00032594,-0.000324622,0.997329,-2.85261,-1.70364)">
		<path class="st16" d="M1235.7,122l98,0.2l-0.3-1.1l-97.3,0L1235.7,122z"/>
	</g>
	<g transform="matrix(1.00138,0.00032594,-0.000324622,0.997329,-2.85261,-1.70364)">
		<path class="st16" d="M1236.1,121.1l97.3,0L1301,2.3L1236.1,121.1z"/>
	</g>
	<g transform="matrix(1.00138,0.00032594,-0.000324622,0.997329,-2.85261,-1.70364)">
		<path class="st17" d="M1333.7,122.2l0.7-1.1h-1L1333.7,122.2z"/>
	</g>
	<g transform="matrix(1.00138,0.00032594,-0.000324622,0.997329,-2.85261,-1.70364)">
		<path class="st17" d="M1301,2.3l32.4,118.8h1l72.9-106.8L1301,2.3z"/>
	</g>
	<g transform="matrix(1.00138,0.00032594,-0.000324622,0.997329,-2.85261,-1.70364)">
		<path class="st1" d="M1407.3,14.3l-3.2-13.2l-102.3,0l-0.8,1.2L1407.3,14.3z"/>
	</g>
	<g transform="matrix(1.00138,0.00032594,-0.000324622,0.997329,-2.85261,-1.70364)">
		<path class="st15" d="M1333.7,122.2h64.6l0.1-1.1h-64L1333.7,122.2z"/>
	</g>
	<g transform="matrix(1.00138,0.00032594,-0.000324622,0.997329,-2.85261,-1.70364)">
		<path class="st15" d="M1334.4,121.1h64l8.9-106.8L1334.4,121.1z"/>
	</g>
	<g transform="matrix(1.00138,0.00032594,-0.000324622,0.997329,-2.85261,-1.70364)">
		<path class="st2" d="M1398.3,122.2l1-1.1h-0.9L1398.3,122.2z"/>
	</g>
	<g transform="matrix(1.00138,0.00032594,-0.000324622,0.997329,-2.85261,-1.70364)">
		<path class="st2" d="M1465.5,1.1l-58.2,13.2l-8.9,106.8h0.9l103.4-120L1465.5,1.1z"/>
	</g>
	<g transform="matrix(1.00138,0.00032594,-0.000324622,0.997329,-2.85261,-1.70364)">
		<path class="st6" d="M1398.3,122.2l61.4,0l0.4-1.1l-60.8,0L1398.3,122.2z"/>
	</g>
	<g transform="matrix(1.00138,0.00032594,-0.000324622,0.997329,-2.85261,-1.70364)">
		<path class="st6" d="M1502.7,1.1l-103.4,120l60.8,0l47.4-120L1502.7,1.1z"/>
	</g>
	<g transform="matrix(1.00138,0.00032594,-0.000324622,0.997329,-2.85261,-1.70364)">
		<path class="st17" d="M1459.7,122.2L1651,122l-0.9-0.9l-190,0L1459.7,122.2z"/>
	</g>
	<g transform="matrix(1.00138,0.00032594,-0.000324622,0.997329,-2.85261,-1.70364)">
		<path class="st17" d="M1507.5,1.1l-47.4,120l190,0l-127.3-120L1507.5,1.1z"/>
	</g>
	<g transform="matrix(1.00138,0.00032594,-0.000324622,0.997329,-2.85261,-1.70364)">
		<path class="st8" d="M1465.5,1.1l-61.4,0l3.2,13.2L1465.5,1.1z"/>
	</g>
	<g transform="matrix(1.00138,0.00032594,-0.000324622,0.997329,-2.85261,-1.70364)">
		<path class="st18" d="M1642.9,1.1l-99.7,0L1701,53.3L1642.9,1.1z"/>
	</g>
	<g transform="matrix(1.00138,0.00032594,-0.000324622,0.997329,-2.85261,-1.70364)">
		<path class="st3" d="M1672.8,1.1l-29.9,0l20.7,18.7L1672.8,1.1z"/>
	</g>
	<g transform="matrix(1.00138,0.00032594,-0.000324622,0.997329,-2.85261,-1.70364)">
		<path class="st4" d="M1651,122l0.6-0.9h-1.5L1651,122z"/>
	</g>
	<g transform="matrix(1.00138,0.00032594,-0.000324622,0.997329,-2.85261,-1.70364)">
		<path class="st4" d="M1543.2,1.1l-20.4,0l127.3,120h1.5l49.4-67.8L1543.2,1.1z"/>
	</g>
	<g transform="matrix(1.00138,0.00032594,-0.000324622,0.997329,-2.85261,-1.70364)">
		<path class="st1" d="M1701,53.3l5-52.2l-33.2,0l-9.2,18.7L1701,53.3z"/>
	</g>
	<g transform="matrix(1.00138,0.00032594,-0.000324622,0.997329,-2.85261,-1.70364)">
		<path class="st19" d="M1739.3,1.1l-32.8,0l-5.5,52.2L1739.3,1.1z"/>
	</g>
	<g transform="matrix(1.00138,0.00032594,-0.000324622,0.997329,-2.85261,-1.70364)">
		<path class="st3" d="M1729.7,122.2l111.3,0c0,0-0.8-0.4-2.3-1.1l-109.5,0L1729.7,122.2z"/>
	</g>
	<g transform="matrix(1.00138,0.00032594,-0.000324622,0.997329,-2.85261,-1.70364)">
		<path class="st3" d="M1729.2,121.1l109.5,0c-17.8-8.9-135.6-67.5-137.7-67.8L1729.2,121.1z"/>
	</g>
	<g transform="matrix(1.00138,0.00032594,-0.000324622,0.997329,-2.85261,-1.70364)">
		<path class="st4" d="M1760.8,82.4l15.1-81.3l-36.6,0L1701,53.3L1760.8,82.4z"/>
	</g>
	<g transform="matrix(1.00138,0.00032594,-0.000324622,0.997329,-2.85261,-1.70364)">
		<path class="st1" d="M1841,122.2l0.7-1.1h-3L1841,122.2z"/>
	</g>
	<g transform="matrix(1.00138,0.00032594,-0.000324622,0.997329,-2.85261,-1.70364)">
		<path class="st1" d="M1760.8,82.4l77.9,38.7h3l53-88.1L1760.8,82.4z"/>
	</g>
	<g transform="matrix(1.00138,0.00032594,-0.000324622,0.997329,-2.85261,-1.70364)">
		<path class="st5" d="M1894.7,33l-34.4-31.9l-84.4,0l-15.1,81.3L1894.7,33z"/>
	</g>
	<g transform="matrix(1.00138,0.00032594,-0.000324622,0.997329,-2.85261,-1.70364)">
		<path class="st20" d="M1919.9,96l-25.2-63l-53,88.1h78.2V96z"/>
	</g>
	<g transform="matrix(1.00138,0.00032594,-0.000324622,0.997329,-2.85261,-1.70364)">
		<path class="st6" d="M1894.7,33l25.3,63V59.1C1906.5,44.8,1895.8,33.6,1894.7,33z"/>
	</g>
	<g transform="matrix(1.00138,0.00032594,-0.000324622,0.997329,-2.85261,-1.70364)">
		<path class="st4" d="M1894.7,33l25.2,26.9V26.2L1894.7,33z"/>
	</g>
	<g transform="matrix(1.00138,0.00032594,-0.000324622,0.997329,-2.85261,-1.70364)">
		<path class="st3" d="M1919.9,26.1l0-25l-3.1,0L1894.7,33L1919.9,26.1z"/>
	</g>
	<g transform="matrix(1.00138,0.00032594,-0.000324622,0.997329,-2.85261,-1.70364)">
		<path class="st21" d="M1916.8,1.1l-56.5,0l34.4,31.9L1916.8,1.1z"/>
	</g>
	<g transform="matrix(1.00138,0.00032594,-0.000324622,0.997329,-2.85261,-1.70364)">
		<path class="st2" d="M307.9,122.2c0.1-0.1,0.7-0.5,1.7-1.1h-1.9C307.7,121.9,307.8,122.3,307.9,122.2z"/>
	</g>
	<g transform="matrix(1.00138,0.00032594,-0.000324622,0.997329,-2.85261,-1.70364)">
		<path class="st2" d="M358.3,1.1l-43,0c-3.7,52.1-7.7,111.2-7.5,120h1.9c11.7-7.7,79.1-52.1,79.1-52.1L358.3,1.1z"/>
	</g>
	<g transform="matrix(1.00138,0.00032594,-0.000324622,0.997329,-2.85261,-1.70364)">
		<path class="st3" d="M307.9,120.7l7.2-119.6l-48.7,0l-29.1,44L307.9,120.7z"/>
	</g>
	<g transform="matrix(1.00138,0.00032594,-0.000324622,0.997329,-2.85261,-1.70364)">
		<path class="st5" d="M308.6,122.9l-1.6-1.8h-5.5L308.6,122.9z"/>
	</g>
	<g transform="matrix(1.00138,0.00032594,-0.000324622,0.997329,-2.85261,-1.70364)">
		<path class="st5" d="M254.7,109.5l46.8,11.6h5.5l-69.7-76L254.7,109.5z"/>
	</g>
	<g transform="matrix(1.00138,0.00032594,-0.000324622,0.997329,-2.85261,-1.70364)">
		<path class="st4" d="M388.7,69l88-35.5l-109.8-13L388.7,69z"/>
	</g>
	<g transform="matrix(1.00138,0.00032594,-0.000324622,0.997329,-2.85261,-1.70364)">
		<path class="st20" d="M1651,122l78.7,0.2l-0.5-1.1l-77.6,0L1651,122z"/>
	</g>
	<g transform="matrix(1.00138,0.00032594,-0.000324622,0.997329,-2.85261,-1.70364)">
		<path class="st20" d="M1651.6,121.1l77.6,0L1701,53.3L1651.6,121.1z"/>
	</g>
	<g transform="matrix(1.00138,0.00032594,-0.000324622,0.997329,-2.85261,-1.70364)">
		<path class="st19" d="M1739.3,1.1l-33.3,0l-5,52.2L1739.3,1.1z"/>
	</g>
	<g transform="matrix(1.00138,0.00032594,-0.000324622,0.997329,-2.85261,-1.70364)">
		<path class="st22" d="M626,122l0.4-0.9h-0.7L626,122z"/>
	</g>
	<g transform="matrix(1.00138,0.00032594,-0.000324622,0.997329,-2.85261,-1.70364)">
		<path class="st22" d="M662,51l36.1-49.9l-92.3,0L662,51z"/>
	</g>
	<g transform="matrix(1.00138,0.00032594,-0.000324622,0.997329,-2.85261,-1.70364)">
		<path class="st22" d="M605.3,1.1l-15.1,0l35.5,120h0.7l34.9-68.9L605.3,1.1z"/>
	</g>
	<g transform="matrix(1.00138,0.00032594,-0.000324622,0.997329,-2.85261,-1.70364)">
		<path class="st22" d="M421.1,119.9l57.6-86.4l-90,35.5L421.1,119.9z"/>
	</g>
	<g transform="matrix(1.00138,0.00032594,-0.000324622,0.997329,-2.85261,-1.70364)">
		<path class="st4" d="M545.7,1.1l-67.6,0l0.6,32.4L545.7,1.1z"/>
	</g>
	<g transform="matrix(1.00138,0.00032594,-0.000324622,0.997329,-2.85261,-1.70364)">
		<path class="st4" d="M478.1,1.1l-46.1,0l46.7,32.4L478.1,1.1z"/>
	</g>
	<g transform="matrix(1.00138,0.00032594,-0.000324622,0.997329,-2.85261,-1.70364)">
		<path class="st23" d="M419.7,122l0.6-0.9h-1.1L419.7,122z"/>
	</g>
	<g transform="matrix(1.00138,0.00032594,-0.000324622,0.997329,-2.85261,-1.70364)">
		<path class="st23" d="M388.7,69l30.5,52.1h1.1l58.4-87.6L388.7,69z"/>
	</g>
</g>
</svg>
