<?xml version="1.0" encoding="UTF-8" standalone="no"?>
<!DOCTYPE svg PUBLIC "-//W3C//DTD SVG 1.1//EN" "http://www.w3.org/Graphics/SVG/1.1/DTD/svg11.dtd">
<svg width="100%" height="100%" viewBox="0 0 10667 2000" version="1.1" xmlns="http://www.w3.org/2000/svg" xmlns:xlink="http://www.w3.org/1999/xlink" xml:space="preserve" xmlns:serif="http://www.serif.com/" style="fill-rule:evenodd;clip-rule:evenodd;stroke-miterlimit:10;">
    <g transform="matrix(4.16667,0,0,4.16667,0,0)">
        <g transform="matrix(1,0,0,1,7.20898,0.0536854)">
            <path d="M1026.8,480.9L1184.9,480.9L1087.9,414.2L1026.8,480.9Z" style="fill:rgb(30,35,43);fill-rule:nonzero;stroke:black;stroke-width:1px;"/>
            <path d="M1087.9,415.1L1184.9,480.9L1134.7,362.9L1087.9,415.1Z" style="fill:rgb(35,36,45);fill-rule:nonzero;stroke:black;stroke-width:1px;"/>
            <path d="M1455.4,481.2L1455.2,480.9L1248,480.9L1455.4,481.2Z" style="fill:rgb(35,40,49);fill-rule:nonzero;stroke:black;stroke-width:1px;"/>
            <path d="M1248,480.9L1455.2,480.9L1341.2,305.9L1248,480.9Z" style="fill:rgb(35,40,49);fill-rule:nonzero;stroke:black;stroke-width:1px;"/>
            <path d="M1134.7,362.9L1254.6,193.1L1172.5,110.6L1134.7,362.9Z" style="fill:rgb(35,40,49);fill-rule:nonzero;stroke:black;stroke-width:1px;"/>
            <g transform="matrix(0.999401,0,0,1.00755,0.65191,-0.835245)">
                <path d="M1187.6,1.2L1087.9,1.2L1172.5,110.6L1187.6,1.2Z" style="fill:rgb(32,38,46);fill-rule:nonzero;stroke:black;stroke-width:1px;"/>
            </g>
            <path d="M1134.7,362.9L1341.2,305.9L1254.6,193.1L1134.7,362.9Z" style="fill:rgb(38,40,49);fill-rule:nonzero;stroke:black;stroke-width:1px;"/>
            <path d="M1184.9,478.7L1341.2,305.9L1134.7,362.9L1184.9,480.9L1248,480.9L1338.6,309.7L1184.9,478.7Z" style="fill:rgb(46,47,57);fill-rule:nonzero;stroke:black;stroke-width:1px;"/>
            <path d="M1341.2,305.9L1444.2,281C1444.2,281 1261.2,196.2 1254.5,193.1L1341.2,305.9Z" style="fill:rgb(35,40,49);fill-rule:nonzero;stroke:black;stroke-width:1px;"/>
            <path d="M1254.6,193.1L1444.3,281L1329.3,182.4C1329.3,182.4 1264.4,187.8 1254.6,193.1Z" style="fill:rgb(46,47,57);fill-rule:nonzero;stroke:black;stroke-width:1px;"/>
            <path d="M1175.3,113.4L1254.6,193.1L1208.6,60L1175.3,113.4Z" style="fill:rgb(32,36,45);fill-rule:nonzero;stroke:black;stroke-width:1px;"/>
            <path d="M1254.6,193.1L1329.3,182.4L1208.6,60L1254.6,193.1Z" style="fill:rgb(43,47,57);fill-rule:nonzero;stroke:black;stroke-width:1px;"/>
            <path d="M1455.4,481.2L1455.4,480.9L1455.2,480.9L1455.4,481.2Z" style="fill:rgb(39,44,53);fill-rule:nonzero;stroke:black;stroke-width:1px;"/>
            <path d="M1341.2,305.9L1455.2,480.9L1455.4,480.9L1444.3,281L1341.2,305.9Z" style="fill:rgb(39,44,53);fill-rule:nonzero;stroke:black;stroke-width:1px;"/>
            <path d="M1455.4,481.2L1493.1,480.9L1455.4,480.9L1455.4,481.2Z" style="fill:rgb(34,39,47);fill-rule:nonzero;stroke:black;stroke-width:1px;"/>
            <path d="M1455.4,480.9L1493.1,480.9L1444.3,281L1455.4,480.9Z" style="fill:rgb(34,39,47);fill-rule:nonzero;stroke:black;stroke-width:1px;"/>
            <path d="M1580.2,481.2L1580,480.9L1493.1,480.9L1580.2,481.2Z" style="fill:rgb(38,40,49);fill-rule:nonzero;stroke:black;stroke-width:1px;"/>
            <path d="M1493.1,480.9L1580,480.9L1444.9,283.5L1493.1,480.9Z" style="fill:rgb(38,40,49);fill-rule:nonzero;stroke:black;stroke-width:1px;"/>
            <g transform="matrix(1.02141,0,0,1.01412,-25.8758,-0.847422)">
                <path d="M1460.3,1.2L1248,1.2L1208.6,60L1460.3,1.2Z" style="fill:rgb(38,40,49);fill-rule:nonzero;stroke:black;stroke-width:1px;"/>
            </g>
            <path d="M1512.5,79.4L1465.2,1.2L1208.6,60L1512.5,79.4Z" style="fill:rgb(35,40,49);fill-rule:nonzero;stroke:black;stroke-width:1px;"/>
            <path d="M1329.3,182.4L1410.1,72.8L1208.6,60L1329.3,182.4Z" style="fill:rgb(41,41,49);fill-rule:nonzero;stroke:black;stroke-width:1px;"/>
            <path d="M1329.3,181.1L1512.5,78.1L1410.1,73.6L1329.3,181.1Z" style="fill:rgb(34,35,45);fill-rule:nonzero;stroke:black;stroke-width:1px;"/>
            <path d="M1444.3,281L1455.4,111.5L1329.3,182.4L1444.3,281Z" style="fill:rgb(37,39,49);fill-rule:nonzero;stroke:black;stroke-width:1px;"/>
            <path d="M1455.4,111.5L1660.6,182.4L1512.5,79.4L1455.4,111.5Z" style="fill:rgb(34,35,45);fill-rule:nonzero;stroke:black;stroke-width:1px;"/>
            <path d="M1444.3,281L1560.9,148L1455.4,111.5L1444.3,281Z" style="fill:rgb(30,35,46);fill-rule:nonzero;stroke:black;stroke-width:1px;"/>
            <path d="M1487.5,231.7L1660.6,182.4L1560.9,148L1487.5,231.7Z" style="fill:rgb(36,38,47);fill-rule:nonzero;stroke:black;stroke-width:1px;"/>
            <path d="M1498.5,0.3L1465.2,0.3L1465.7,1.2L1498.6,1.2L1498.5,0.3Z" style="fill:rgb(30,32,40);fill-rule:nonzero;stroke:black;stroke-width:1px;"/>
            <path d="M1582.1,1.2L1582.9,0.3L1498.5,0.3L1498.6,1.2L1582.1,1.2Z" style="fill:rgb(30,32,40);fill-rule:nonzero;stroke:black;stroke-width:1px;"/>
            <path d="M1512.5,78.5L1582.1,1.2L1498.6,1.2L1512.5,78.5Z" style="fill:rgb(30,32,40);fill-rule:nonzero;stroke:black;stroke-width:1px;"/>
            <path d="M1498.6,1.2L1465.7,1.2L1510.8,75.6L1498.6,1.2Z" style="fill:rgb(30,32,40);fill-rule:nonzero;stroke:black;stroke-width:1px;"/>
            <path d="M1618.4,55.9L1582.9,1.2L1512.5,79.4L1618.4,55.9Z" style="fill:rgb(35,40,49);fill-rule:nonzero;stroke:black;stroke-width:1px;"/>
            <path d="M1512.5,79.4L1660.6,182.4L1618.4,55.9L1512.5,79.4Z" style="fill:rgb(34,35,45);fill-rule:nonzero;stroke:black;stroke-width:1px;"/>
            <path d="M1468.7,318.3L1657.9,275.3L1444.3,281L1468.7,318.3Z" style="fill:rgb(46,47,57);fill-rule:nonzero;stroke:black;stroke-width:1px;"/>
            <path d="M1539.7,422.1L1657.9,275.3L1468.7,318.3L1539.7,422.1Z" style="fill:rgb(46,47,57);fill-rule:nonzero;stroke:black;stroke-width:1px;"/>
            <path d="M1444.3,281L1594.6,201.2L1487.5,231.7L1444.3,281Z" style="fill:rgb(36,38,47);fill-rule:nonzero;stroke:black;stroke-width:1px;"/>
            <path d="M1543.8,278L1594.6,201.2L1444.3,281L1543.8,278Z" style="fill:rgb(34,35,45);fill-rule:nonzero;stroke:black;stroke-width:1px;"/>
            <path d="M1543.8,278L1657.9,275.3L1594.6,201.2L1543.8,278Z" style="fill:rgb(34,35,45);fill-rule:nonzero;stroke:black;stroke-width:1px;"/>
            <path d="M1657.9,275.3L1660.6,182.4L1594.6,201.2L1657.9,275.3Z" style="fill:rgb(35,40,49);fill-rule:nonzero;stroke:black;stroke-width:1px;"/>
            <path d="M1571.7,382.4L1582.9,292.4L1468.7,318.3L1571.7,382.4Z" style="fill:rgb(34,39,47);fill-rule:nonzero;stroke:black;stroke-width:1px;"/>
            <path d="M1580.2,481.2L1580.3,480.9L1580,480.9L1580.2,481.2Z" style="fill:rgb(43,47,57);fill-rule:nonzero;stroke:black;stroke-width:1px;"/>
            <path d="M1539.7,422.1L1580,480.9L1580.3,480.9L1657.9,275.3L1539.7,422.1Z" style="fill:rgb(43,47,57);fill-rule:nonzero;stroke:black;stroke-width:1px;"/>
            <g transform="matrix(1.0005,0,0,1.01342,-0.796753,-0.750319)">
                <path d="M1641.5,1.2L1582.9,1.2L1618.4,55.9L1641.5,1.2Z" style="fill:rgb(234,113,31);fill-rule:nonzero;stroke:black;stroke-width:1px;"/>
            </g>
            <g transform="matrix(0.999753,0,0,1.01479,0.399846,-0.8269)">
                <path d="M1690.3,1.2L1641.5,1.2L1618.4,55.9L1690.3,1.2Z" style="fill:rgb(35,40,49);fill-rule:nonzero;stroke:black;stroke-width:1px;"/>
            </g>
            <g transform="matrix(1.0001,0,0,1.01496,-0.160296,-0.836115)">
                <path d="M1851.6,1.2L1690.3,1.2L1618.4,55.9L1851.6,1.2Z" style="fill:rgb(43,47,57);fill-rule:nonzero;stroke:black;stroke-width:1px;"/>
            </g>
            <path d="M1880.9,77.6L1851.6,1.2L1618.4,55.9L1880.9,77.6Z" style="fill:rgb(43,47,57);fill-rule:nonzero;stroke:black;stroke-width:1px;"/>
            <path d="M1660.6,182.4L1880.9,77.6L1618.4,55.9L1660.6,182.4Z" style="fill:rgb(37,39,49);fill-rule:nonzero;stroke:black;stroke-width:1px;"/>
            <path d="M1657.9,275.3L1832.5,174.9L1660.6,182.4L1657.9,275.3Z" style="fill:rgb(36,38,47);fill-rule:nonzero;stroke:black;stroke-width:1px;"/>
            <path d="M1832.5,174.9L1880.9,77.6L1660.6,182.4L1832.5,174.9Z" style="fill:rgb(34,35,45);fill-rule:nonzero;stroke:black;stroke-width:1px;"/>
            <path d="M1612.2,396.5L1731.2,321.5L1660.6,275.3L1731.2,321.5L1832.5,174.9L1657.9,275.3L1612.2,396.5Z" style="fill:rgb(35,35,45);fill-rule:nonzero;stroke:black;stroke-width:1px;"/>
            <path d="M1580.2,481.2L1580.5,480.9L1580.3,480.9L1580.2,481.2Z" style="fill:rgb(43,47,57);fill-rule:nonzero;stroke:black;stroke-width:1px;"/>
            <path d="M1612.2,396.5L1580.3,480.9L1580.5,480.9L1731.2,321.5L1612.2,396.5Z" style="fill:rgb(43,47,57);fill-rule:nonzero;stroke:black;stroke-width:1px;"/>
            <path d="M1580.2,481.2L1644.2,480.9L1580.5,480.9L1580.2,481.2Z" style="fill:rgb(38,40,49);fill-rule:nonzero;stroke:black;stroke-width:1px;"/>
            <path d="M1580.5,480.9L1644.2,480.9L1731.2,321.5L1580.5,480.9Z" style="fill:rgb(38,40,49);fill-rule:nonzero;stroke:black;stroke-width:1px;"/>
            <path d="M1774.7,481.2L1774.6,480.9L1644.2,480.9L1774.7,481.2Z" style="fill:rgb(30,35,46);fill-rule:nonzero;stroke:black;stroke-width:1px;"/>
            <path d="M1644.2,480.9L1774.6,480.9L1731.2,321.5L1644.2,480.9Z" style="fill:rgb(30,35,46);fill-rule:nonzero;stroke:black;stroke-width:1px;"/>
            <path d="M1774.7,481.2L1775,480.9L1774.6,480.9L1774.7,481.2Z" style="fill:rgb(29,31,40);fill-rule:nonzero;stroke:black;stroke-width:1px;"/>
            <path d="M1731.2,321.5L1774.6,480.9L1775,480.9L1872.9,337.4L1731.2,321.5Z" style="fill:rgb(29,31,40);fill-rule:nonzero;stroke:black;stroke-width:1px;"/>
            <path d="M1731.2,321.5L1872.9,337.4L1832.5,174.9L1731.2,321.5Z" style="fill:rgb(234,113,31);fill-rule:nonzero;stroke:black;stroke-width:1px;"/>
            <path d="M1774.7,481.2L1860.9,481.2L1860.9,480.9L1775,480.9L1774.7,481.2Z" style="fill:rgb(35,35,45);fill-rule:nonzero;stroke:black;stroke-width:1px;"/>
            <path d="M1775,480.9L1860.9,480.9L1872.9,337.4L1775,480.9Z" style="fill:rgb(35,35,45);fill-rule:nonzero;stroke:black;stroke-width:1px;"/>
            <path d="M1860.9,481.2L1861.2,480.9L1860.9,480.9L1860.9,481.2Z" style="fill:rgb(38,40,49);fill-rule:nonzero;stroke:black;stroke-width:1px;"/>
            <path d="M1872.9,337.4L1860.9,480.9L1861.2,480.9L2011.9,305.9L1872.9,337.4Z" style="fill:rgb(38,40,49);fill-rule:nonzero;stroke:black;stroke-width:1px;"/>
            <path d="M1860.9,481.2L1942.6,481.2L1942.8,480.9L1861.2,480.9L1860.9,481.2Z" style="fill:rgb(43,47,57);fill-rule:nonzero;stroke:black;stroke-width:1px;"/>
            <path d="M1861.2,480.9L1942.8,480.9L2011.9,305.9L1861.2,480.9Z" style="fill:rgb(43,47,57);fill-rule:nonzero;stroke:black;stroke-width:1px;"/>
            <path d="M1942.6,481.2L2197.6,480.9L1942.8,480.9L1942.6,481.2Z" style="fill:rgb(29,31,40);fill-rule:nonzero;stroke:black;stroke-width:1px;"/>
            <path d="M1942.8,480.9L2197.6,480.9L2011.9,305.9L1942.8,480.9Z" style="fill:rgb(29,31,40);fill-rule:nonzero;stroke:black;stroke-width:1px;"/>
            <path d="M1872.9,337.4L2011.9,305.9L1832.5,174.9L1872.9,337.4Z" style="fill:rgb(37,42,51);fill-rule:nonzero;stroke:black;stroke-width:1px;"/>
            <g transform="matrix(1,0,0,1.0101,0,-0.784097)">
                <path d="M1946.6,1.2L1851.6,1.2L1880.9,77.6L1946.6,1.2Z" style="fill:rgb(35,40,49);fill-rule:nonzero;stroke:black;stroke-width:1px;"/>
            </g>
            <path d="M2100.3,-0.1L1946.6,-0.1L1945.5,1.2L2096.4,1.2L2100.3,-0.1Z" style="fill:rgb(30,34,41);fill-rule:nonzero;stroke:black;stroke-width:1px;"/>
            <g transform="matrix(1.01145,0,0,1.01085,-22.0772,-0.0640586)">
                <path d="M2096.4,1.2L1945.5,1.2L1883.5,75.4L2096.4,1.2Z" style="fill:rgb(30,34,41);fill-rule:nonzero;stroke:black;stroke-width:1px;"/>
            </g>
            <path d="M1880.9,76.3L1881.6,77.6L1883.5,75.4L1882.9,75.6L1880.9,76.3Z" style="fill:rgb(30,34,41);fill-rule:nonzero;stroke:black;stroke-width:1px;"/>
            <path d="M1832.5,173.5L2011.9,304.6L1881.6,77.6L1880.9,78.5L1832.5,173.5Z" style="fill:rgb(30,34,41);fill-rule:nonzero;stroke:black;stroke-width:1px;"/>
            <g transform="matrix(1.01069,0,0,1,-21.3517,0)">
                <path d="M1942.6,187.3C1943.8,187.2 1998.1,36.8 1998.1,36.8L1882.8,76.9L1942.6,187.3Z" style="fill:rgb(37,39,49);fill-rule:nonzero;stroke:black;stroke-width:1px;"/>
            </g>
            <path d="M2011.9,305.9L2054.6,201.1L1942.6,187.3L2011.9,305.9Z" style="fill:rgb(37,42,51);fill-rule:nonzero;stroke:black;stroke-width:1px;"/>
            <path d="M1942.6,185.2L2100.3,1.2L1998.2,36.8L1942.6,185.2Z" style="fill:rgb(34,35,45);fill-rule:nonzero;stroke:black;stroke-width:1px;"/>
            <path d="M2054.6,202.1L2100.3,2.2L1942.6,186.2L2054.6,202.1Z" style="fill:rgb(38,40,49);fill-rule:nonzero;stroke:black;stroke-width:1px;"/>
            <path d="M2273.5,83.8C2273.5,83.8 2102.5,1.2 2100.3,1.2L2084.1,71.9L2273.5,83.8Z" style="fill:rgb(30,34,41);fill-rule:nonzero;stroke:black;stroke-width:1px;"/>
            <g transform="matrix(0.999818,0,0,1.02348,0.383285,-0.751217)">
                <path d="M2302.4,1.2L2100.3,1.2L2165.7,32L2302.4,1.2Z" style="fill:rgb(34,35,45);fill-rule:nonzero;stroke:black;stroke-width:1px;"/>
            </g>
            <path d="M2273.5,83.8L2302.4,1.2L2165.7,32L2273.5,83.8Z" style="fill:rgb(34,35,45);fill-rule:nonzero;stroke:black;stroke-width:1px;"/>
            <path d="M2054.6,201.1L2178.8,77.9L2084.1,71.9L2054.6,201.1Z" style="fill:rgb(34,35,45);fill-rule:nonzero;stroke:black;stroke-width:1px;"/>
            <path d="M2054.6,201.1L2254,148.7L2178.8,77.9L2054.6,201.1Z" style="fill:rgb(37,39,49);fill-rule:nonzero;stroke:black;stroke-width:1px;"/>
            <path d="M2054.6,201.1L2281.5,207.8L2254,148.7L2054.6,201.1Z" style="fill:rgb(48,50,60);fill-rule:nonzero;stroke:black;stroke-width:1px;"/>
            <path d="M2011.9,305.9L2264.2,389.4L2054.6,201.1L2011.9,305.9Z" style="fill:rgb(40,42,51);fill-rule:nonzero;stroke:black;stroke-width:1px;"/>
            <path d="M2121,260.8L2281.5,207.8L2054.6,201.1L2121,260.8Z" style="fill:rgb(38,40,49);fill-rule:nonzero;stroke:black;stroke-width:1px;"/>
            <path d="M2214.4,344.7L2281.5,207.8L2121,260.8L2214.4,344.7Z" style="fill:rgb(35,40,49);fill-rule:nonzero;stroke:black;stroke-width:1px;"/>
            <path d="M2011.9,305.9L2197.6,480.9L2264.2,389.4L2011.9,305.9Z" style="fill:rgb(46,47,57);fill-rule:nonzero;stroke:black;stroke-width:1px;"/>
            <path d="M2254,148.7L2273.5,83.8L2178.8,77.9L2254,148.7Z" style="fill:rgb(34,35,45);fill-rule:nonzero;stroke:black;stroke-width:1px;"/>
            <path d="M2337.5,83.8C2337.5,83.8 2305.1,1.2 2302.4,1.2L2273.5,83.8L2337.5,83.8Z" style="fill:rgb(46,47,57);fill-rule:nonzero;stroke:black;stroke-width:1px;"/>
            <g transform="matrix(1,0,0,1.00937,0,-0.785325)">
                <path d="M2447.6,1.2L2302.4,1.2L2337.5,83.8L2447.6,1.2Z" style="fill:rgb(35,40,49);fill-rule:nonzero;stroke:black;stroke-width:1px;"/>
            </g>
            <path d="M2254,148.7L2337.5,83.8L2273.5,83.8L2254,148.7Z" style="fill:rgb(34,35,45);fill-rule:nonzero;stroke:black;stroke-width:1px;"/>
            <path d="M2281.5,207.8L2337.5,83.8L2254,148.7L2281.5,207.8Z" style="fill:rgb(34,35,45);fill-rule:nonzero;stroke:black;stroke-width:1px;"/>
            <path d="M2264.2,389.4L2281.5,207.8L2214.4,344.7L2264.2,389.4Z" style="fill:rgb(234,113,31);fill-rule:nonzero;stroke:black;stroke-width:1px;"/>
            <path d="M2264.2,389.4L2380.6,230.9L2283.4,208.2L2264.2,389.4Z" style="fill:rgb(37,39,49);fill-rule:nonzero;stroke:black;stroke-width:1px;"/>
            <g transform="matrix(1.00886,0,0,1.00554,-20.7212,-0.623336)">
                <path d="M2537.3,93.2L2447.6,1.2L2337.5,83.8L2537.3,93.2Z" style="fill:rgb(43,47,57);fill-rule:nonzero;stroke:black;stroke-width:1px;"/>
            </g>
            <path d="M2365.1,178.2L2537.3,93.2L2337.5,83.8L2365.1,178.2Z" style="fill:rgb(34,35,45);fill-rule:nonzero;stroke:black;stroke-width:1px;"/>
            <path d="M2380.6,230.9L2539.6,93.2L2365.1,178.2L2380.6,230.9Z" style="fill:rgb(30,34,41);fill-rule:nonzero;stroke:black;stroke-width:1px;"/>
            <path d="M2302.4,481.2L2450.7,481.2C2450.7,481.2 2450.5,481.1 2450,480.9L2302.2,480.9L2302.4,481.2Z" style="fill:rgb(35,40,49);fill-rule:nonzero;stroke:black;stroke-width:1px;"/>
            <path d="M2302.3,480.9L2450.1,480.9C2438.4,475.1 2267.2,389.8 2264.2,389.4L2302.3,480.9Z" style="fill:rgb(35,40,49);fill-rule:nonzero;stroke:black;stroke-width:1px;"/>
            <path d="M2343.9,428.2L2380.6,230.9L2264.2,389.4L2343.9,428.2Z" style="fill:rgb(46,47,57);fill-rule:nonzero;stroke:black;stroke-width:1px;"/>
            <path d="M2450.7,481.2L2450.9,480.9L2450.1,480.9L2450.7,481.2Z" style="fill:rgb(234,113,31);fill-rule:nonzero;stroke:black;stroke-width:1px;"/>
            <path d="M2343.9,428.2L2450.1,480.9L2450.9,480.9L2522.2,362.3L2343.9,428.2Z" style="fill:rgb(43,47,57);fill-rule:nonzero;stroke:black;stroke-width:1px;"/>
            <path d="M2343.9,428.2L2522.2,362.3L2380.6,230.9L2343.9,428.2Z" style="fill:rgb(34,35,45);fill-rule:nonzero;stroke:black;stroke-width:1px;"/>
            <path d="M2560,456.5L2522.2,362.3L2450.9,480.9L2560,480.9L2560,456.5Z" style="fill:rgb(36,38,47);fill-rule:nonzero;stroke:black;stroke-width:1px;"/>
            <path d="M2522.2,362.3L2560,456.5L2560,401.5C2540.3,380.4 2523.9,363.2 2522.2,362.3Z" style="fill:rgb(43,47,57);fill-rule:nonzero;stroke:black;stroke-width:1px;"/>
            <path d="M2522.2,362.3L2560,402.6L2560,352.1L2522.2,362.3Z" style="fill:rgb(46,47,57);fill-rule:nonzero;stroke:black;stroke-width:1px;"/>
            <path d="M2560,352L2560,307.9L2522.2,362.3L2560,352Z" style="fill:rgb(35,40,49);fill-rule:nonzero;stroke:black;stroke-width:1px;"/>
            <path d="M2560,113.9L2560,31L2539.6,93.2L2560,113.9Z" style="fill:none;fill-rule:nonzero;stroke:black;stroke-width:2px;"/>
            <g transform="matrix(1,0,0,1.00777,0,-0.723788)">
                <path d="M2560,31L2560,1.2L2447.6,1.2L2539.6,93.2L2560,31Z" style="fill:rgb(32,36,45);fill-rule:nonzero;stroke:black;stroke-width:1px;"/>
            </g>
            <path d="M2460.1,304.7L2539.6,93.2L2380.6,230.9L2460.1,304.7Z" style="fill:rgb(234,113,31);fill-rule:nonzero;stroke:black;stroke-width:1px;"/>
            <path d="M2460.1,304.7L2560,242.9L2560,113.9L2539.6,93.2L2460.1,304.7Z" style="fill:rgb(34,35,45);fill-rule:nonzero;stroke:black;stroke-width:1px;"/>
            <path d="M2522.2,362.3L2560,307.9L2560,242.9L2460.1,304.7L2522.2,362.3Z" style="fill:rgb(38,44,53);fill-rule:nonzero;stroke:black;stroke-width:1px;"/>
            <path d="M2302.4,481.2L2302.3,480.9L2197.6,480.9L2302.4,481.2Z" style="fill:rgb(36,38,47);fill-rule:nonzero;stroke:black;stroke-width:1px;"/>
            <path d="M2197.6,480.9L2302.3,480.9L2264.2,389.4L2197.6,480.9Z" style="fill:rgb(36,38,47);fill-rule:nonzero;stroke:black;stroke-width:1px;"/>
            <path d="M2560,115.6L2560,25.7L2537.3,93.2L2560,115.6Z" style="fill:rgb(35,40,49);fill-rule:nonzero;stroke:black;stroke-width:1px;"/>
            <path d="M2281.5,207.8C2283.4,208.2 2380.5,231 2380.5,231L2337.4,83.9C2337.5,83.8 2279.6,207.3 2281.5,207.8Z" style="fill:rgb(37,39,49);fill-rule:nonzero;stroke:black;stroke-width:1px;"/>
            <path d="M2264.2,389.4L2380.6,230.9L2281.5,207.8L2264.2,389.4Z" style="fill:rgb(37,39,49);fill-rule:nonzero;stroke:black;stroke-width:1px;"/>
            <path d="M1498.5,0.3L1465.2,1.2L1498.6,1.2L1498.5,0.3Z" style="fill:rgb(30,32,40);fill-rule:nonzero;stroke:black;stroke-width:1px;"/>
            <path d="M1498.6,1.2L1465.2,1.2L1512.5,78.1L1498.6,1.2Z" style="fill:rgb(30,32,40);fill-rule:nonzero;stroke:black;stroke-width:1px;"/>
            <path d="M1207.9,61.1L1207.1,62.3L1174.7,110.6L1207.9,61.1Z" style="fill:rgb(43,47,57);fill-rule:nonzero;stroke:black;stroke-width:1px;"/>
            <path d="M1207.1,62.3L1248,1.2L1187.6,1.2L1172.5,110.6L1207.1,62.3Z" style="fill:rgb(43,47,57);fill-rule:nonzero;stroke:black;stroke-width:1px;"/>
            <g transform="matrix(1.01349,0,0,1.01401,-15.8034,-1.6705)">
                <path d="M1247.4,2.1L1187.6,1.2L1171.2,119.2L1247.4,2.1Z" style="fill:rgb(43,47,57);fill-rule:nonzero;stroke:black;stroke-width:1px;"/>
            </g>
        </g>
        <g transform="matrix(-1,0,0,1,2553.67,-0.848203)">
            <path d="M1026.8,480.9L1184.9,480.9L1087.9,414.2L1026.8,480.9Z" style="fill:rgb(30,35,43);fill-rule:nonzero;stroke:black;stroke-width:1px;"/>
            <path d="M1087.9,415.1L1184.9,480.9L1134.7,362.9L1087.9,415.1Z" style="fill:rgb(35,36,45);fill-rule:nonzero;stroke:black;stroke-width:1px;"/>
            <path d="M1455.4,481.2L1455.2,480.9L1248,480.9L1455.4,481.2Z" style="fill:rgb(35,40,49);fill-rule:nonzero;stroke:black;stroke-width:1px;"/>
            <path d="M1248,480.9L1455.2,480.9L1341.2,305.9L1248,480.9Z" style="fill:rgb(35,40,49);fill-rule:nonzero;stroke:black;stroke-width:1px;"/>
            <path d="M1134.7,362.9L1254.6,193.1L1172.5,110.6L1134.7,362.9Z" style="fill:rgb(35,40,49);fill-rule:nonzero;stroke:black;stroke-width:1px;"/>
            <g transform="matrix(0.999401,0,0,1.00755,0.65191,-0.835245)">
                <path d="M1187.6,1.2L1087.9,1.2L1172.5,110.6L1187.6,1.2Z" style="fill:rgb(32,38,46);fill-rule:nonzero;stroke:black;stroke-width:1px;"/>
            </g>
            <path d="M1134.7,362.9L1341.2,305.9L1254.6,193.1L1134.7,362.9Z" style="fill:rgb(38,40,49);fill-rule:nonzero;stroke:black;stroke-width:1px;"/>
            <path d="M1184.9,478.7L1341.2,305.9L1134.7,362.9L1184.9,480.9L1248,480.9L1338.6,309.7L1184.9,478.7Z" style="fill:rgb(46,47,57);fill-rule:nonzero;stroke:black;stroke-width:1px;"/>
            <path d="M1341.2,305.9L1444.2,281C1444.2,281 1261.2,196.2 1254.5,193.1L1341.2,305.9Z" style="fill:rgb(35,40,49);fill-rule:nonzero;stroke:black;stroke-width:1px;"/>
            <path d="M1254.6,193.1L1444.3,281L1329.3,182.4C1329.3,182.4 1264.4,187.8 1254.6,193.1Z" style="fill:rgb(46,47,57);fill-rule:nonzero;stroke:black;stroke-width:1px;"/>
            <path d="M1175.3,113.4L1254.6,193.1L1208.6,60L1175.3,113.4Z" style="fill:rgb(32,36,45);fill-rule:nonzero;stroke:black;stroke-width:1px;"/>
            <path d="M1254.6,193.1L1329.3,182.4L1208.6,60L1254.6,193.1Z" style="fill:rgb(43,47,57);fill-rule:nonzero;stroke:black;stroke-width:1px;"/>
            <path d="M1455.4,481.2L1455.4,480.9L1455.2,480.9L1455.4,481.2Z" style="fill:rgb(39,44,53);fill-rule:nonzero;stroke:black;stroke-width:1px;"/>
            <path d="M1341.2,305.9L1455.2,480.9L1455.4,480.9L1444.3,281L1341.2,305.9Z" style="fill:rgb(39,44,53);fill-rule:nonzero;stroke:black;stroke-width:1px;"/>
            <path d="M1455.4,481.2L1493.1,480.9L1455.4,480.9L1455.4,481.2Z" style="fill:rgb(34,39,47);fill-rule:nonzero;stroke:black;stroke-width:1px;"/>
            <path d="M1455.4,480.9L1493.1,480.9L1444.3,281L1455.4,480.9Z" style="fill:rgb(34,39,47);fill-rule:nonzero;stroke:black;stroke-width:1px;"/>
            <path d="M1580.2,481.2L1580,480.9L1493.1,480.9L1580.2,481.2Z" style="fill:rgb(38,40,49);fill-rule:nonzero;stroke:black;stroke-width:1px;"/>
            <path d="M1493.1,480.9L1580,480.9L1444.9,283.5L1493.1,480.9Z" style="fill:rgb(38,40,49);fill-rule:nonzero;stroke:black;stroke-width:1px;"/>
            <g transform="matrix(1.02141,0,0,1.01412,-25.8758,-0.847422)">
                <path d="M1460.3,1.2L1248,1.2L1208.6,60L1460.3,1.2Z" style="fill:rgb(38,40,49);fill-rule:nonzero;stroke:black;stroke-width:1px;"/>
            </g>
            <path d="M1512.5,79.4L1465.2,1.2L1208.6,60L1512.5,79.4Z" style="fill:rgb(35,40,49);fill-rule:nonzero;stroke:black;stroke-width:1px;"/>
            <path d="M1329.3,182.4L1410.1,72.8L1208.6,60L1329.3,182.4Z" style="fill:rgb(41,41,49);fill-rule:nonzero;stroke:black;stroke-width:1px;"/>
            <path d="M1329.3,181.1L1512.5,78.1L1410.1,73.6L1329.3,181.1Z" style="fill:rgb(34,35,45);fill-rule:nonzero;stroke:black;stroke-width:1px;"/>
            <path d="M1444.3,281L1455.4,111.5L1329.3,182.4L1444.3,281Z" style="fill:rgb(43,47,57);fill-rule:nonzero;stroke:black;stroke-width:1.5px;"/>
            <path d="M1455.4,111.5L1660.6,182.4L1512.5,79.4L1455.4,111.5Z" style="fill:rgb(34,35,45);fill-rule:nonzero;stroke:black;stroke-width:1.5px;"/>
            <path d="M1444.3,281L1560.9,148L1455.4,111.5L1444.3,281Z" style="fill:rgb(30,35,46);fill-rule:nonzero;stroke:black;stroke-width:1px;"/>
            <path d="M1487.5,231.7L1660.6,182.4L1560.9,148L1487.5,231.7Z" style="fill:rgb(36,38,47);fill-rule:nonzero;stroke:black;stroke-width:1px;"/>
            <path d="M1498.5,0.3L1465.2,0.3L1465.7,1.2L1498.6,1.2L1498.5,0.3Z" style="fill:rgb(30,32,40);fill-rule:nonzero;stroke:black;stroke-width:1px;"/>
            <path d="M1582.1,1.2L1582.9,0.3L1498.5,0.3L1498.6,1.2L1582.1,1.2Z" style="fill:rgb(30,32,40);fill-rule:nonzero;stroke:black;stroke-width:1px;"/>
            <path d="M1512.5,78.5L1582.1,1.2L1498.6,1.2L1512.5,78.5Z" style="fill:rgb(30,32,40);fill-rule:nonzero;stroke:black;stroke-width:1px;"/>
            <path d="M1498.6,1.2L1465.7,1.2L1510.8,75.6L1498.6,1.2Z" style="fill:rgb(30,32,40);fill-rule:nonzero;stroke:black;stroke-width:1px;"/>
            <path d="M1618.4,55.9L1582.9,1.2L1512.5,79.4L1618.4,55.9Z" style="fill:rgb(35,40,49);fill-rule:nonzero;stroke:black;stroke-width:1px;"/>
            <path d="M1512.5,79.4L1660.6,182.4L1618.4,55.9L1512.5,79.4Z" style="fill:rgb(34,35,45);fill-rule:nonzero;stroke:black;stroke-width:1px;"/>
            <path d="M1468.7,318.3L1657.9,275.3L1444.3,281L1468.7,318.3Z" style="fill:rgb(46,47,57);fill-rule:nonzero;stroke:black;stroke-width:1px;"/>
            <path d="M1539.7,422.1L1657.9,275.3L1468.7,318.3L1539.7,422.1Z" style="fill:rgb(46,47,57);fill-rule:nonzero;stroke:black;stroke-width:1px;"/>
            <path d="M1444.3,281L1594.6,201.2L1487.5,231.7L1444.3,281Z" style="fill:rgb(36,38,47);fill-rule:nonzero;stroke:black;stroke-width:1px;"/>
            <path d="M1543.8,278L1594.6,201.2L1444.3,281L1543.8,278Z" style="fill:rgb(34,35,45);fill-rule:nonzero;stroke:black;stroke-width:1px;"/>
            <path d="M1543.8,278L1657.9,275.3L1594.6,201.2L1543.8,278Z" style="fill:rgb(34,35,45);fill-rule:nonzero;stroke:black;stroke-width:1px;"/>
            <path d="M1657.9,275.3L1660.6,182.4L1594.6,201.2L1657.9,275.3Z" style="fill:rgb(35,40,49);fill-rule:nonzero;stroke:black;stroke-width:1px;"/>
            <path d="M1571.7,382.4L1582.9,292.4L1468.7,318.3L1571.7,382.4Z" style="fill:rgb(34,39,47);fill-rule:nonzero;stroke:black;stroke-width:1px;"/>
            <path d="M1580.2,481.2L1580.3,480.9L1580,480.9L1580.2,481.2Z" style="fill:rgb(43,47,57);fill-rule:nonzero;stroke:black;stroke-width:1px;"/>
            <path d="M1539.7,422.1L1580,480.9L1580.3,480.9L1657.9,275.3L1539.7,422.1Z" style="fill:rgb(43,47,57);fill-rule:nonzero;stroke:black;stroke-width:1px;"/>
            <g transform="matrix(1.0005,0,0,1.01342,-0.796753,-0.750319)">
                <path d="M1641.5,1.2L1582.9,1.2L1618.4,55.9L1641.5,1.2Z" style="fill:rgb(234,113,31);fill-rule:nonzero;stroke:black;stroke-width:1px;"/>
            </g>
            <g transform="matrix(0.999753,0,0,1.01479,0.399846,-0.8269)">
                <path d="M1690.3,1.2L1641.5,1.2L1618.4,55.9L1690.3,1.2Z" style="fill:rgb(35,40,49);fill-rule:nonzero;stroke:black;stroke-width:1px;"/>
            </g>
            <g transform="matrix(1.0001,0,0,1.01496,-0.160296,-0.836115)">
                <path d="M1851.6,1.2L1690.3,1.2L1618.4,55.9L1851.6,1.2Z" style="fill:rgb(43,47,57);fill-rule:nonzero;stroke:black;stroke-width:1px;"/>
            </g>
            <path d="M1880.9,77.6L1851.6,1.2L1618.4,55.9L1880.9,77.6Z" style="fill:rgb(43,47,57);fill-rule:nonzero;stroke:black;stroke-width:1px;"/>
            <path d="M1660.6,182.4L1880.9,77.6L1618.4,55.9L1660.6,182.4Z" style="fill:rgb(37,39,49);fill-rule:nonzero;stroke:black;stroke-width:1px;"/>
            <path d="M1657.9,275.3L1832.5,174.9L1660.6,182.4L1657.9,275.3Z" style="fill:rgb(36,38,47);fill-rule:nonzero;stroke:black;stroke-width:1px;"/>
            <path d="M1832.5,174.9L1880.9,77.6L1660.6,182.4L1832.5,174.9Z" style="fill:rgb(34,35,45);fill-rule:nonzero;stroke:black;stroke-width:1px;"/>
            <path d="M1612.2,396.5L1731.2,321.5L1660.6,275.3L1731.2,321.5L1832.5,174.9L1657.9,275.3L1612.2,396.5Z" style="fill:rgb(35,35,45);fill-rule:nonzero;stroke:black;stroke-width:1px;"/>
            <path d="M1580.2,481.2L1580.5,480.9L1580.3,480.9L1580.2,481.2Z" style="fill:rgb(43,47,57);fill-rule:nonzero;stroke:black;stroke-width:1px;"/>
            <path d="M1612.2,396.5L1580.3,480.9L1580.5,480.9L1731.2,321.5L1612.2,396.5Z" style="fill:rgb(43,47,57);fill-rule:nonzero;stroke:black;stroke-width:1px;"/>
            <path d="M1580.2,481.2L1644.2,480.9L1580.5,480.9L1580.2,481.2Z" style="fill:rgb(38,40,49);fill-rule:nonzero;stroke:black;stroke-width:1px;"/>
            <path d="M1580.5,480.9L1644.2,480.9L1731.2,321.5L1580.5,480.9Z" style="fill:rgb(38,40,49);fill-rule:nonzero;stroke:black;stroke-width:1px;"/>
            <path d="M1774.7,481.2L1774.6,480.9L1644.2,480.9L1774.7,481.2Z" style="fill:rgb(30,35,46);fill-rule:nonzero;stroke:black;stroke-width:1px;"/>
            <path d="M1644.2,480.9L1774.6,480.9L1731.2,321.5L1644.2,480.9Z" style="fill:rgb(30,35,46);fill-rule:nonzero;stroke:black;stroke-width:1px;"/>
            <path d="M1774.7,481.2L1775,480.9L1774.6,480.9L1774.7,481.2Z" style="fill:rgb(29,31,40);fill-rule:nonzero;stroke:black;stroke-width:1px;"/>
            <path d="M1731.2,321.5L1774.6,480.9L1775,480.9L1872.9,337.4L1731.2,321.5Z" style="fill:rgb(29,31,40);fill-rule:nonzero;stroke:black;stroke-width:1px;"/>
            <path d="M1731.2,321.5L1872.9,337.4L1832.5,174.9L1731.2,321.5Z" style="fill:rgb(234,113,31);fill-rule:nonzero;stroke:black;stroke-width:1px;"/>
            <path d="M1774.7,481.2L1860.9,481.2L1860.9,480.9L1775,480.9L1774.7,481.2Z" style="fill:rgb(35,35,45);fill-rule:nonzero;stroke:black;stroke-width:1px;"/>
            <path d="M1775,480.9L1860.9,480.9L1872.9,337.4L1775,480.9Z" style="fill:rgb(35,35,45);fill-rule:nonzero;stroke:black;stroke-width:1px;"/>
            <path d="M1860.9,481.2L1861.2,480.9L1860.9,480.9L1860.9,481.2Z" style="fill:rgb(38,40,49);fill-rule:nonzero;stroke:black;stroke-width:1px;"/>
            <path d="M1872.9,337.4L1860.9,480.9L1861.2,480.9L2011.9,305.9L1872.9,337.4Z" style="fill:rgb(38,40,49);fill-rule:nonzero;stroke:black;stroke-width:1px;"/>
            <path d="M1860.9,481.2L1942.6,481.2L1942.8,480.9L1861.2,480.9L1860.9,481.2Z" style="fill:rgb(43,47,57);fill-rule:nonzero;stroke:black;stroke-width:1px;"/>
            <path d="M1861.2,480.9L1942.8,480.9L2011.9,305.9L1861.2,480.9Z" style="fill:rgb(43,47,57);fill-rule:nonzero;stroke:black;stroke-width:1px;"/>
            <path d="M1942.6,481.2L2197.6,480.9L1942.8,480.9L1942.6,481.2Z" style="fill:rgb(29,31,40);fill-rule:nonzero;stroke:black;stroke-width:1px;"/>
            <path d="M1942.8,480.9L2197.6,480.9L2011.9,305.9L1942.8,480.9Z" style="fill:rgb(29,31,40);fill-rule:nonzero;stroke:black;stroke-width:1px;"/>
            <path d="M1872.9,337.4L2011.9,305.9L1832.5,174.9L1872.9,337.4Z" style="fill:rgb(37,42,51);fill-rule:nonzero;stroke:black;stroke-width:1px;"/>
            <g transform="matrix(1,0,0,1.0101,0,-0.784097)">
                <path d="M1946.6,1.2L1851.6,1.2L1880.9,77.6L1946.6,1.2Z" style="fill:rgb(35,40,49);fill-rule:nonzero;stroke:black;stroke-width:1px;"/>
            </g>
            <path d="M2100.3,-0.1L1946.6,-0.1L1945.5,1.2L2096.4,1.2L2100.3,-0.1Z" style="fill:rgb(30,34,41);fill-rule:nonzero;stroke:black;stroke-width:1px;"/>
            <g transform="matrix(1.01145,0,0,1.01085,-22.0772,-0.0640586)">
                <path d="M2096.4,1.2L1945.5,1.2L1883.5,75.4L2096.4,1.2Z" style="fill:rgb(30,34,41);fill-rule:nonzero;stroke:black;stroke-width:1px;"/>
            </g>
            <path d="M1880.9,76.3L1881.6,77.6L1883.5,75.4L1882.9,75.6L1880.9,76.3Z" style="fill:rgb(30,34,41);fill-rule:nonzero;stroke:black;stroke-width:1px;"/>
            <path d="M1832.5,173.5L2011.9,304.6L1881.6,77.6L1880.9,78.5L1832.5,173.5Z" style="fill:rgb(30,34,41);fill-rule:nonzero;stroke:black;stroke-width:1px;"/>
            <g transform="matrix(1.01069,0,0,1,-21.3517,0)">
                <path d="M1942.6,187.3C1943.8,187.2 1998.1,36.8 1998.1,36.8L1882.8,76.9L1942.6,187.3Z" style="fill:rgb(37,39,49);fill-rule:nonzero;stroke:black;stroke-width:1px;"/>
            </g>
            <path d="M2011.9,305.9L2054.6,201.1L1942.6,187.3L2011.9,305.9Z" style="fill:rgb(37,42,51);fill-rule:nonzero;stroke:black;stroke-width:1px;"/>
            <path d="M1942.6,185.2L2100.3,1.2L1998.2,36.8L1942.6,185.2Z" style="fill:rgb(34,35,45);fill-rule:nonzero;stroke:black;stroke-width:1px;"/>
            <path d="M2054.6,202.1L2100.3,2.2L1942.6,186.2L2054.6,202.1Z" style="fill:rgb(38,40,49);fill-rule:nonzero;stroke:black;stroke-width:1px;"/>
            <path d="M2273.5,83.8C2273.5,83.8 2102.5,1.2 2100.3,1.2L2084.1,71.9L2273.5,83.8Z" style="fill:rgb(30,34,41);fill-rule:nonzero;stroke:black;stroke-width:1px;"/>
            <g transform="matrix(0.999818,0,0,1.02348,0.383285,-0.751217)">
                <path d="M2302.4,1.2L2100.3,1.2L2165.7,32L2302.4,1.2Z" style="fill:rgb(34,35,45);fill-rule:nonzero;stroke:black;stroke-width:1px;"/>
            </g>
            <g transform="matrix(0.329839,-0.299676,0.711663,0.783293,1422.95,848.202)">
                <path d="M2522.2,362.3L2560,402.6L2560,352.1L2522.2,362.3Z" style="fill:rgb(46,47,57);fill-rule:nonzero;stroke:black;stroke-width:1px;"/>
            </g>
            <path d="M2273.5,83.8L2302.4,1.2L2165.7,32L2273.5,83.8Z" style="fill:rgb(34,35,45);fill-rule:nonzero;stroke:black;stroke-width:1px;"/>
            <path d="M2054.6,201.1L2178.8,77.9L2084.1,71.9L2054.6,201.1Z" style="fill:rgb(34,35,45);fill-rule:nonzero;stroke:black;stroke-width:1px;"/>
            <path d="M2054.6,201.1L2254,148.7L2178.8,77.9L2054.6,201.1Z" style="fill:rgb(37,39,49);fill-rule:nonzero;stroke:black;stroke-width:1px;"/>
            <path d="M2054.6,201.1L2281.5,207.8L2254,148.7L2054.6,201.1Z" style="fill:rgb(48,50,60);fill-rule:nonzero;stroke:black;stroke-width:1px;"/>
            <path d="M2011.9,305.9L2264.2,389.4L2054.6,201.1L2011.9,305.9Z" style="fill:rgb(40,42,51);fill-rule:nonzero;stroke:black;stroke-width:1px;"/>
            <path d="M2121,260.8L2281.5,207.8L2054.6,201.1L2121,260.8Z" style="fill:rgb(38,40,49);fill-rule:nonzero;stroke:black;stroke-width:1px;"/>
            <path d="M2214.4,344.7L2281.5,207.8L2121,260.8L2214.4,344.7Z" style="fill:rgb(35,40,49);fill-rule:nonzero;stroke:black;stroke-width:1px;"/>
            <path d="M2011.9,305.9L2197.6,480.9L2264.2,389.4L2011.9,305.9Z" style="fill:rgb(46,47,57);fill-rule:nonzero;stroke:black;stroke-width:1px;"/>
            <path d="M2254,148.7L2273.5,83.8L2178.8,77.9L2254,148.7Z" style="fill:rgb(34,35,45);fill-rule:nonzero;stroke:black;stroke-width:1px;"/>
            <path d="M2337.5,83.8C2337.5,83.8 2305.1,1.2 2302.4,1.2L2273.5,83.8L2337.5,83.8Z" style="fill:rgb(46,47,57);fill-rule:nonzero;stroke:black;stroke-width:1px;"/>
            <g transform="matrix(1,0,0,1.00937,0,-0.785325)">
                <path d="M2447.6,1.2L2302.4,1.2L2337.5,83.8L2447.6,1.2Z" style="fill:rgb(35,40,49);fill-rule:nonzero;stroke:black;stroke-width:1px;"/>
            </g>
            <path d="M2254,148.7L2337.5,83.8L2273.5,83.8L2254,148.7Z" style="fill:rgb(34,35,45);fill-rule:nonzero;stroke:black;stroke-width:1px;"/>
            <path d="M2281.5,207.8L2337.5,83.8L2254,148.7L2281.5,207.8Z" style="fill:rgb(34,35,45);fill-rule:nonzero;stroke:black;stroke-width:1px;"/>
            <path d="M2264.2,389.4L2281.5,207.8L2214.4,344.7L2264.2,389.4Z" style="fill:rgb(234,113,31);fill-rule:nonzero;stroke:black;stroke-width:1px;"/>
            <path d="M2264.2,389.4L2380.6,230.9L2283.4,208.2L2264.2,389.4Z" style="fill:rgb(37,39,49);fill-rule:nonzero;stroke:black;stroke-width:1px;"/>
            <g transform="matrix(1.00886,0,0,1.00554,-20.7212,-0.623336)">
                <path d="M2537.3,93.2L2447.6,1.2L2337.5,83.8L2537.3,93.2Z" style="fill:rgb(234,113,31);fill-rule:nonzero;stroke:black;stroke-width:1px;"/>
            </g>
            <path d="M2365.1,178.2L2537.3,93.2L2337.5,83.8L2365.1,178.2Z" style="fill:rgb(34,35,45);fill-rule:nonzero;stroke:black;stroke-width:1px;"/>
            <path d="M2380.6,230.9L2539.6,93.2L2365.1,178.2L2380.6,230.9Z" style="fill:rgb(30,34,41);fill-rule:nonzero;stroke:black;stroke-width:1px;"/>
            <path d="M2302.4,481.2L2450.7,481.2C2450.7,481.2 2450.5,481.1 2450,480.9L2302.2,480.9L2302.4,481.2Z" style="fill:rgb(35,40,49);fill-rule:nonzero;stroke:black;stroke-width:1px;"/>
            <path d="M2302.3,480.9L2450.1,480.9C2438.4,475.1 2267.2,389.8 2264.2,389.4L2302.3,480.9Z" style="fill:rgb(35,40,49);fill-rule:nonzero;stroke:black;stroke-width:1px;"/>
            <path d="M2343.9,428.2L2380.6,230.9L2264.2,389.4L2343.9,428.2Z" style="fill:rgb(46,47,57);fill-rule:nonzero;stroke:black;stroke-width:1px;"/>
            <path d="M2450.7,481.2L2450.9,480.9L2450.1,480.9L2450.7,481.2Z" style="fill:rgb(234,113,31);fill-rule:nonzero;stroke:black;stroke-width:1px;"/>
            <path d="M2343.9,428.2L2450.1,480.9L2450.9,480.9L2522.2,362.3L2343.9,428.2Z" style="fill:rgb(234,113,31);fill-rule:nonzero;stroke:black;stroke-width:1px;"/>
            <path d="M2343.9,428.2L2522.2,362.3L2380.6,230.9L2343.9,428.2Z" style="fill:rgb(34,35,45);fill-rule:nonzero;stroke:black;stroke-width:1px;"/>
            <path d="M2559.97,452.715L2515.87,374.284L2450.9,480.9L2560,480.9L2559.97,452.715Z" style="fill:rgb(36,38,47);fill-rule:nonzero;stroke:black;stroke-width:1px;"/>
            <g transform="matrix(1.29126,0,0,0.780631,-752.659,83.092)">
                <path d="M2531.62,373.126L2560,456.5L2560,401.5C2540.3,380.4 2533.32,374.026 2531.62,373.126Z" style="fill:rgb(43,47,57);fill-rule:nonzero;stroke:black;stroke-width:0.84px;"/>
            </g>
            <path d="M2522.2,362.3L2560,402.6L2560,352.1L2522.2,362.3Z" style="fill:rgb(46,47,57);fill-rule:nonzero;stroke:black;stroke-width:1px;"/>
            <path d="M2560,352L2560,307.9L2522.2,362.3L2560,352Z" style="fill:rgb(35,40,49);fill-rule:nonzero;stroke:black;stroke-width:1px;"/>
            <g transform="matrix(-1,0,0,1,2553.67,0.848203)">
                <path d="M0.371,479.982L0.338,0.504" style="fill:none;stroke:black;stroke-width:0.75px;stroke-linecap:round;stroke-linejoin:round;stroke-miterlimit:1.5;"/>
            </g>
            <path d="M2560,113.9L2560,31L2539.6,93.2L2560,113.9Z" style="fill:none;fill-rule:nonzero;stroke:black;stroke-width:2px;"/>
            <g transform="matrix(1,0,0,1.00777,0,-0.723788)">
                <path d="M2560,31L2560,1.2L2447.6,1.2L2539.6,93.2L2560,31Z" style="fill:rgb(32,36,45);fill-rule:nonzero;stroke:black;stroke-width:1px;"/>
            </g>
            <path d="M2460.1,304.7L2539.6,93.2L2380.6,230.9L2460.1,304.7Z" style="fill:rgb(34,39,47);fill-rule:nonzero;stroke:black;stroke-width:1px;"/>
            <path d="M2460.1,304.7L2560,242.9L2560,113.9L2539.6,93.2L2460.1,304.7Z" style="fill:rgb(34,35,45);fill-rule:nonzero;stroke:black;stroke-width:1px;"/>
            <path d="M2522.2,362.3L2560,307.9L2560,242.9L2460.1,304.7L2522.2,362.3Z" style="fill:rgb(38,44,53);fill-rule:nonzero;stroke:black;stroke-width:1px;"/>
            <path d="M2302.4,481.2L2302.3,480.9L2197.6,480.9L2302.4,481.2Z" style="fill:rgb(36,38,47);fill-rule:nonzero;stroke:black;stroke-width:1px;"/>
            <path d="M2197.6,480.9L2302.3,480.9L2264.2,389.4L2197.6,480.9Z" style="fill:rgb(36,38,47);fill-rule:nonzero;stroke:black;stroke-width:1px;"/>
            <path d="M2560,115.6L2560,25.7L2537.3,93.2L2560,115.6Z" style="fill:rgb(35,40,49);fill-rule:nonzero;stroke:black;stroke-width:1px;"/>
            <path d="M2281.5,207.8C2283.4,208.2 2380.5,231 2380.5,231L2337.4,83.9C2337.5,83.8 2279.6,207.3 2281.5,207.8Z" style="fill:rgb(37,39,49);fill-rule:nonzero;stroke:black;stroke-width:1px;"/>
            <path d="M2264.2,389.4L2380.6,230.9L2281.5,207.8L2264.2,389.4Z" style="fill:rgb(37,39,49);fill-rule:nonzero;stroke:black;stroke-width:1px;"/>
            <path d="M1498.5,0.3L1465.2,1.2L1498.6,1.2L1498.5,0.3Z" style="fill:rgb(30,32,40);fill-rule:nonzero;stroke:black;stroke-width:1px;"/>
            <path d="M1498.6,1.2L1465.2,1.2L1512.5,78.1L1498.6,1.2Z" style="fill:rgb(30,32,40);fill-rule:nonzero;stroke:black;stroke-width:1px;"/>
            <path d="M1207.9,61.1L1207.1,62.3L1174.7,110.6L1207.9,61.1Z" style="fill:rgb(43,47,57);fill-rule:nonzero;stroke:black;stroke-width:1px;"/>
            <path d="M1207.1,62.3L1248,1.2L1187.6,1.2L1172.5,110.6L1207.1,62.3Z" style="fill:rgb(43,47,57);fill-rule:nonzero;stroke:black;stroke-width:1px;"/>
            <g transform="matrix(1.01349,0,0,1.01401,-15.8034,-1.6705)">
                <path d="M1247.4,2.1L1187.6,1.2L1171.2,119.2L1247.4,2.1Z" style="fill:rgb(43,47,57);fill-rule:nonzero;stroke:black;stroke-width:1px;"/>
            </g>
        </g>
    </g>
</svg>
